<svg width="302" height="67" viewBox="0 0 302 67" fill="none" xmlns="http://www.w3.org/2000/svg">
<path d="M79.562 14.624V19.61H76.862V17H67.97V19.61H65.27L65.288 14.624H65.792C66.548 14.6 67.082 14.048 67.394 12.968C67.706 11.888 67.898 10.346 67.97 8.342L68.114 4.4H77.798V14.624H79.562ZM70.544 8.612C70.484 10.112 70.358 11.372 70.166 12.392C69.974 13.4 69.68 14.144 69.284 14.624H74.918V6.776H70.598L70.544 8.612ZM90.5999 12.194C90.5999 12.23 90.5819 12.482 90.5459 12.95H83.2199C83.3519 13.55 83.6639 14.024 84.1559 14.372C84.6479 14.72 85.2599 14.894 85.9919 14.894C86.4959 14.894 86.9399 14.822 87.3239 14.678C87.7199 14.522 88.0859 14.282 88.4219 13.958L89.9159 15.578C89.0039 16.622 87.6719 17.144 85.9199 17.144C84.8279 17.144 83.8619 16.934 83.0219 16.514C82.1819 16.082 81.5339 15.488 81.0779 14.732C80.6219 13.976 80.3939 13.118 80.3939 12.158C80.3939 11.21 80.6159 10.358 81.0599 9.602C81.5159 8.834 82.1339 8.24 82.9139 7.82C83.7059 7.388 84.5879 7.172 85.5599 7.172C86.5079 7.172 87.3659 7.376 88.1339 7.784C88.9019 8.192 89.5019 8.78 89.9339 9.548C90.3779 10.304 90.5999 11.186 90.5999 12.194ZM85.5779 9.296C84.9419 9.296 84.4079 9.476 83.9759 9.836C83.5439 10.196 83.2799 10.688 83.1839 11.312H87.9539C87.8579 10.7 87.5939 10.214 87.1619 9.854C86.7299 9.482 86.2019 9.296 85.5779 9.296ZM107.53 7.316V17H92.7523V7.316H95.5423V14.696H98.7643V7.316H101.554V14.696H104.74V7.316H107.53ZM119.639 12.194C119.639 12.23 119.621 12.482 119.585 12.95H112.259C112.391 13.55 112.703 14.024 113.195 14.372C113.687 14.72 114.299 14.894 115.031 14.894C115.535 14.894 115.979 14.822 116.363 14.678C116.759 14.522 117.125 14.282 117.461 13.958L118.955 15.578C118.043 16.622 116.711 17.144 114.959 17.144C113.867 17.144 112.901 16.934 112.061 16.514C111.221 16.082 110.573 15.488 110.117 14.732C109.661 13.976 109.433 13.118 109.433 12.158C109.433 11.21 109.655 10.358 110.099 9.602C110.555 8.834 111.173 8.24 111.953 7.82C112.745 7.388 113.627 7.172 114.599 7.172C115.547 7.172 116.405 7.376 117.173 7.784C117.941 8.192 118.541 8.78 118.973 9.548C119.417 10.304 119.639 11.186 119.639 12.194ZM114.617 9.296C113.981 9.296 113.447 9.476 113.015 9.836C112.583 10.196 112.319 10.688 112.223 11.312H116.993C116.897 10.7 116.633 10.214 116.201 9.854C115.769 9.482 115.241 9.296 114.617 9.296ZM129.189 11.942C130.329 12.326 130.899 13.094 130.899 14.246C130.899 15.122 130.569 15.8 129.909 16.28C129.249 16.76 128.265 17 126.957 17H121.791V7.316H126.741C127.953 7.316 128.901 7.538 129.585 7.982C130.269 8.414 130.611 9.026 130.611 9.818C130.611 10.298 130.485 10.724 130.233 11.096C129.993 11.456 129.645 11.738 129.189 11.942ZM124.365 11.294H126.489C127.473 11.294 127.965 10.946 127.965 10.25C127.965 9.566 127.473 9.224 126.489 9.224H124.365V11.294ZM126.723 15.092C127.755 15.092 128.271 14.738 128.271 14.03C128.271 13.658 128.151 13.388 127.911 13.22C127.671 13.04 127.293 12.95 126.777 12.95H124.365V15.092H126.723ZM136.751 7.172C138.251 7.172 139.403 7.532 140.207 8.252C141.011 8.96 141.413 10.034 141.413 11.474V17H138.785V15.794C138.257 16.694 137.273 17.144 135.833 17.144C135.089 17.144 134.441 17.018 133.889 16.766C133.349 16.514 132.935 16.166 132.647 15.722C132.359 15.278 132.215 14.774 132.215 14.21C132.215 13.31 132.551 12.602 133.223 12.086C133.907 11.57 134.957 11.312 136.373 11.312H138.605C138.605 10.7 138.419 10.232 138.047 9.908C137.675 9.572 137.117 9.404 136.373 9.404C135.857 9.404 135.347 9.488 134.843 9.656C134.351 9.812 133.931 10.028 133.583 10.304L132.575 8.342C133.103 7.97 133.733 7.682 134.465 7.478C135.209 7.274 135.971 7.172 136.751 7.172ZM136.535 15.254C137.015 15.254 137.441 15.146 137.813 14.93C138.185 14.702 138.449 14.372 138.605 13.94V12.95H136.679C135.527 12.95 134.951 13.328 134.951 14.084C134.951 14.444 135.089 14.732 135.365 14.948C135.653 15.152 136.043 15.254 136.535 15.254ZM152.456 7.316V17H149.954V14.228H147.884L146.048 17H143.06L145.274 13.832C144.602 13.568 144.086 13.19 143.726 12.698C143.378 12.194 143.204 11.588 143.204 10.88C143.204 9.74 143.612 8.864 144.428 8.252C145.256 7.628 146.39 7.316 147.83 7.316H152.456ZM147.884 9.602C147.284 9.602 146.828 9.71 146.516 9.926C146.216 10.142 146.066 10.49 146.066 10.97C146.066 11.45 146.21 11.804 146.498 12.032C146.798 12.248 147.248 12.356 147.848 12.356H149.954V9.602H147.884ZM173.626 12.122C173.626 13.622 173.122 14.81 172.114 15.686C171.118 16.55 169.69 17.048 167.83 17.18V20.492H165.256V17.18C163.396 17.048 161.962 16.556 160.954 15.704C159.958 14.84 159.46 13.646 159.46 12.122C159.46 10.622 159.952 9.458 160.936 8.63C161.932 7.802 163.372 7.322 165.256 7.19V3.644H167.83V7.19C169.69 7.322 171.118 7.808 172.114 8.648C173.122 9.488 173.626 10.646 173.626 12.122ZM162.178 12.122C162.178 12.986 162.424 13.652 162.916 14.12C163.408 14.588 164.188 14.882 165.256 15.002V9.368C164.188 9.476 163.408 9.758 162.916 10.214C162.424 10.658 162.178 11.294 162.178 12.122ZM167.83 15.002C168.898 14.882 169.678 14.588 170.17 14.12C170.674 13.652 170.926 12.986 170.926 12.122C170.926 11.294 170.674 10.658 170.17 10.214C169.678 9.758 168.898 9.476 167.83 9.368V15.002ZM184.966 7.316L180.592 17.594C180.148 18.71 179.596 19.496 178.936 19.952C178.288 20.408 177.502 20.636 176.578 20.636C176.074 20.636 175.576 20.558 175.084 20.402C174.592 20.246 174.19 20.03 173.878 19.754L174.904 17.756C175.12 17.948 175.366 18.098 175.642 18.206C175.93 18.314 176.212 18.368 176.488 18.368C176.872 18.368 177.184 18.272 177.424 18.08C177.664 17.9 177.88 17.594 178.072 17.162L178.108 17.072L173.914 7.316H176.812L179.53 13.886L182.266 7.316H184.966ZM192.027 7.172C192.927 7.172 193.743 7.382 194.475 7.802C195.219 8.21 195.801 8.792 196.221 9.548C196.641 10.292 196.851 11.162 196.851 12.158C196.851 13.154 196.641 14.03 196.221 14.786C195.801 15.53 195.219 16.112 194.475 16.532C193.743 16.94 192.927 17.144 192.027 17.144C190.791 17.144 189.819 16.754 189.111 15.974V20.492H186.303V7.316H188.985V8.432C189.681 7.592 190.695 7.172 192.027 7.172ZM191.541 14.84C192.261 14.84 192.849 14.6 193.305 14.12C193.773 13.628 194.007 12.974 194.007 12.158C194.007 11.342 193.773 10.694 193.305 10.214C192.849 9.722 192.261 9.476 191.541 9.476C190.821 9.476 190.227 9.722 189.759 10.214C189.303 10.694 189.075 11.342 189.075 12.158C189.075 12.974 189.303 13.628 189.759 14.12C190.227 14.6 190.821 14.84 191.541 14.84ZM198.819 7.316H201.609V11.096H205.821V7.316H208.629V17H205.821V13.382H201.609V17H198.819V7.316ZM211.317 7.316H214.107V13.076L218.823 7.316H221.397V17H218.607V11.24L213.909 17H211.317V7.316ZM232.232 9.62H228.956V17H226.166V9.62H222.89V7.316H232.232V9.62ZM243.519 7.316L239.145 17.594C238.701 18.71 238.149 19.496 237.489 19.952C236.841 20.408 236.055 20.636 235.131 20.636C234.627 20.636 234.129 20.558 233.637 20.402C233.145 20.246 232.743 20.03 232.431 19.754L233.457 17.756C233.673 17.948 233.919 18.098 234.195 18.206C234.483 18.314 234.765 18.368 235.041 18.368C235.425 18.368 235.737 18.272 235.977 18.08C236.217 17.9 236.433 17.594 236.625 17.162L236.661 17.072L232.467 7.316H235.365L238.083 13.886L240.819 7.316H243.519ZM250.579 7.172C251.479 7.172 252.295 7.382 253.027 7.802C253.771 8.21 254.353 8.792 254.773 9.548C255.193 10.292 255.403 11.162 255.403 12.158C255.403 13.154 255.193 14.03 254.773 14.786C254.353 15.53 253.771 16.112 253.027 16.532C252.295 16.94 251.479 17.144 250.579 17.144C249.343 17.144 248.371 16.754 247.663 15.974V20.492H244.855V7.316H247.537V8.432C248.233 7.592 249.247 7.172 250.579 7.172ZM250.093 14.84C250.813 14.84 251.401 14.6 251.857 14.12C252.325 13.628 252.559 12.974 252.559 12.158C252.559 11.342 252.325 10.694 251.857 10.214C251.401 9.722 250.813 9.476 250.093 9.476C249.373 9.476 248.779 9.722 248.311 10.214C247.855 10.694 247.627 11.342 247.627 12.158C247.627 12.974 247.855 13.628 248.311 14.12C248.779 14.6 249.373 14.84 250.093 14.84ZM260.975 7.172C262.475 7.172 263.627 7.532 264.431 8.252C265.235 8.96 265.637 10.034 265.637 11.474V17H263.009V15.794C262.481 16.694 261.497 17.144 260.057 17.144C259.313 17.144 258.665 17.018 258.113 16.766C257.573 16.514 257.159 16.166 256.871 15.722C256.583 15.278 256.439 14.774 256.439 14.21C256.439 13.31 256.775 12.602 257.447 12.086C258.131 11.57 259.181 11.312 260.597 11.312H262.829C262.829 10.7 262.643 10.232 262.271 9.908C261.899 9.572 261.341 9.404 260.597 9.404C260.081 9.404 259.571 9.488 259.067 9.656C258.575 9.812 258.155 10.028 257.807 10.304L256.799 8.342C257.327 7.97 257.957 7.682 258.689 7.478C259.433 7.274 260.195 7.172 260.975 7.172ZM260.759 15.254C261.239 15.254 261.665 15.146 262.037 14.93C262.409 14.702 262.673 14.372 262.829 13.94V12.95H260.903C259.751 12.95 259.175 13.328 259.175 14.084C259.175 14.444 259.313 14.732 259.589 14.948C259.877 15.152 260.267 15.254 260.759 15.254ZM74.954 37.2V47H73.554V42.632H67.926V47H66.526V37.2H67.926V41.414H73.554V37.2H74.954ZM84.4924 43.332C84.4924 43.4347 84.483 43.57 84.4644 43.738H78.4444C78.5284 44.3913 78.813 44.9187 79.2984 45.32C79.793 45.712 80.4044 45.908 81.1324 45.908C82.019 45.908 82.733 45.6093 83.2744 45.012L84.0164 45.88C83.6804 46.272 83.2604 46.5707 82.7564 46.776C82.2617 46.9813 81.7064 47.084 81.0904 47.084C80.3064 47.084 79.611 46.9253 79.0044 46.608C78.3977 46.2813 77.9264 45.8287 77.5904 45.25C77.2637 44.6713 77.1004 44.018 77.1004 43.29C77.1004 42.5713 77.259 41.9227 77.5764 41.344C77.903 40.7653 78.3464 40.3173 78.9064 40C79.4757 39.6733 80.115 39.51 80.8244 39.51C81.5337 39.51 82.1637 39.6733 82.7144 40C83.2744 40.3173 83.7084 40.7653 84.0164 41.344C84.3337 41.9227 84.4924 42.5853 84.4924 43.332ZM80.8244 40.644C80.1804 40.644 79.639 40.84 79.2004 41.232C78.771 41.624 78.519 42.1373 78.4444 42.772H83.2044C83.1297 42.1467 82.873 41.638 82.4344 41.246C82.005 40.8447 81.4684 40.644 80.8244 40.644ZM89.4614 43.864H87.9214V47H86.5774V39.58H87.9214V42.716H89.4894L91.8974 39.58H93.3394L90.5254 43.15L93.5354 47H91.9534L89.4614 43.864ZM97.4539 39.51C98.4805 39.51 99.2645 39.762 99.8059 40.266C100.357 40.77 100.632 41.5213 100.632 42.52V47H99.3579V46.02C99.1339 46.3653 98.8119 46.6313 98.3919 46.818C97.9812 46.9953 97.4912 47.084 96.9219 47.084C96.0912 47.084 95.4239 46.8833 94.9199 46.482C94.4252 46.0807 94.1779 45.5533 94.1779 44.9C94.1779 44.2467 94.4159 43.724 94.8919 43.332C95.3679 42.9307 96.1239 42.73 97.1599 42.73H99.2879V42.464C99.2879 41.8853 99.1199 41.442 98.7839 41.134C98.4479 40.826 97.9532 40.672 97.2999 40.672C96.8612 40.672 96.4319 40.7467 96.0119 40.896C95.5919 41.036 95.2372 41.2273 94.9479 41.47L94.3879 40.462C94.7705 40.154 95.2279 39.9207 95.7599 39.762C96.2919 39.594 96.8565 39.51 97.4539 39.51ZM97.1459 46.048C97.6592 46.048 98.1025 45.936 98.4759 45.712C98.8492 45.4787 99.1199 45.152 99.2879 44.732V43.696H97.2159C96.0772 43.696 95.5079 44.0787 95.5079 44.844C95.5079 45.2173 95.6525 45.5113 95.9419 45.726C96.2312 45.9407 96.6325 46.048 97.1459 46.048ZM108.974 39.58V47H107.63V44.004C106.827 44.3773 106.029 44.564 105.236 44.564C104.312 44.564 103.598 44.3493 103.094 43.92C102.59 43.4907 102.338 42.8467 102.338 41.988V39.58H103.682V41.904C103.682 42.4173 103.841 42.8047 104.158 43.066C104.485 43.3273 104.937 43.458 105.516 43.458C106.169 43.458 106.874 43.2947 107.63 42.968V39.58H108.974ZM118.289 43.332C118.289 43.4347 118.28 43.57 118.261 43.738H112.241C112.325 44.3913 112.61 44.9187 113.095 45.32C113.59 45.712 114.201 45.908 114.929 45.908C115.816 45.908 116.53 45.6093 117.071 45.012L117.813 45.88C117.477 46.272 117.057 46.5707 116.553 46.776C116.059 46.9813 115.503 47.084 114.887 47.084C114.103 47.084 113.408 46.9253 112.801 46.608C112.195 46.2813 111.723 45.8287 111.387 45.25C111.061 44.6713 110.897 44.018 110.897 43.29C110.897 42.5713 111.056 41.9227 111.373 41.344C111.7 40.7653 112.143 40.3173 112.703 40C113.273 39.6733 113.912 39.51 114.621 39.51C115.331 39.51 115.961 39.6733 116.511 40C117.071 40.3173 117.505 40.7653 117.813 41.344C118.131 41.9227 118.289 42.5853 118.289 43.332ZM114.621 40.644C113.977 40.644 113.436 40.84 112.997 41.232C112.568 41.624 112.316 42.1373 112.241 42.772H117.001C116.927 42.1467 116.67 41.638 116.231 41.246C115.802 40.8447 115.265 40.644 114.621 40.644ZM123.608 47.084C122.852 47.084 122.176 46.9207 121.578 46.594C120.99 46.2673 120.528 45.8193 120.192 45.25C119.856 44.6713 119.688 44.018 119.688 43.29C119.688 42.562 119.856 41.9133 120.192 41.344C120.528 40.7653 120.99 40.3173 121.578 40C122.176 39.6733 122.852 39.51 123.608 39.51C124.28 39.51 124.878 39.6453 125.4 39.916C125.932 40.1867 126.343 40.5787 126.632 41.092L125.61 41.75C125.377 41.3953 125.088 41.1293 124.742 40.952C124.397 40.7747 124.014 40.686 123.594 40.686C123.109 40.686 122.67 40.7933 122.278 41.008C121.896 41.2227 121.592 41.5307 121.368 41.932C121.154 42.324 121.046 42.7767 121.046 43.29C121.046 43.8127 121.154 44.2747 121.368 44.676C121.592 45.068 121.896 45.3713 122.278 45.586C122.67 45.8007 123.109 45.908 123.594 45.908C124.014 45.908 124.397 45.8193 124.742 45.642C125.088 45.4647 125.377 45.1987 125.61 44.844L126.632 45.488C126.343 46.0013 125.932 46.398 125.4 46.678C124.878 46.9487 124.28 47.084 123.608 47.084ZM133.807 40.756H131.091V47H129.747V40.756H127.031V39.58H133.807V40.756ZM140.235 43.15C141.196 43.3927 141.677 43.9947 141.677 44.956C141.677 45.6093 141.43 46.1133 140.935 46.468C140.45 46.8227 139.722 47 138.751 47H135.181V39.58H138.625C139.502 39.58 140.188 39.748 140.683 40.084C141.178 40.4107 141.425 40.8773 141.425 41.484C141.425 41.876 141.318 42.2167 141.103 42.506C140.898 42.786 140.608 43.0007 140.235 43.15ZM136.497 42.772H138.513C139.026 42.772 139.414 42.6787 139.675 42.492C139.946 42.3053 140.081 42.0347 140.081 41.68C140.081 40.9707 139.558 40.616 138.513 40.616H136.497V42.772ZM138.653 45.964C139.213 45.964 139.633 45.8753 139.913 45.698C140.193 45.5207 140.333 45.2453 140.333 44.872C140.333 44.4893 140.202 44.2047 139.941 44.018C139.689 43.8313 139.288 43.738 138.737 43.738H136.497V45.964H138.653ZM150.487 43.332C150.487 43.4347 150.477 43.57 150.459 43.738H144.439C144.523 44.3913 144.807 44.9187 145.293 45.32C145.787 45.712 146.399 45.908 147.127 45.908C148.013 45.908 148.727 45.6093 149.269 45.012L150.011 45.88C149.675 46.272 149.255 46.5707 148.751 46.776C148.256 46.9813 147.701 47.084 147.085 47.084C146.301 47.084 145.605 46.9253 144.999 46.608C144.392 46.2813 143.921 45.8287 143.585 45.25C143.258 44.6713 143.095 44.018 143.095 43.29C143.095 42.5713 143.253 41.9227 143.571 41.344C143.897 40.7653 144.341 40.3173 144.901 40C145.47 39.6733 146.109 39.51 146.819 39.51C147.528 39.51 148.158 39.6733 148.709 40C149.269 40.3173 149.703 40.7653 150.011 41.344C150.328 41.9227 150.487 42.5853 150.487 43.332ZM146.819 40.644C146.175 40.644 145.633 40.84 145.195 41.232C144.765 41.624 144.513 42.1373 144.439 42.772H149.199C149.124 42.1467 148.867 41.638 148.429 41.246C147.999 40.8447 147.463 40.644 146.819 40.644ZM152.572 39.58H153.916V42.73H158.144V39.58H159.488V47H158.144V43.892H153.916V47H152.572V39.58ZM162.101 39.58H163.445V42.73H167.673V39.58H169.017V47H167.673V43.892H163.445V47H162.101V39.58ZM174.276 39.51C175.303 39.51 176.087 39.762 176.628 40.266C177.179 40.77 177.454 41.5213 177.454 42.52V47H176.18V46.02C175.956 46.3653 175.634 46.6313 175.214 46.818C174.803 46.9953 174.313 47.084 173.744 47.084C172.913 47.084 172.246 46.8833 171.742 46.482C171.247 46.0807 171 45.5533 171 44.9C171 44.2467 171.238 43.724 171.714 43.332C172.19 42.9307 172.946 42.73 173.982 42.73H176.11V42.464C176.11 41.8853 175.942 41.442 175.606 41.134C175.27 40.826 174.775 40.672 174.122 40.672C173.683 40.672 173.254 40.7467 172.834 40.896C172.414 41.036 172.059 41.2273 171.77 41.47L171.21 40.462C171.593 40.154 172.05 39.9207 172.582 39.762C173.114 39.594 173.679 39.51 174.276 39.51ZM173.968 46.048C174.481 46.048 174.925 45.936 175.298 45.712C175.671 45.4787 175.942 45.152 176.11 44.732V43.696H174.038C172.899 43.696 172.33 44.0787 172.33 44.844C172.33 45.2173 172.475 45.5113 172.764 45.726C173.053 45.9407 173.455 46.048 173.968 46.048ZM185.824 39.58V47H184.62V44.648H182.464H182.31L180.686 47H179.244L181.05 44.466C180.49 44.298 180.061 44.0227 179.762 43.64C179.464 43.248 179.314 42.7627 179.314 42.184C179.314 41.3347 179.604 40.6907 180.182 40.252C180.761 39.804 181.559 39.58 182.576 39.58H185.824ZM180.686 42.226C180.686 42.7207 180.84 43.0893 181.148 43.332C181.466 43.5653 181.937 43.682 182.562 43.682H184.62V40.756H182.618C181.33 40.756 180.686 41.246 180.686 42.226ZM201.572 43.276C201.572 44.424 201.19 45.3293 200.424 45.992C199.659 46.6547 198.581 47.0233 197.19 47.098V49.716H195.874V47.098C194.484 47.0233 193.406 46.6593 192.64 46.006C191.884 45.3433 191.506 44.4333 191.506 43.276C191.506 42.128 191.884 41.232 192.64 40.588C193.396 39.944 194.474 39.5847 195.874 39.51V36.612H197.19V39.51C198.581 39.5847 199.659 39.9487 200.424 40.602C201.19 41.246 201.572 42.1373 201.572 43.276ZM192.836 43.276C192.836 44.0693 193.088 44.69 193.592 45.138C194.106 45.586 194.866 45.8427 195.874 45.908V40.7C194.857 40.7653 194.096 41.0173 193.592 41.456C193.088 41.8947 192.836 42.5013 192.836 43.276ZM197.19 45.922C199.225 45.7633 200.242 44.8813 200.242 43.276C200.242 42.492 199.986 41.8853 199.472 41.456C198.959 41.0173 198.198 40.7653 197.19 40.7V45.922ZM209.889 39.58L206.291 47.742C205.974 48.498 205.6 49.03 205.171 49.338C204.751 49.646 204.242 49.8 203.645 49.8C203.281 49.8 202.926 49.7393 202.581 49.618C202.245 49.506 201.965 49.338 201.741 49.114L202.315 48.106C202.698 48.47 203.141 48.652 203.645 48.652C203.972 48.652 204.242 48.5633 204.457 48.386C204.681 48.218 204.882 47.924 205.059 47.504L205.297 46.986L202.021 39.58H203.421L206.011 45.516L208.573 39.58H209.889ZM215.199 39.51C215.918 39.51 216.562 39.6687 217.131 39.986C217.7 40.3033 218.144 40.7467 218.461 41.316C218.788 41.8853 218.951 42.5433 218.951 43.29C218.951 44.0367 218.788 44.6993 218.461 45.278C218.144 45.8473 217.7 46.2907 217.131 46.608C216.562 46.9253 215.918 47.084 215.199 47.084C214.667 47.084 214.177 46.9813 213.729 46.776C213.29 46.5707 212.917 46.272 212.609 45.88V49.716H211.265V39.58H212.553V40.756C212.852 40.3453 213.23 40.0373 213.687 39.832C214.144 39.6173 214.648 39.51 215.199 39.51ZM215.087 45.908C215.563 45.908 215.988 45.8007 216.361 45.586C216.744 45.362 217.042 45.054 217.257 44.662C217.481 44.2607 217.593 43.8033 217.593 43.29C217.593 42.7767 217.481 42.324 217.257 41.932C217.042 41.5307 216.744 41.2227 216.361 41.008C215.988 40.7933 215.563 40.686 215.087 40.686C214.62 40.686 214.196 40.798 213.813 41.022C213.44 41.2367 213.141 41.54 212.917 41.932C212.702 42.324 212.595 42.7767 212.595 43.29C212.595 43.8033 212.702 44.2607 212.917 44.662C213.132 45.054 213.43 45.362 213.813 45.586C214.196 45.8007 214.62 45.908 215.087 45.908ZM220.904 39.58H222.248V42.73H226.476V39.58H227.82V47H226.476V43.892H222.248V47H220.904V39.58ZM230.433 39.58H231.777V44.984L236.327 39.58H237.545V47H236.201V41.596L231.665 47H230.433V39.58ZM245.684 40.756H242.968V47H241.624V40.756H238.908V39.58H245.684V40.756ZM253.721 39.58L250.123 47.742C249.806 48.498 249.432 49.03 249.003 49.338C248.583 49.646 248.074 49.8 247.477 49.8C247.113 49.8 246.758 49.7393 246.413 49.618C246.077 49.506 245.797 49.338 245.573 49.114L246.147 48.106C246.53 48.47 246.973 48.652 247.477 48.652C247.804 48.652 248.074 48.5633 248.289 48.386C248.513 48.218 248.714 47.924 248.891 47.504L249.129 46.986L245.853 39.58H247.253L249.843 45.516L252.405 39.58H253.721ZM259.031 39.51C259.75 39.51 260.394 39.6687 260.963 39.986C261.532 40.3033 261.976 40.7467 262.293 41.316C262.62 41.8853 262.783 42.5433 262.783 43.29C262.783 44.0367 262.62 44.6993 262.293 45.278C261.976 45.8473 261.532 46.2907 260.963 46.608C260.394 46.9253 259.75 47.084 259.031 47.084C258.499 47.084 258.009 46.9813 257.561 46.776C257.122 46.5707 256.749 46.272 256.441 45.88V49.716H255.097V39.58H256.385V40.756C256.684 40.3453 257.062 40.0373 257.519 39.832C257.976 39.6173 258.48 39.51 259.031 39.51ZM258.919 45.908C259.395 45.908 259.82 45.8007 260.193 45.586C260.576 45.362 260.874 45.054 261.089 44.662C261.313 44.2607 261.425 43.8033 261.425 43.29C261.425 42.7767 261.313 42.324 261.089 41.932C260.874 41.5307 260.576 41.2227 260.193 41.008C259.82 40.7933 259.395 40.686 258.919 40.686C258.452 40.686 258.028 40.798 257.645 41.022C257.272 41.2367 256.973 41.54 256.749 41.932C256.534 42.324 256.427 42.7767 256.427 43.29C256.427 43.8033 256.534 44.2607 256.749 44.662C256.964 45.054 257.262 45.362 257.645 45.586C258.028 45.8007 258.452 45.908 258.919 45.908ZM267.313 39.51C268.34 39.51 269.124 39.762 269.665 40.266C270.216 40.77 270.491 41.5213 270.491 42.52V47H269.217V46.02C268.993 46.3653 268.671 46.6313 268.251 46.818C267.841 46.9953 267.351 47.084 266.781 47.084C265.951 47.084 265.283 46.8833 264.779 46.482C264.285 46.0807 264.037 45.5533 264.037 44.9C264.037 44.2467 264.275 43.724 264.751 43.332C265.227 42.9307 265.983 42.73 267.019 42.73H269.147V42.464C269.147 41.8853 268.979 41.442 268.643 41.134C268.307 40.826 267.813 40.672 267.159 40.672C266.721 40.672 266.291 40.7467 265.871 40.896C265.451 41.036 265.097 41.2273 264.807 41.47L264.247 40.462C264.63 40.154 265.087 39.9207 265.619 39.762C266.151 39.594 266.716 39.51 267.313 39.51ZM267.005 46.048C267.519 46.048 267.962 45.936 268.335 45.712C268.709 45.4787 268.979 45.152 269.147 44.732V43.696H267.075C265.937 43.696 265.367 44.0787 265.367 44.844C265.367 45.2173 265.512 45.5113 265.801 45.726C266.091 45.9407 266.492 46.048 267.005 46.048Z" fill="#FF1D1D"/>
<path d="M34.3125 20.15H19.225V1.6875C19.225 1.51179 19.1552 1.34328 19.031 1.21904C18.9067 1.0948 18.7382 1.025 18.5625 1.025H1.6875C1.51179 1.025 1.34328 1.0948 1.21904 1.21904C1.0948 1.34328 1.025 1.51179 1.025 1.6875V34.3125C1.025 34.4882 1.0948 34.6567 1.21904 34.781C1.34328 34.9052 1.51179 34.975 1.6875 34.975H18.5625C18.7382 34.975 18.9067 34.9052 19.031 34.781C19.1552 34.6567 19.225 34.4882 19.225 34.3125V27.1H34.3125C34.4882 27.1 34.6567 27.0302 34.781 26.906C34.9052 26.7817 34.975 26.6132 34.975 26.4375V20.8125C34.975 20.6368 34.9052 20.4683 34.781 20.344C34.6567 20.2198 34.4882 20.15 34.3125 20.15ZM2.35 33.65V2.35H17.9V20.15H14.6578C13.9392 19.209 12.9461 18.5137 11.8151 18.1604C10.6682 17.8021 9.43764 17.8138 8.29772 18.1938C7.1578 18.5738 6.16634 19.3028 5.46376 20.2775C4.76119 21.2523 4.38313 22.4234 4.38313 23.625C4.38313 24.8266 4.76119 25.9977 5.46376 26.9725C6.16634 27.9472 7.1578 28.6762 8.29772 29.0562C9.43764 29.4362 10.6682 29.4479 11.8151 29.0896C12.9461 28.7363 13.9392 28.041 14.6578 27.1H17.9V33.65H2.35ZM10.125 27.1H12.8175C12.2236 27.5613 11.5199 27.8637 10.7732 27.976C9.93589 28.102 9.07998 27.9837 8.3082 27.6353C7.53643 27.2869 6.88157 26.7232 6.42222 26.0119C5.96287 25.3006 5.71853 24.4718 5.71853 23.625C5.71853 22.7782 5.96287 21.9494 6.42222 21.2381C6.88157 20.5268 7.53643 19.9631 8.3082 19.6147C9.07998 19.2663 9.93589 19.148 10.7732 19.274C11.5199 19.3863 12.2236 19.6887 12.8175 20.15H10.125C9.20337 20.15 8.31949 20.5161 7.6678 21.1678C7.01612 21.8195 6.65 22.7034 6.65 23.625C6.65 24.5466 7.01612 25.4305 7.6678 26.0822C8.31949 26.7339 9.20337 27.1 10.125 27.1ZM29.15 25.775H10.125C9.55478 25.775 9.00792 25.5485 8.60472 25.1453C8.20152 24.7421 7.975 24.1952 7.975 23.625C7.975 23.0548 8.20152 22.5079 8.60472 22.1047C9.00792 21.7015 9.55478 21.475 10.125 21.475H29.15V25.775ZM33.65 25.775H30.475V21.475H33.65V25.775Z" fill="#212F3C" stroke="#212F3C" stroke-width="0.2"/>
<path d="M15.1875 4.4H5.0625C4.88679 4.4 4.71828 4.4698 4.59404 4.59404C4.4698 4.71828 4.4 4.88679 4.4 5.0625V15.1875C4.4 15.3632 4.4698 15.5317 4.59404 15.656C4.71828 15.7802 4.88679 15.85 5.0625 15.85H15.1875C15.3632 15.85 15.5317 15.7802 15.656 15.656C15.7802 15.5317 15.85 15.3632 15.85 15.1875V5.0625C15.85 4.88679 15.7802 4.71828 15.656 4.59404C15.5317 4.4698 15.3632 4.4 15.1875 4.4ZM14.525 14.525H5.725V5.725H14.525V14.525Z" fill="#212F3C" stroke="#212F3C" stroke-width="0.2"/>
<path d="M6.1875 30.8375H6.0875V30.9375V32.0625V32.1625H6.1875H7.3125H7.4125V32.0625V30.9375V30.8375H7.3125H6.1875Z" fill="#212F3C" stroke="#212F3C" stroke-width="0.2"/>
<path d="M8.4375 30.8375H8.3375V30.9375V32.0625V32.1625H8.4375H9.5625H9.6625V32.0625V30.9375V30.8375H9.5625H8.4375Z" fill="#212F3C" stroke="#212F3C" stroke-width="0.2"/>
<path d="M10.6875 30.8375H10.5875V30.9375V32.0625V32.1625H10.6875H11.8125H11.9125V32.0625V30.9375V30.8375H11.8125H10.6875Z" fill="#212F3C" stroke="#212F3C" stroke-width="0.2"/>
<path d="M12.9375 30.8375H12.8375V30.9375V32.0625V32.1625H12.9375H14.0625H14.1625V32.0625V30.9375V30.8375H14.0625H12.9375Z" fill="#212F3C" stroke="#212F3C" stroke-width="0.2"/>
<path d="M7.3125 7.2125H7.2125V7.3125V8.4375V8.5375H7.3125H8.4375H8.5375V8.4375V7.3125V7.2125H8.4375H7.3125Z" fill="#212F3C" stroke="#212F3C" stroke-width="0.2"/>
<path d="M9.5625 7.2125H9.4625V7.3125V8.4375V8.5375H9.5625H10.6875H10.7875V8.4375V7.3125V7.2125H10.6875H9.5625Z" fill="#212F3C" stroke="#212F3C" stroke-width="0.2"/>
<path d="M11.8125 7.2125H11.7125V7.3125V8.4375V8.5375H11.8125H12.9375H13.0375V8.4375V7.3125V7.2125H12.9375H11.8125Z" fill="#212F3C" stroke="#212F3C" stroke-width="0.2"/>
<path d="M7.3125 9.4625H7.2125V9.5625V10.6875V10.7875H7.3125H8.4375H8.5375V10.6875V9.5625V9.4625H8.4375H7.3125Z" fill="#212F3C" stroke="#212F3C" stroke-width="0.2"/>
<path d="M9.5625 9.4625H9.4625V9.5625V10.6875V10.7875H9.5625H10.6875H10.7875V10.6875V9.5625V9.4625H10.6875H9.5625Z" fill="#212F3C" stroke="#212F3C" stroke-width="0.2"/>
<path d="M11.8125 9.4625H11.7125V9.5625V10.6875V10.7875H11.8125H12.9375H13.0375V10.6875V9.5625V9.4625H12.9375H11.8125Z" fill="#212F3C" stroke="#212F3C" stroke-width="0.2"/>
<path d="M7.3125 11.7125H7.2125V11.8125V12.9375V13.0375H7.3125H8.4375H8.5375V12.9375V11.8125V11.7125H8.4375H7.3125Z" fill="#212F3C" stroke="#212F3C" stroke-width="0.2"/>
<path d="M9.5625 11.7125H9.4625V11.8125V12.9375V13.0375H9.5625H10.6875H10.7875V12.9375V11.8125V11.7125H10.6875H9.5625Z" fill="#212F3C" stroke="#212F3C" stroke-width="0.2"/>
<path d="M11.8125 11.7125H11.7125V11.8125V12.9375V13.0375H11.8125H12.9375H13.0375V12.9375V11.8125V11.7125H12.9375H11.8125Z" fill="#212F3C" stroke="#212F3C" stroke-width="0.2"/>
<circle cx="18" cy="18" r="16.5" stroke="#FF1D1D" stroke-width="3"/>
<path d="M28.5 5.5L6 28" stroke="#FF1D1D" stroke-width="3"/>
</svg>
