<svg width="308" height="67" viewBox="0 0 308 67" fill="none" xmlns="http://www.w3.org/2000/svg">
<mask id="path-1-outside-1" maskUnits="userSpaceOnUse" x="0.25" y="3.99976" width="39" height="31" fill="black">
<rect fill="white" x="0.25" y="3.99976" width="39" height="31"/>
<path d="M37.9593 6.27256L36.25 6.74217V5.62499C36.25 5.52282 36.225 5.42219 36.1772 5.33193C36.1293 5.24167 36.06 5.16452 35.9754 5.10723C35.8908 5.04995 35.7935 5.01428 35.6919 5.00335C35.5903 4.99241 35.4876 5.00655 35.3927 5.04452L20 11.2018L4.60727 5.04452C4.51241 5.00655 4.4097 4.99241 4.30811 5.00335C4.20653 5.01428 4.10918 5.04995 4.02458 5.10723C3.93998 5.16452 3.87071 5.24167 3.82284 5.33193C3.77497 5.42219 3.74996 5.52282 3.75 5.62499V6.74217L2.0407 6.27256C1.94795 6.24706 1.85056 6.24331 1.75613 6.26161C1.66169 6.2799 1.57275 6.31975 1.49623 6.37805C1.41971 6.43634 1.35769 6.51152 1.31498 6.59771C1.27227 6.6839 1.25003 6.77879 1.25 6.87499V28.125C1.24999 28.2584 1.29267 28.3883 1.3718 28.4957C1.45093 28.6031 1.56235 28.6824 1.68977 28.7219L19.8148 34.3469C19.9354 34.3843 20.0646 34.3843 20.1852 34.3469L38.3102 28.7219C38.4376 28.6824 38.5491 28.6031 38.6282 28.4957C38.7073 28.3883 38.75 28.2584 38.75 28.125V6.87499C38.75 6.77879 38.7277 6.6839 38.685 6.59771C38.6423 6.51152 38.5803 6.43634 38.5038 6.37805C38.4273 6.31975 38.3383 6.2799 38.2439 6.26161C38.1494 6.24331 38.052 6.24706 37.9593 6.27256ZM5 6.5478L19.7677 12.4555C19.9168 12.5152 20.0832 12.5152 20.2323 12.4555L35 6.5478V25.1855L28.897 27.3828L28.6884 27.2192C28.7705 26.5757 28.7705 25.9243 28.6884 25.2808L30.8374 23.5944C30.9558 23.5014 31.0367 23.3688 31.0653 23.221C31.0939 23.0732 31.0682 22.9201 30.993 22.7897L28.493 18.4598C28.4177 18.3296 28.2979 18.231 28.1558 18.1819C28.0136 18.1328 27.8585 18.1365 27.7188 18.1925L25.1876 19.2081C24.6644 18.8233 24.0999 18.4982 23.5045 18.2389L23.1185 15.5362C23.0972 15.3874 23.0229 15.2513 22.9093 15.1528C22.7957 15.0543 22.6504 15 22.5 15H17.5C17.3496 15 17.2042 15.0543 17.0906 15.1528C16.977 15.2514 16.9027 15.3876 16.8814 15.5365L16.4954 18.2391C15.9001 18.4985 15.3356 18.8236 14.8125 19.2083L12.2812 18.1927C12.1416 18.1368 11.9865 18.133 11.8443 18.1821C11.7021 18.2312 11.5824 18.3299 11.507 18.4601L9.00703 22.7899C8.93183 22.9203 8.90617 23.0735 8.93475 23.2213C8.96334 23.3691 9.04425 23.5016 9.16266 23.5946L11.3117 25.281C11.2718 25.6025 11.2512 25.926 11.25 26.25C11.25 26.4795 11.2613 26.7059 11.2812 26.9297C11.2898 27.0267 11.2999 27.1231 11.3115 27.2187L10.7733 27.6406L5 25.794V6.5478ZM17.4922 29.7912C16.6853 29.19 16.1102 28.3292 15.8638 27.3536C15.6173 26.3781 15.7145 25.3474 16.139 24.4351C16.5635 23.5228 17.2894 22.7847 18.1945 22.345C19.0995 21.9052 20.1284 21.7908 21.108 22.0208C21.2682 22.0554 21.4355 22.0256 21.574 21.9379C21.7125 21.8502 21.811 21.7117 21.8483 21.5521C21.8855 21.3925 21.8587 21.2246 21.7734 21.0847C21.6881 20.9447 21.5513 20.8439 21.3923 20.8038C20.3264 20.5531 19.2105 20.6191 18.1815 20.9938C17.1526 21.3685 16.2555 22.0355 15.6005 22.913C14.9454 23.7905 14.5609 24.8402 14.4942 25.9332C14.4275 27.0262 14.6814 28.1149 15.2248 29.0655L12.2119 28.1015L12.3651 27.9819C12.4523 27.9135 12.5197 27.8231 12.5605 27.7201C12.6012 27.617 12.6139 27.5049 12.597 27.3954C12.568 27.205 12.5434 27.0139 12.5262 26.8198C12.5095 26.6319 12.5 26.4426 12.5 26.2504C12.5028 25.8668 12.5352 25.484 12.597 25.1054C12.6139 24.9959 12.6014 24.884 12.5607 24.781C12.5199 24.678 12.4525 24.5877 12.3654 24.5194L10.3607 22.9453L12.3187 19.5547L14.6777 20.5013C14.7806 20.5434 14.893 20.557 15.003 20.5407C15.1129 20.5244 15.2165 20.4787 15.3027 20.4086C15.9023 19.927 16.5726 19.5409 17.2901 19.2641C17.3935 19.224 17.4843 19.157 17.5533 19.0701C17.6222 18.9832 17.6668 18.8796 17.6825 18.7698L18.042 16.25H21.958L22.3178 18.7695C22.3335 18.8793 22.3781 18.983 22.447 19.0699C22.516 19.1568 22.6068 19.2237 22.7102 19.2639C23.4277 19.5407 24.0981 19.9267 24.6976 20.4083C24.7838 20.4785 24.8874 20.5241 24.9974 20.5404C25.1073 20.5567 25.2197 20.5431 25.3226 20.5011L27.6813 19.5547L29.6393 22.9453L27.6349 24.5182C27.5477 24.5866 27.4803 24.677 27.4395 24.7801C27.3988 24.8831 27.3861 24.9952 27.403 25.1048C27.5323 25.8626 27.5323 26.6369 27.403 27.3948C27.39 27.4792 27.3944 27.5653 27.4161 27.648C27.4377 27.7306 27.476 27.8079 27.5287 27.8751L25.1679 28.7251C25.5895 27.8602 25.7807 26.9012 25.7229 25.9408C25.6652 24.9805 25.3605 24.0513 24.8383 23.2432C24.7486 23.1037 24.6072 23.0056 24.4452 22.9704C24.2832 22.9352 24.1138 22.9658 23.9743 23.0555C23.8349 23.1452 23.7368 23.2866 23.7016 23.4486C23.6664 23.6106 23.697 23.78 23.7866 23.9194C24.2604 24.6514 24.5032 25.5088 24.4837 26.3804C24.4642 27.252 24.1832 28.0977 23.6773 28.8077C23.5057 29.0497 23.3088 29.2728 23.09 29.4732L19.9884 30.5904L17.4922 29.7912ZM37.5 27.6648L20 33.0957L2.5 27.6648V7.69467L3.75 8.03842V26.25C3.75004 26.3824 3.79215 26.5114 3.87025 26.6184C3.94834 26.7253 4.0584 26.8047 4.18453 26.8451L16.997 30.945C17.0077 30.9487 17.0181 30.9522 17.029 30.9552L19.8098 31.8451C19.941 31.8873 20.0825 31.8848 20.212 31.8377L23.6271 30.6083C23.6349 30.6055 23.6427 30.6029 23.6505 30.5998L35.8368 26.2127C35.9578 26.1692 36.0624 26.0894 36.1364 25.9842C36.2104 25.879 36.25 25.7536 36.25 25.625V8.03842L37.5 7.69467V27.6648Z"/>
</mask>
<path d="M37.9593 6.27256L36.25 6.74217V5.62499C36.25 5.52282 36.225 5.42219 36.1772 5.33193C36.1293 5.24167 36.06 5.16452 35.9754 5.10723C35.8908 5.04995 35.7935 5.01428 35.6919 5.00335C35.5903 4.99241 35.4876 5.00655 35.3927 5.04452L20 11.2018L4.60727 5.04452C4.51241 5.00655 4.4097 4.99241 4.30811 5.00335C4.20653 5.01428 4.10918 5.04995 4.02458 5.10723C3.93998 5.16452 3.87071 5.24167 3.82284 5.33193C3.77497 5.42219 3.74996 5.52282 3.75 5.62499V6.74217L2.0407 6.27256C1.94795 6.24706 1.85056 6.24331 1.75613 6.26161C1.66169 6.2799 1.57275 6.31975 1.49623 6.37805C1.41971 6.43634 1.35769 6.51152 1.31498 6.59771C1.27227 6.6839 1.25003 6.77879 1.25 6.87499V28.125C1.24999 28.2584 1.29267 28.3883 1.3718 28.4957C1.45093 28.6031 1.56235 28.6824 1.68977 28.7219L19.8148 34.3469C19.9354 34.3843 20.0646 34.3843 20.1852 34.3469L38.3102 28.7219C38.4376 28.6824 38.5491 28.6031 38.6282 28.4957C38.7073 28.3883 38.75 28.2584 38.75 28.125V6.87499C38.75 6.77879 38.7277 6.6839 38.685 6.59771C38.6423 6.51152 38.5803 6.43634 38.5038 6.37805C38.4273 6.31975 38.3383 6.2799 38.2439 6.26161C38.1494 6.24331 38.052 6.24706 37.9593 6.27256ZM5 6.5478L19.7677 12.4555C19.9168 12.5152 20.0832 12.5152 20.2323 12.4555L35 6.5478V25.1855L28.897 27.3828L28.6884 27.2192C28.7705 26.5757 28.7705 25.9243 28.6884 25.2808L30.8374 23.5944C30.9558 23.5014 31.0367 23.3688 31.0653 23.221C31.0939 23.0732 31.0682 22.9201 30.993 22.7897L28.493 18.4598C28.4177 18.3296 28.2979 18.231 28.1558 18.1819C28.0136 18.1328 27.8585 18.1365 27.7188 18.1925L25.1876 19.2081C24.6644 18.8233 24.0999 18.4982 23.5045 18.2389L23.1185 15.5362C23.0972 15.3874 23.0229 15.2513 22.9093 15.1528C22.7957 15.0543 22.6504 15 22.5 15H17.5C17.3496 15 17.2042 15.0543 17.0906 15.1528C16.977 15.2514 16.9027 15.3876 16.8814 15.5365L16.4954 18.2391C15.9001 18.4985 15.3356 18.8236 14.8125 19.2083L12.2812 18.1927C12.1416 18.1368 11.9865 18.133 11.8443 18.1821C11.7021 18.2312 11.5824 18.3299 11.507 18.4601L9.00703 22.7899C8.93183 22.9203 8.90617 23.0735 8.93475 23.2213C8.96334 23.3691 9.04425 23.5016 9.16266 23.5946L11.3117 25.281C11.2718 25.6025 11.2512 25.926 11.25 26.25C11.25 26.4795 11.2613 26.7059 11.2812 26.9297C11.2898 27.0267 11.2999 27.1231 11.3115 27.2187L10.7733 27.6406L5 25.794V6.5478ZM17.4922 29.7912C16.6853 29.19 16.1102 28.3292 15.8638 27.3536C15.6173 26.3781 15.7145 25.3474 16.139 24.4351C16.5635 23.5228 17.2894 22.7847 18.1945 22.345C19.0995 21.9052 20.1284 21.7908 21.108 22.0208C21.2682 22.0554 21.4355 22.0256 21.574 21.9379C21.7125 21.8502 21.811 21.7117 21.8483 21.5521C21.8855 21.3925 21.8587 21.2246 21.7734 21.0847C21.6881 20.9447 21.5513 20.8439 21.3923 20.8038C20.3264 20.5531 19.2105 20.6191 18.1815 20.9938C17.1526 21.3685 16.2555 22.0355 15.6005 22.913C14.9454 23.7905 14.5609 24.8402 14.4942 25.9332C14.4275 27.0262 14.6814 28.1149 15.2248 29.0655L12.2119 28.1015L12.3651 27.9819C12.4523 27.9135 12.5197 27.8231 12.5605 27.7201C12.6012 27.617 12.6139 27.5049 12.597 27.3954C12.568 27.205 12.5434 27.0139 12.5262 26.8198C12.5095 26.6319 12.5 26.4426 12.5 26.2504C12.5028 25.8668 12.5352 25.484 12.597 25.1054C12.6139 24.9959 12.6014 24.884 12.5607 24.781C12.5199 24.678 12.4525 24.5877 12.3654 24.5194L10.3607 22.9453L12.3187 19.5547L14.6777 20.5013C14.7806 20.5434 14.893 20.557 15.003 20.5407C15.1129 20.5244 15.2165 20.4787 15.3027 20.4086C15.9023 19.927 16.5726 19.5409 17.2901 19.2641C17.3935 19.224 17.4843 19.157 17.5533 19.0701C17.6222 18.9832 17.6668 18.8796 17.6825 18.7698L18.042 16.25H21.958L22.3178 18.7695C22.3335 18.8793 22.3781 18.983 22.447 19.0699C22.516 19.1568 22.6068 19.2237 22.7102 19.2639C23.4277 19.5407 24.0981 19.9267 24.6976 20.4083C24.7838 20.4785 24.8874 20.5241 24.9974 20.5404C25.1073 20.5567 25.2197 20.5431 25.3226 20.5011L27.6813 19.5547L29.6393 22.9453L27.6349 24.5182C27.5477 24.5866 27.4803 24.677 27.4395 24.7801C27.3988 24.8831 27.3861 24.9952 27.403 25.1048C27.5323 25.8626 27.5323 26.6369 27.403 27.3948C27.39 27.4792 27.3944 27.5653 27.4161 27.648C27.4377 27.7306 27.476 27.8079 27.5287 27.8751L25.1679 28.7251C25.5895 27.8602 25.7807 26.9012 25.7229 25.9408C25.6652 24.9805 25.3605 24.0513 24.8383 23.2432C24.7486 23.1037 24.6072 23.0056 24.4452 22.9704C24.2832 22.9352 24.1138 22.9658 23.9743 23.0555C23.8349 23.1452 23.7368 23.2866 23.7016 23.4486C23.6664 23.6106 23.697 23.78 23.7866 23.9194C24.2604 24.6514 24.5032 25.5088 24.4837 26.3804C24.4642 27.252 24.1832 28.0977 23.6773 28.8077C23.5057 29.0497 23.3088 29.2728 23.09 29.4732L19.9884 30.5904L17.4922 29.7912ZM37.5 27.6648L20 33.0957L2.5 27.6648V7.69467L3.75 8.03842V26.25C3.75004 26.3824 3.79215 26.5114 3.87025 26.6184C3.94834 26.7253 4.0584 26.8047 4.18453 26.8451L16.997 30.945C17.0077 30.9487 17.0181 30.9522 17.029 30.9552L19.8098 31.8451C19.941 31.8873 20.0825 31.8848 20.212 31.8377L23.6271 30.6083C23.6349 30.6055 23.6427 30.6029 23.6505 30.5998L35.8368 26.2127C35.9578 26.1692 36.0624 26.0894 36.1364 25.9842C36.2104 25.879 36.25 25.7536 36.25 25.625V8.03842L37.5 7.69467V27.6648Z" fill="#212F3C"/>
<path d="M37.9593 6.27256L36.25 6.74217V5.62499C36.25 5.52282 36.225 5.42219 36.1772 5.33193C36.1293 5.24167 36.06 5.16452 35.9754 5.10723C35.8908 5.04995 35.7935 5.01428 35.6919 5.00335C35.5903 4.99241 35.4876 5.00655 35.3927 5.04452L20 11.2018L4.60727 5.04452C4.51241 5.00655 4.4097 4.99241 4.30811 5.00335C4.20653 5.01428 4.10918 5.04995 4.02458 5.10723C3.93998 5.16452 3.87071 5.24167 3.82284 5.33193C3.77497 5.42219 3.74996 5.52282 3.75 5.62499V6.74217L2.0407 6.27256C1.94795 6.24706 1.85056 6.24331 1.75613 6.26161C1.66169 6.2799 1.57275 6.31975 1.49623 6.37805C1.41971 6.43634 1.35769 6.51152 1.31498 6.59771C1.27227 6.6839 1.25003 6.77879 1.25 6.87499V28.125C1.24999 28.2584 1.29267 28.3883 1.3718 28.4957C1.45093 28.6031 1.56235 28.6824 1.68977 28.7219L19.8148 34.3469C19.9354 34.3843 20.0646 34.3843 20.1852 34.3469L38.3102 28.7219C38.4376 28.6824 38.5491 28.6031 38.6282 28.4957C38.7073 28.3883 38.75 28.2584 38.75 28.125V6.87499C38.75 6.77879 38.7277 6.6839 38.685 6.59771C38.6423 6.51152 38.5803 6.43634 38.5038 6.37805C38.4273 6.31975 38.3383 6.2799 38.2439 6.26161C38.1494 6.24331 38.052 6.24706 37.9593 6.27256ZM5 6.5478L19.7677 12.4555C19.9168 12.5152 20.0832 12.5152 20.2323 12.4555L35 6.5478V25.1855L28.897 27.3828L28.6884 27.2192C28.7705 26.5757 28.7705 25.9243 28.6884 25.2808L30.8374 23.5944C30.9558 23.5014 31.0367 23.3688 31.0653 23.221C31.0939 23.0732 31.0682 22.9201 30.993 22.7897L28.493 18.4598C28.4177 18.3296 28.2979 18.231 28.1558 18.1819C28.0136 18.1328 27.8585 18.1365 27.7188 18.1925L25.1876 19.2081C24.6644 18.8233 24.0999 18.4982 23.5045 18.2389L23.1185 15.5362C23.0972 15.3874 23.0229 15.2513 22.9093 15.1528C22.7957 15.0543 22.6504 15 22.5 15H17.5C17.3496 15 17.2042 15.0543 17.0906 15.1528C16.977 15.2514 16.9027 15.3876 16.8814 15.5365L16.4954 18.2391C15.9001 18.4985 15.3356 18.8236 14.8125 19.2083L12.2812 18.1927C12.1416 18.1368 11.9865 18.133 11.8443 18.1821C11.7021 18.2312 11.5824 18.3299 11.507 18.4601L9.00703 22.7899C8.93183 22.9203 8.90617 23.0735 8.93475 23.2213C8.96334 23.3691 9.04425 23.5016 9.16266 23.5946L11.3117 25.281C11.2718 25.6025 11.2512 25.926 11.25 26.25C11.25 26.4795 11.2613 26.7059 11.2812 26.9297C11.2898 27.0267 11.2999 27.1231 11.3115 27.2187L10.7733 27.6406L5 25.794V6.5478ZM17.4922 29.7912C16.6853 29.19 16.1102 28.3292 15.8638 27.3536C15.6173 26.3781 15.7145 25.3474 16.139 24.4351C16.5635 23.5228 17.2894 22.7847 18.1945 22.345C19.0995 21.9052 20.1284 21.7908 21.108 22.0208C21.2682 22.0554 21.4355 22.0256 21.574 21.9379C21.7125 21.8502 21.811 21.7117 21.8483 21.5521C21.8855 21.3925 21.8587 21.2246 21.7734 21.0847C21.6881 20.9447 21.5513 20.8439 21.3923 20.8038C20.3264 20.5531 19.2105 20.6191 18.1815 20.9938C17.1526 21.3685 16.2555 22.0355 15.6005 22.913C14.9454 23.7905 14.5609 24.8402 14.4942 25.9332C14.4275 27.0262 14.6814 28.1149 15.2248 29.0655L12.2119 28.1015L12.3651 27.9819C12.4523 27.9135 12.5197 27.8231 12.5605 27.7201C12.6012 27.617 12.6139 27.5049 12.597 27.3954C12.568 27.205 12.5434 27.0139 12.5262 26.8198C12.5095 26.6319 12.5 26.4426 12.5 26.2504C12.5028 25.8668 12.5352 25.484 12.597 25.1054C12.6139 24.9959 12.6014 24.884 12.5607 24.781C12.5199 24.678 12.4525 24.5877 12.3654 24.5194L10.3607 22.9453L12.3187 19.5547L14.6777 20.5013C14.7806 20.5434 14.893 20.557 15.003 20.5407C15.1129 20.5244 15.2165 20.4787 15.3027 20.4086C15.9023 19.927 16.5726 19.5409 17.2901 19.2641C17.3935 19.224 17.4843 19.157 17.5533 19.0701C17.6222 18.9832 17.6668 18.8796 17.6825 18.7698L18.042 16.25H21.958L22.3178 18.7695C22.3335 18.8793 22.3781 18.983 22.447 19.0699C22.516 19.1568 22.6068 19.2237 22.7102 19.2639C23.4277 19.5407 24.0981 19.9267 24.6976 20.4083C24.7838 20.4785 24.8874 20.5241 24.9974 20.5404C25.1073 20.5567 25.2197 20.5431 25.3226 20.5011L27.6813 19.5547L29.6393 22.9453L27.6349 24.5182C27.5477 24.5866 27.4803 24.677 27.4395 24.7801C27.3988 24.8831 27.3861 24.9952 27.403 25.1048C27.5323 25.8626 27.5323 26.6369 27.403 27.3948C27.39 27.4792 27.3944 27.5653 27.4161 27.648C27.4377 27.7306 27.476 27.8079 27.5287 27.8751L25.1679 28.7251C25.5895 27.8602 25.7807 26.9012 25.7229 25.9408C25.6652 24.9805 25.3605 24.0513 24.8383 23.2432C24.7486 23.1037 24.6072 23.0056 24.4452 22.9704C24.2832 22.9352 24.1138 22.9658 23.9743 23.0555C23.8349 23.1452 23.7368 23.2866 23.7016 23.4486C23.6664 23.6106 23.697 23.78 23.7866 23.9194C24.2604 24.6514 24.5032 25.5088 24.4837 26.3804C24.4642 27.252 24.1832 28.0977 23.6773 28.8077C23.5057 29.0497 23.3088 29.2728 23.09 29.4732L19.9884 30.5904L17.4922 29.7912ZM37.5 27.6648L20 33.0957L2.5 27.6648V7.69467L3.75 8.03842V26.25C3.75004 26.3824 3.79215 26.5114 3.87025 26.6184C3.94834 26.7253 4.0584 26.8047 4.18453 26.8451L16.997 30.945C17.0077 30.9487 17.0181 30.9522 17.029 30.9552L19.8098 31.8451C19.941 31.8873 20.0825 31.8848 20.212 31.8377L23.6271 30.6083C23.6349 30.6055 23.6427 30.6029 23.6505 30.5998L35.8368 26.2127C35.9578 26.1692 36.0624 26.0894 36.1364 25.9842C36.2104 25.879 36.25 25.7536 36.25 25.625V8.03842L37.5 7.69467V27.6648Z" stroke="#212F3C" stroke-width="0.4" mask="url(#path-1-outside-1)"/>
<path d="M23.225 26.2501V26.25C23.225 25.6122 23.0359 24.9886 22.6815 24.4583C22.3271 23.9279 21.8234 23.5146 21.2342 23.2705C20.6449 23.0264 19.9964 22.9625 19.3708 23.087C18.7452 23.2114 18.1706 23.5186 17.7196 23.9696C17.2686 24.4206 16.9614 24.9953 16.837 25.6208C16.7125 26.2464 16.7764 26.8949 17.0205 27.4842C17.2646 28.0735 17.6779 28.5771 18.2083 28.9315C18.7386 29.2859 19.3622 29.475 20 29.475H20.0001C20.8551 29.474 21.6748 29.1339 22.2793 28.5294C22.8839 27.9248 23.224 27.1051 23.225 26.2501ZM19.9999 28.025C19.6489 28.025 19.3057 27.9209 19.0139 27.7259C18.722 27.5308 18.4945 27.2536 18.3601 26.9293C18.2258 26.6049 18.1906 26.248 18.2591 25.9037C18.3276 25.5594 18.4966 25.2431 18.7449 24.9949C18.9931 24.7467 19.3094 24.5776 19.6537 24.5091C19.998 24.4406 20.3549 24.4758 20.6793 24.6101C21.0036 24.7445 21.2808 24.972 21.4759 25.2639C21.6709 25.5557 21.775 25.8989 21.775 26.2499C21.7745 26.7205 21.5873 27.1717 21.2545 27.5045C20.9217 27.8373 20.4705 28.0245 19.9999 28.025Z" fill="#212F3C" stroke="#212F3C" stroke-width="0.2"/>
<path d="M26.875 12.4H26.775V12.5V13.75V13.85H26.875H32.5H32.6V13.75V12.5V12.4H32.5H26.875Z" fill="#212F3C" stroke="#212F3C" stroke-width="0.2"/>
<path d="M26.875 14.9H26.775V15V16.25V16.35H26.875H32.5H32.6V16.25V15V14.9H32.5H26.875Z" fill="#212F3C" stroke="#212F3C" stroke-width="0.2"/>
<path d="M7.5 12.4H7.4V12.5V13.75V13.85H7.5H8.75H8.85V13.75V12.5V12.4H8.75H7.5Z" fill="#212F3C" stroke="#212F3C" stroke-width="0.2"/>
<path d="M10 12.4H9.9V12.5V13.75V13.85H10H11.25H11.35V13.75V12.5V12.4H11.25H10Z" fill="#212F3C" stroke="#212F3C" stroke-width="0.2"/>
<path d="M12.5 12.4H12.4V12.5V13.75V13.85H12.5H13.75H13.85V13.75V12.5V12.4H13.75H12.5Z" fill="#212F3C" stroke="#212F3C" stroke-width="0.2"/>
<path d="M7.5 14.9H7.4V15V16.25V16.35H7.5H13.75H13.85V16.25V15V14.9H13.75H7.5Z" fill="#212F3C" stroke="#212F3C" stroke-width="0.2"/>
<circle cx="20" cy="20" r="16.5" stroke="#FF1D1D" stroke-width="3"/>
<path d="M30.5 7.5L8 30" stroke="#FF1D1D" stroke-width="3"/>
<path d="M82.122 4.4V17H79.206V11.834H73.482V17H70.566V4.4H73.482V9.368H79.206V4.4H82.122ZM94.4769 12.194C94.4769 12.23 94.4589 12.482 94.4229 12.95H87.0969C87.2289 13.55 87.5409 14.024 88.0329 14.372C88.5249 14.72 89.1369 14.894 89.8689 14.894C90.3729 14.894 90.8169 14.822 91.2009 14.678C91.5969 14.522 91.9629 14.282 92.2989 13.958L93.7929 15.578C92.8809 16.622 91.5489 17.144 89.7969 17.144C88.7049 17.144 87.7389 16.934 86.8989 16.514C86.0589 16.082 85.4109 15.488 84.9549 14.732C84.4989 13.976 84.2709 13.118 84.2709 12.158C84.2709 11.21 84.4929 10.358 84.9369 9.602C85.3929 8.834 86.0109 8.24 86.7909 7.82C87.5829 7.388 88.4649 7.172 89.4369 7.172C90.3849 7.172 91.2429 7.376 92.0109 7.784C92.7789 8.192 93.3789 8.78 93.8109 9.548C94.2549 10.304 94.4769 11.186 94.4769 12.194ZM89.4549 9.296C88.8189 9.296 88.2849 9.476 87.8529 9.836C87.4209 10.196 87.1569 10.688 87.0609 11.312H91.8309C91.7349 10.7 91.4709 10.214 91.0389 9.854C90.6069 9.482 90.0789 9.296 89.4549 9.296ZM99.7822 7.136C100.826 7.136 101.756 7.352 102.572 7.784C103.4 8.204 104.048 8.798 104.516 9.566C104.984 10.334 105.218 11.198 105.218 12.158C105.218 13.118 104.984 13.982 104.516 14.75C104.048 15.518 103.4 16.118 102.572 16.55C101.756 16.97 100.826 17.18 99.7822 17.18C98.8583 17.18 98.0183 17.03 97.2623 16.73C96.5183 16.418 95.9003 15.974 95.4083 15.398L97.0103 13.886C97.7423 14.642 98.6303 15.02 99.6743 15.02C100.37 15.02 100.97 14.846 101.474 14.498C101.978 14.15 102.32 13.676 102.5 13.076H98.4323V11.15H102.464C102.272 10.574 101.93 10.118 101.438 9.782C100.946 9.446 100.358 9.278 99.6743 9.278C98.6423 9.278 97.7543 9.662 97.0103 10.43L95.4083 8.936C95.9003 8.348 96.5183 7.904 97.2623 7.604C98.0183 7.292 98.8583 7.136 99.7822 7.136ZM111.389 13.328H109.931V17H107.123V7.316H109.931V11.078H111.443L114.071 7.316H117.059L113.675 11.96L117.293 17H113.981L111.389 13.328ZM122.981 17.144C121.949 17.144 121.019 16.934 120.191 16.514C119.375 16.082 118.733 15.488 118.265 14.732C117.809 13.976 117.581 13.118 117.581 12.158C117.581 11.198 117.809 10.34 118.265 9.584C118.733 8.828 119.375 8.24 120.191 7.82C121.019 7.388 121.949 7.172 122.981 7.172C124.001 7.172 124.889 7.388 125.645 7.82C126.413 8.24 126.971 8.846 127.319 9.638L125.141 10.808C124.637 9.92 123.911 9.476 122.963 9.476C122.231 9.476 121.625 9.716 121.145 10.196C120.665 10.676 120.425 11.33 120.425 12.158C120.425 12.986 120.665 13.64 121.145 14.12C121.625 14.6 122.231 14.84 122.963 14.84C123.923 14.84 124.649 14.396 125.141 13.508L127.319 14.696C126.971 15.464 126.413 16.064 125.645 16.496C124.889 16.928 124.001 17.144 122.981 17.144ZM133.292 13.328H131.834V17H129.026V7.316H131.834V11.078H133.346L135.974 7.316H138.962L135.578 11.96L139.196 17H135.884L133.292 13.328ZM149.863 7.316V17H147.055V9.62H143.995L143.905 11.33C143.857 12.602 143.737 13.658 143.545 14.498C143.353 15.338 143.041 15.998 142.609 16.478C142.177 16.958 141.577 17.198 140.809 17.198C140.401 17.198 139.915 17.126 139.351 16.982L139.495 14.678C139.687 14.702 139.825 14.714 139.909 14.714C140.329 14.714 140.641 14.564 140.845 14.264C141.061 13.952 141.205 13.562 141.277 13.094C141.349 12.614 141.403 11.984 141.439 11.204L141.583 7.316H149.863ZM161.725 7.172C162.709 7.172 163.591 7.388 164.371 7.82C165.151 8.24 165.763 8.828 166.207 9.584C166.651 10.34 166.873 11.198 166.873 12.158C166.873 13.118 166.651 13.976 166.207 14.732C165.763 15.488 165.151 16.082 164.371 16.514C163.591 16.934 162.709 17.144 161.725 17.144C160.873 17.144 160.093 16.988 159.385 16.676C158.677 16.352 158.089 15.902 157.621 15.326C157.153 14.738 156.841 14.066 156.685 13.31H155.353V17H152.563V7.316H155.353V10.88H156.703C156.979 9.752 157.567 8.852 158.467 8.18C159.367 7.508 160.453 7.172 161.725 7.172ZM161.725 14.84C162.409 14.84 162.973 14.6 163.417 14.12C163.873 13.628 164.101 12.974 164.101 12.158C164.101 11.33 163.873 10.676 163.417 10.196C162.973 9.716 162.409 9.476 161.725 9.476C161.029 9.476 160.453 9.716 159.997 10.196C159.553 10.676 159.331 11.33 159.331 12.158C159.331 12.974 159.553 13.628 159.997 14.12C160.453 14.6 161.029 14.84 161.725 14.84ZM174.929 11.96C175.505 12.14 175.949 12.416 176.261 12.788C176.585 13.16 176.747 13.604 176.747 14.12C176.747 14.732 176.537 15.272 176.117 15.74C175.697 16.196 175.121 16.55 174.389 16.802C173.657 17.054 172.829 17.18 171.905 17.18C171.149 17.18 170.405 17.102 169.673 16.946C168.941 16.79 168.263 16.556 167.639 16.244L168.395 14.282C169.415 14.774 170.543 15.02 171.779 15.02C172.439 15.02 172.955 14.924 173.327 14.732C173.711 14.528 173.903 14.246 173.903 13.886C173.903 13.574 173.771 13.34 173.507 13.184C173.243 13.016 172.859 12.932 172.355 12.932H170.375V11.186H172.103C172.595 11.186 172.973 11.108 173.237 10.952C173.501 10.796 173.633 10.568 173.633 10.268C173.633 9.956 173.465 9.716 173.129 9.548C172.805 9.38 172.337 9.296 171.725 9.296C170.789 9.296 169.769 9.518 168.665 9.962L167.981 8.018C169.325 7.43 170.633 7.136 171.905 7.136C172.781 7.136 173.561 7.244 174.245 7.46C174.941 7.676 175.487 7.994 175.883 8.414C176.279 8.822 176.477 9.302 176.477 9.854C176.477 10.31 176.339 10.724 176.063 11.096C175.787 11.456 175.409 11.744 174.929 11.96ZM178.789 7.316H181.579V13.076L186.295 7.316H188.869V17H186.079V11.24L181.381 17H178.789V7.316ZM198.967 11.942C200.107 12.326 200.677 13.094 200.677 14.246C200.677 15.122 200.347 15.8 199.687 16.28C199.027 16.76 198.043 17 196.735 17H191.569V7.316H196.519C197.731 7.316 198.679 7.538 199.363 7.982C200.047 8.414 200.389 9.026 200.389 9.818C200.389 10.298 200.263 10.724 200.011 11.096C199.771 11.456 199.423 11.738 198.967 11.942ZM194.143 11.294H196.267C197.251 11.294 197.743 10.946 197.743 10.25C197.743 9.566 197.251 9.224 196.267 9.224H194.143V11.294ZM196.501 15.092C197.533 15.092 198.049 14.738 198.049 14.03C198.049 13.658 197.929 13.388 197.689 13.22C197.449 13.04 197.071 12.95 196.555 12.95H194.143V15.092H196.501ZM202.766 7.316H205.556V11.096H209.768V7.316H212.576V17H209.768V13.382H205.556V17H202.766V7.316ZM219.8 17.144C218.78 17.144 217.862 16.934 217.046 16.514C216.242 16.082 215.612 15.488 215.156 14.732C214.7 13.976 214.472 13.118 214.472 12.158C214.472 11.198 214.7 10.34 215.156 9.584C215.612 8.828 216.242 8.24 217.046 7.82C217.862 7.388 218.78 7.172 219.8 7.172C220.82 7.172 221.732 7.388 222.536 7.82C223.34 8.24 223.97 8.828 224.426 9.584C224.882 10.34 225.11 11.198 225.11 12.158C225.11 13.118 224.882 13.976 224.426 14.732C223.97 15.488 223.34 16.082 222.536 16.514C221.732 16.934 220.82 17.144 219.8 17.144ZM219.8 14.84C220.52 14.84 221.108 14.6 221.564 14.12C222.032 13.628 222.266 12.974 222.266 12.158C222.266 11.342 222.032 10.694 221.564 10.214C221.108 9.722 220.52 9.476 219.8 9.476C219.08 9.476 218.486 9.722 218.018 10.214C217.55 10.694 217.316 11.342 217.316 12.158C217.316 12.974 217.55 13.628 218.018 14.12C218.486 14.6 219.08 14.84 219.8 14.84ZM78.968 37.2V47H77.596V38.418H71.912V47H70.526V37.2H78.968ZM85.734 39.51C86.4527 39.51 87.0967 39.6687 87.666 39.986C88.2354 40.3033 88.6787 40.7467 88.996 41.316C89.3227 41.8853 89.486 42.5433 89.486 43.29C89.486 44.0367 89.3227 44.6993 88.996 45.278C88.6787 45.8473 88.2354 46.2907 87.666 46.608C87.0967 46.9253 86.4527 47.084 85.734 47.084C85.202 47.084 84.712 46.9813 84.264 46.776C83.8254 46.5707 83.452 46.272 83.144 45.88V49.716H81.8V39.58H83.088V40.756C83.3867 40.3453 83.7647 40.0373 84.222 39.832C84.6794 39.6173 85.1834 39.51 85.734 39.51ZM85.622 45.908C86.098 45.908 86.5227 45.8007 86.896 45.586C87.2787 45.362 87.5774 45.054 87.792 44.662C88.016 44.2607 88.128 43.8033 88.128 43.29C88.128 42.7767 88.016 42.324 87.792 41.932C87.5774 41.5307 87.2787 41.2227 86.896 41.008C86.5227 40.7933 86.098 40.686 85.622 40.686C85.1554 40.686 84.7307 40.798 84.348 41.022C83.9747 41.2367 83.676 41.54 83.452 41.932C83.2374 42.324 83.13 42.7767 83.13 43.29C83.13 43.8033 83.2374 44.2607 83.452 44.662C83.6667 45.054 83.9654 45.362 84.348 45.586C84.7307 45.8007 85.1554 45.908 85.622 45.908ZM94.6167 47.084C93.8794 47.084 93.2167 46.9207 92.6287 46.594C92.0407 46.2673 91.5787 45.8193 91.2427 45.25C90.9161 44.6713 90.7527 44.018 90.7527 43.29C90.7527 42.562 90.9161 41.9133 91.2427 41.344C91.5787 40.7653 92.0407 40.3173 92.6287 40C93.2167 39.6733 93.8794 39.51 94.6167 39.51C95.3541 39.51 96.0121 39.6733 96.5907 40C97.1787 40.3173 97.6361 40.7653 97.9627 41.344C98.2987 41.9133 98.4667 42.562 98.4667 43.29C98.4667 44.018 98.2987 44.6713 97.9627 45.25C97.6361 45.8193 97.1787 46.2673 96.5907 46.594C96.0121 46.9207 95.3541 47.084 94.6167 47.084ZM94.6167 45.908C95.0927 45.908 95.5174 45.8007 95.8907 45.586C96.2734 45.362 96.5721 45.054 96.7867 44.662C97.0014 44.2607 97.1087 43.8033 97.1087 43.29C97.1087 42.7767 97.0014 42.324 96.7867 41.932C96.5721 41.5307 96.2734 41.2227 95.8907 41.008C95.5174 40.7933 95.0927 40.686 94.6167 40.686C94.1407 40.686 93.7114 40.7933 93.3287 41.008C92.9554 41.2227 92.6567 41.5307 92.4327 41.932C92.2181 42.324 92.1107 42.7767 92.1107 43.29C92.1107 43.8033 92.2181 44.2607 92.4327 44.662C92.6567 45.054 92.9554 45.362 93.3287 45.586C93.7114 45.8007 94.1407 45.908 94.6167 45.908ZM107.899 45.824V48.722H106.639V47H100.437V48.722H99.1628V45.824H99.5548C100.031 45.796 100.357 45.46 100.535 44.816C100.712 44.172 100.833 43.262 100.899 42.086L101.011 39.58H106.765V45.824H107.899ZM102.131 42.184C102.093 43.1173 102.014 43.892 101.893 44.508C101.781 45.1147 101.571 45.5533 101.263 45.824H105.421V40.756H102.201L102.131 42.184ZM112.296 39.51C113.322 39.51 114.106 39.762 114.648 40.266C115.198 40.77 115.474 41.5213 115.474 42.52V47H114.2V46.02C113.976 46.3653 113.654 46.6313 113.234 46.818C112.823 46.9953 112.333 47.084 111.764 47.084C110.933 47.084 110.266 46.8833 109.762 46.482C109.267 46.0807 109.02 45.5533 109.02 44.9C109.02 44.2467 109.258 43.724 109.734 43.332C110.21 42.9307 110.966 42.73 112.002 42.73H114.13V42.464C114.13 41.8853 113.962 41.442 113.626 41.134C113.29 40.826 112.795 40.672 112.142 40.672C111.703 40.672 111.274 40.7467 110.854 40.896C110.434 41.036 110.079 41.2273 109.79 41.47L109.23 40.462C109.612 40.154 110.07 39.9207 110.602 39.762C111.134 39.594 111.698 39.51 112.296 39.51ZM111.988 46.048C112.501 46.048 112.944 45.936 113.318 45.712C113.691 45.4787 113.962 45.152 114.13 44.732V43.696H112.058C110.919 43.696 110.35 44.0787 110.35 44.844C110.35 45.2173 110.494 45.5113 110.784 45.726C111.073 45.9407 111.474 46.048 111.988 46.048ZM124.46 39.51C125.178 39.51 125.822 39.6733 126.392 40C126.961 40.3173 127.409 40.7653 127.736 41.344C128.062 41.9133 128.226 42.562 128.226 43.29C128.226 44.018 128.062 44.6713 127.736 45.25C127.409 45.8193 126.961 46.2673 126.392 46.594C125.822 46.9207 125.178 47.084 124.46 47.084C123.806 47.084 123.214 46.9487 122.682 46.678C122.15 46.4073 121.711 46.0293 121.366 45.544C121.03 45.0493 120.82 44.4893 120.736 43.864H119.238V47H117.894V39.58H119.238V42.618H120.75C120.843 42.002 121.058 41.4607 121.394 40.994C121.739 40.518 122.173 40.154 122.696 39.902C123.228 39.6407 123.816 39.51 124.46 39.51ZM124.46 45.908C124.917 45.908 125.328 45.8007 125.692 45.586C126.065 45.3713 126.359 45.068 126.574 44.676C126.788 44.2747 126.896 43.8127 126.896 43.29C126.896 42.7767 126.788 42.324 126.574 41.932C126.359 41.5307 126.065 41.2227 125.692 41.008C125.328 40.7933 124.917 40.686 124.46 40.686C124.002 40.686 123.587 40.7933 123.214 41.008C122.84 41.2227 122.546 41.5307 122.332 41.932C122.126 42.324 122.024 42.7767 122.024 43.29C122.024 43.8127 122.126 44.2747 122.332 44.676C122.546 45.068 122.84 45.3713 123.214 45.586C123.587 45.8007 124.002 45.908 124.46 45.908ZM135.414 40.756H132.698V47H131.354V40.756H128.638V39.58H135.414V40.756ZM145.602 43.15C146.563 43.3927 147.044 43.9947 147.044 44.956C147.044 45.6093 146.797 46.1133 146.302 46.468C145.817 46.8227 145.089 47 144.118 47H140.548V39.58H143.992C144.869 39.58 145.555 39.748 146.05 40.084C146.545 40.4107 146.792 40.8773 146.792 41.484C146.792 41.876 146.685 42.2167 146.47 42.506C146.265 42.786 145.975 43.0007 145.602 43.15ZM141.864 42.772H143.88C144.393 42.772 144.781 42.6787 145.042 42.492C145.313 42.3053 145.448 42.0347 145.448 41.68C145.448 40.9707 144.925 40.616 143.88 40.616H141.864V42.772ZM144.02 45.964C144.58 45.964 145 45.8753 145.28 45.698C145.56 45.5207 145.7 45.2453 145.7 44.872C145.7 44.4893 145.569 44.2047 145.308 44.018C145.056 43.8313 144.655 43.738 144.104 43.738H141.864V45.964H144.02ZM152.382 47.084C151.626 47.084 150.949 46.9207 150.352 46.594C149.764 46.2673 149.302 45.8193 148.966 45.25C148.63 44.6713 148.462 44.018 148.462 43.29C148.462 42.562 148.63 41.9133 148.966 41.344C149.302 40.7653 149.764 40.3173 150.352 40C150.949 39.6733 151.626 39.51 152.382 39.51C153.054 39.51 153.651 39.6453 154.174 39.916C154.706 40.1867 155.116 40.5787 155.406 41.092L154.384 41.75C154.15 41.3953 153.861 41.1293 153.516 40.952C153.17 40.7747 152.788 40.686 152.368 40.686C151.882 40.686 151.444 40.7933 151.052 41.008C150.669 41.2227 150.366 41.5307 150.142 41.932C149.927 42.324 149.82 42.7767 149.82 43.29C149.82 43.8127 149.927 44.2747 150.142 44.676C150.366 45.068 150.669 45.3713 151.052 45.586C151.444 45.8007 151.882 45.908 152.368 45.908C152.788 45.908 153.17 45.8193 153.516 45.642C153.861 45.4647 154.15 45.1987 154.384 44.844L155.406 45.488C155.116 46.0013 154.706 46.398 154.174 46.678C153.651 46.9487 153.054 47.084 152.382 47.084ZM163.742 43.332C163.742 43.4347 163.733 43.57 163.714 43.738H157.694C157.778 44.3913 158.063 44.9187 158.548 45.32C159.043 45.712 159.654 45.908 160.382 45.908C161.269 45.908 161.983 45.6093 162.524 45.012L163.266 45.88C162.93 46.272 162.51 46.5707 162.006 46.776C161.512 46.9813 160.956 47.084 160.34 47.084C159.556 47.084 158.861 46.9253 158.254 46.608C157.648 46.2813 157.176 45.8287 156.84 45.25C156.514 44.6713 156.35 44.018 156.35 43.29C156.35 42.5713 156.509 41.9227 156.826 41.344C157.153 40.7653 157.596 40.3173 158.156 40C158.726 39.6733 159.365 39.51 160.074 39.51C160.784 39.51 161.414 39.6733 161.964 40C162.524 40.3173 162.958 40.7653 163.266 41.344C163.584 41.9227 163.742 42.5853 163.742 43.332ZM160.074 40.644C159.43 40.644 158.889 40.84 158.45 41.232C158.021 41.624 157.769 42.1373 157.694 42.772H162.454C162.38 42.1467 162.123 41.638 161.684 41.246C161.255 40.8447 160.718 40.644 160.074 40.644ZM172.471 43.864H170.931V47H169.587V39.58H170.931V42.716H172.499L174.907 39.58H176.349L173.535 43.15L176.545 47H174.963L172.471 43.864ZM180.886 47.084C180.149 47.084 179.486 46.9207 178.898 46.594C178.31 46.2673 177.848 45.8193 177.512 45.25C177.186 44.6713 177.022 44.018 177.022 43.29C177.022 42.562 177.186 41.9133 177.512 41.344C177.848 40.7653 178.31 40.3173 178.898 40C179.486 39.6733 180.149 39.51 180.886 39.51C181.624 39.51 182.282 39.6733 182.86 40C183.448 40.3173 183.906 40.7653 184.232 41.344C184.568 41.9133 184.736 42.562 184.736 43.29C184.736 44.018 184.568 44.6713 184.232 45.25C183.906 45.8193 183.448 46.2673 182.86 46.594C182.282 46.9207 181.624 47.084 180.886 47.084ZM180.886 45.908C181.362 45.908 181.787 45.8007 182.16 45.586C182.543 45.362 182.842 45.054 183.056 44.662C183.271 44.2607 183.378 43.8033 183.378 43.29C183.378 42.7767 183.271 42.324 183.056 41.932C182.842 41.5307 182.543 41.2227 182.16 41.008C181.787 40.7933 181.362 40.686 180.886 40.686C180.41 40.686 179.981 40.7933 179.598 41.008C179.225 41.2227 178.926 41.5307 178.702 41.932C178.488 42.324 178.38 42.7767 178.38 43.29C178.38 43.8033 178.488 44.2607 178.702 44.662C178.926 45.054 179.225 45.362 179.598 45.586C179.981 45.8007 180.41 45.908 180.886 45.908ZM195.231 39.58V47H194.013V41.582L191.241 46.16H190.653L187.909 41.568V47H186.677V39.58H188.063L190.975 44.592L193.971 39.58H195.231ZM204.469 39.58L200.871 47.742C200.554 48.498 200.18 49.03 199.751 49.338C199.331 49.646 198.822 49.8 198.225 49.8C197.861 49.8 197.506 49.7393 197.161 49.618C196.825 49.506 196.545 49.338 196.321 49.114L196.895 48.106C197.278 48.47 197.721 48.652 198.225 48.652C198.552 48.652 198.822 48.5633 199.037 48.386C199.261 48.218 199.462 47.924 199.639 47.504L199.877 46.986L196.601 39.58H198.001L200.591 45.516L203.153 39.58H204.469ZM209.605 39.58H210.949V42.73H215.177V39.58H216.521V47H215.177V43.892H210.949V47H209.605V39.58ZM225.84 43.332C225.84 43.4347 225.831 43.57 225.812 43.738H219.792C219.876 44.3913 220.161 44.9187 220.646 45.32C221.141 45.712 221.752 45.908 222.48 45.908C223.367 45.908 224.081 45.6093 224.622 45.012L225.364 45.88C225.028 46.272 224.608 46.5707 224.104 46.776C223.609 46.9813 223.054 47.084 222.438 47.084C221.654 47.084 220.959 46.9253 220.352 46.608C219.745 46.2813 219.274 45.8287 218.938 45.25C218.611 44.6713 218.448 44.018 218.448 43.29C218.448 42.5713 218.607 41.9227 218.924 41.344C219.251 40.7653 219.694 40.3173 220.254 40C220.823 39.6733 221.463 39.51 222.172 39.51C222.881 39.51 223.511 39.6733 224.062 40C224.622 40.3173 225.056 40.7653 225.364 41.344C225.681 41.9227 225.84 42.5853 225.84 43.332ZM222.172 40.644C221.528 40.644 220.987 40.84 220.548 41.232C220.119 41.624 219.867 42.1373 219.792 42.772H224.552C224.477 42.1467 224.221 41.638 223.782 41.246C223.353 40.8447 222.816 40.644 222.172 40.644ZM238.055 39.58V47H236.711V40.756H233.519L233.435 42.408C233.388 43.4067 233.299 44.242 233.169 44.914C233.038 45.5767 232.823 46.1087 232.525 46.51C232.226 46.9113 231.811 47.112 231.279 47.112C231.036 47.112 230.761 47.07 230.453 46.986L230.537 45.852C230.658 45.88 230.77 45.894 230.873 45.894C231.246 45.894 231.526 45.7307 231.713 45.404C231.899 45.0773 232.021 44.69 232.077 44.242C232.133 43.794 232.184 43.1547 232.231 42.324L232.357 39.58H238.055ZM247.36 43.332C247.36 43.4347 247.35 43.57 247.332 43.738H241.312C241.396 44.3913 241.68 44.9187 242.166 45.32C242.66 45.712 243.272 45.908 244 45.908C244.886 45.908 245.6 45.6093 246.142 45.012L246.884 45.88C246.548 46.272 246.128 46.5707 245.624 46.776C245.129 46.9813 244.574 47.084 243.958 47.084C243.174 47.084 242.478 46.9253 241.872 46.608C241.265 46.2813 240.794 45.8287 240.458 45.25C240.131 44.6713 239.968 44.018 239.968 43.29C239.968 42.5713 240.126 41.9227 240.444 41.344C240.77 40.7653 241.214 40.3173 241.774 40C242.343 39.6733 242.982 39.51 243.692 39.51C244.401 39.51 245.031 39.6733 245.582 40C246.142 40.3173 246.576 40.7653 246.884 41.344C247.201 41.9227 247.36 42.5853 247.36 43.332ZM243.692 40.644C243.048 40.644 242.506 40.84 242.068 41.232C241.638 41.624 241.386 42.1373 241.312 42.772H246.072C245.997 42.1467 245.74 41.638 245.302 41.246C244.872 40.8447 244.336 40.644 243.692 40.644ZM249.445 39.58H250.789V42.73H255.017V39.58H256.361V47H255.017V43.892H250.789V47H249.445V39.58ZM262.404 42.1C263.347 42.1093 264.065 42.324 264.56 42.744C265.055 43.164 265.302 43.7567 265.302 44.522C265.302 45.3247 265.031 45.9453 264.49 46.384C263.958 46.8133 263.193 47.0233 262.194 47.014L258.974 47V39.58H260.318V42.086L262.404 42.1ZM262.082 45.992C262.689 46.0013 263.146 45.88 263.454 45.628C263.771 45.376 263.93 45.0027 263.93 44.508C263.93 44.0227 263.776 43.668 263.468 43.444C263.169 43.22 262.707 43.1033 262.082 43.094L260.318 43.066V45.978L262.082 45.992Z" fill="#FF1D1D"/>
</svg>
