<svg width="295" height="68" viewBox="0 0 295 68" fill="none" xmlns="http://www.w3.org/2000/svg">
<g clip-path="url(#clip0)">
<path d="M3.35279 17.6233L3.35266 17.6235C3.21015 17.8536 3.21028 18.1453 3.35255 18.3758L3.3528 18.3762C6.54836 23.5165 12.0322 26.587 18.0208 26.587C24.0094 26.587 29.4933 23.5165 32.6888 18.3756L32.689 18.3754C32.8315 18.1453 32.8313 17.8536 32.6891 17.6231L32.6888 17.6227C29.4933 12.4824 24.0094 9.41195 18.0208 9.41195C12.0322 9.41195 6.54836 12.4824 3.35279 17.6233ZM18.0208 25.162C12.6765 25.162 7.76847 22.4936 4.80477 17.9995C7.76902 13.5053 12.6765 10.837 18.0208 10.837C23.3651 10.837 28.2732 13.5053 31.2369 17.9994C28.2732 22.4936 23.3651 25.162 18.0208 25.162Z" fill="#212F3C" stroke="#212F3C" stroke-width="0.3"/>
<path d="M18.0208 11.662C14.5264 11.662 11.6833 14.505 11.6833 17.9995C11.6833 21.4939 14.5264 24.337 18.0208 24.337C21.5152 24.337 24.3583 21.4939 24.3583 17.9995C24.3583 14.505 21.5152 11.662 18.0208 11.662ZM18.0208 22.912C15.312 22.912 13.1083 20.7083 13.1083 17.9995C13.1083 15.2906 15.312 13.087 18.0208 13.087C20.7296 13.087 22.9333 15.2906 22.9333 17.9995C22.9333 20.7083 20.7296 22.912 18.0208 22.912Z" fill="#212F3C" stroke="#212F3C" stroke-width="0.3"/>
<path d="M29.6391 4.0616C29.6481 3.67559 29.9632 3.36615 30.3514 3.36615C30.7453 3.36615 31.0639 3.68474 31.0639 4.07865V5.6694C31.0639 5.76249 31.0453 5.85528 31.009 5.94212M29.6391 4.0616L30.8706 5.88427M29.6391 4.0616C22.5159 -1.88372 11.873 -1.52026 5.1871 5.16564C-1.24824 11.601 -1.91428 21.8781 3.63766 29.0722L3.63771 29.0722C3.77811 29.254 3.98924 29.3493 4.20248 29.3493C4.3543 29.3493 4.50763 29.3008 4.63706 29.2012L4.63737 29.201C4.94853 28.9603 5.00639 28.513 4.76619 28.2015L4.76616 28.2015C-0.349138 21.5738 0.264501 12.1033 6.1946 6.17315C9.3536 3.01415 13.5533 1.2744 18.0214 1.2744C21.8953 1.2744 25.5655 2.58638 28.5332 4.99387M29.6391 4.0616L28.5332 4.99387M31.009 5.94212L30.8706 5.88427M31.009 5.94212C31.009 5.94206 31.0091 5.94199 31.0091 5.94192L30.8706 5.88427M31.009 5.94212C30.9364 6.11636 30.7983 6.25444 30.624 6.32702M30.8706 5.88427C30.8132 6.02208 30.7041 6.13121 30.5663 6.18858M30.624 6.32702C30.6241 6.327 30.6241 6.32699 30.6241 6.32698L30.5663 6.18858M30.624 6.32702C30.5372 6.3633 30.4445 6.3819 30.3514 6.3819H28.7607C28.3668 6.3819 28.0482 6.0633 28.0482 5.6694C28.0482 5.35504 28.2511 5.08864 28.5332 4.99387M30.624 6.32702C30.624 6.32703 30.624 6.32705 30.6239 6.32706L30.5663 6.18858M30.5663 6.18858L28.5332 4.99387" fill="#212F3C" stroke="#212F3C" stroke-width="0.3"/>
<path d="M32.4046 6.9267L32.4044 6.92644C32.1638 6.61606 31.7179 6.5576 31.4053 6.79754L31.4049 6.79788C31.0937 7.03854 31.0359 7.48585 31.276 7.79732L31.2761 7.79736C36.3914 14.4251 35.7772 23.8956 29.8471 29.8263L29.9531 29.9323L29.8471 29.8263C23.7485 35.926 14.0742 36.3152 7.51186 31.0057C7.79254 30.9101 7.99408 30.6444 7.99408 30.3312C7.99408 29.9372 7.67548 29.6187 7.28158 29.6187H5.70492C5.64335 29.6122 5.38419 29.5967 5.17479 29.7992C4.96029 30.0063 4.97183 30.2733 4.97833 30.3389V31.9225C4.97833 32.3164 5.29692 32.635 5.69083 32.635C6.07957 32.635 6.39496 32.3247 6.40316 31.9379C9.75601 34.7374 13.8873 36.141 18.0208 36.141C22.6685 36.141 27.3169 34.372 30.8551 30.8338L30.7491 30.7277L30.8552 30.8338C37.2905 24.3979 37.9565 14.1207 32.4046 6.9267Z" fill="#212F3C" stroke="#212F3C" stroke-width="0.3"/>
<path d="M14.7532 20.0217L14.633 20.1114C14.6998 20.2009 14.7749 20.2582 14.8298 20.2927L14.8298 20.2927L14.6024 15.9312C14.5036 16.0866 14.4891 16.2377 14.4864 16.3066L14.4862 16.3066V16.3126V19.6831H14.4861L14.4863 19.6887C14.4891 19.7615 14.5053 19.9411 14.6332 20.1117L14.7532 20.0217ZM14.7532 20.0217C14.652 19.8867 14.6385 19.7432 14.6362 19.6831M14.7532 20.0217C14.8061 20.0926 14.8657 20.1381 14.9096 20.1657L17.7221 21.8492C17.7767 21.8751 17.8847 21.9184 18.0264 21.9151M14.6362 19.6831L14.6025 15.9311M14.6362 19.6831V16.3126M14.6362 19.6831V16.3126M18.0264 21.9151L18.0298 22.065C18.0299 22.065 18.0299 22.065 18.03 22.065C18.1831 22.0615 18.301 22.0154 18.3663 21.9834L18.3665 21.9839L18.3775 21.9773L21.1854 20.2943C21.2405 20.2661 21.3919 20.1791 21.4784 19.992M18.0264 21.9151C18.1513 21.9122 18.2475 21.8746 18.3004 21.8487L18.0264 21.9151ZM21.4784 19.992C21.4784 19.9921 21.4784 19.9921 21.4784 19.9921L21.3424 19.9289L21.4785 19.9918C21.4785 19.9918 21.4785 19.9919 21.4784 19.992ZM21.4784 19.992C21.5404 19.8587 21.5403 19.7377 21.5357 19.675V16.3157C21.5382 16.2525 21.5334 16.1552 21.4911 16.047M21.4911 16.047C21.4911 16.047 21.4911 16.0471 21.4911 16.0471L21.3514 16.1016L21.4911 16.047ZM21.4911 16.047C21.409 15.8368 21.2436 15.7339 21.1854 15.7016M21.1854 15.7016L18.375 14.0227L18.3753 14.0223L18.3646 14.017C18.3026 13.9863 18.1847 13.9369 18.0281 13.9334L18.0247 14.0834L18.0283 13.9334C17.8521 13.9292 17.719 13.9856 17.6556 14.017L17.6554 14.0166L17.6452 14.0226L14.8327 15.7017L14.8327 15.7016L14.8279 15.7047C14.7727 15.7406 14.6789 15.8109 14.6025 15.9311M21.1854 15.7016L21.1875 15.7028L21.1106 15.8316M21.1854 15.7016C21.1845 15.7011 21.1837 15.7006 21.1829 15.7002L21.1106 15.8316M14.6025 15.9311L14.729 16.0116M14.6025 15.9311L17.7221 14.1514L14.9096 15.8305C14.8646 15.8597 14.7898 15.916 14.729 16.0116M14.729 16.0116C14.6503 16.1354 14.6385 16.2563 14.6362 16.3126M14.729 16.0116L14.6362 16.3126M21.1106 15.8316L18.2981 14.1514L21.1106 15.8316ZM18.0085 17.166L16.5851 16.3134L18.009 15.4635L19.4323 16.3138L18.0085 17.166ZM15.909 19.2791V17.5685L17.2965 18.4V20.1097L15.909 19.2791ZM18.7215 20.1095V18.4006L20.109 17.57V19.2775L18.7215 20.1095Z" fill="#212F3C" stroke="#212F3C" stroke-width="0.3"/>
</g>
<circle cx="18" cy="18" r="16.5" stroke="#FF1D1D" stroke-width="3"/>
<path d="M28.5 5.5L6 28" stroke="#FF1D1D" stroke-width="3"/>
<path d="M80.05 4.4V17H77.152V6.776H71.464V17H68.566V4.4H80.05ZM92.2454 7.316V17H89.4374V9.62H86.3774L86.2874 11.33C86.2394 12.602 86.1194 13.658 85.9274 14.498C85.7354 15.338 85.4234 15.998 84.9914 16.478C84.5594 16.958 83.9594 17.198 83.1914 17.198C82.7834 17.198 82.2974 17.126 81.7334 16.982L81.8774 14.678C82.0694 14.702 82.2074 14.714 82.2914 14.714C82.7114 14.714 83.0234 14.564 83.2274 14.264C83.4434 13.952 83.5874 13.562 83.6594 13.094C83.7314 12.614 83.7854 11.984 83.8214 11.204L83.9654 7.316H92.2454ZM99.4817 17.144C98.4617 17.144 97.5437 16.934 96.7277 16.514C95.9237 16.082 95.2937 15.488 94.8377 14.732C94.3817 13.976 94.1537 13.118 94.1537 12.158C94.1537 11.198 94.3817 10.34 94.8377 9.584C95.2937 8.828 95.9237 8.24 96.7277 7.82C97.5437 7.388 98.4617 7.172 99.4817 7.172C100.502 7.172 101.414 7.388 102.218 7.82C103.022 8.24 103.652 8.828 104.108 9.584C104.564 10.34 104.792 11.198 104.792 12.158C104.792 13.118 104.564 13.976 104.108 14.732C103.652 15.488 103.022 16.082 102.218 16.514C101.414 16.934 100.502 17.144 99.4817 17.144ZM99.4817 14.84C100.202 14.84 100.79 14.6 101.246 14.12C101.714 13.628 101.948 12.974 101.948 12.158C101.948 11.342 101.714 10.694 101.246 10.214C100.79 9.722 100.202 9.476 99.4817 9.476C98.7617 9.476 98.1677 9.722 97.6997 10.214C97.2317 10.694 96.9977 11.342 96.9977 12.158C96.9977 12.974 97.2317 13.628 97.6997 14.12C98.1677 14.6 98.7617 14.84 99.4817 14.84ZM112.508 17L110.384 14.03L108.188 17H105.128L108.854 12.122L105.254 7.316H108.404L110.456 10.142L112.562 7.316H115.55L111.95 12.05L115.694 17H112.508ZM117.077 7.316H119.867V13.076L124.583 7.316H127.157V17H124.367V11.24L119.669 17H117.077V7.316ZM139.27 12.194C139.27 12.23 139.252 12.482 139.216 12.95H131.89C132.022 13.55 132.334 14.024 132.826 14.372C133.318 14.72 133.93 14.894 134.662 14.894C135.166 14.894 135.61 14.822 135.994 14.678C136.39 14.522 136.756 14.282 137.092 13.958L138.586 15.578C137.674 16.622 136.342 17.144 134.59 17.144C133.498 17.144 132.532 16.934 131.692 16.514C130.852 16.082 130.204 15.488 129.748 14.732C129.292 13.976 129.064 13.118 129.064 12.158C129.064 11.21 129.286 10.358 129.73 9.602C130.186 8.834 130.804 8.24 131.584 7.82C132.376 7.388 133.258 7.172 134.23 7.172C135.178 7.172 136.036 7.376 136.804 7.784C137.572 8.192 138.172 8.78 138.604 9.548C139.048 10.304 139.27 11.186 139.27 12.194ZM134.248 9.296C133.612 9.296 133.078 9.476 132.646 9.836C132.214 10.196 131.95 10.688 131.854 11.312H136.624C136.528 10.7 136.264 10.214 135.832 9.854C135.4 9.482 134.872 9.296 134.248 9.296ZM156.222 7.316L151.848 17.594C151.404 18.71 150.852 19.496 150.192 19.952C149.544 20.408 148.758 20.636 147.834 20.636C147.33 20.636 146.832 20.558 146.34 20.402C145.848 20.246 145.446 20.03 145.134 19.754L146.16 17.756C146.376 17.948 146.622 18.098 146.898 18.206C147.186 18.314 147.468 18.368 147.744 18.368C148.128 18.368 148.44 18.272 148.68 18.08C148.92 17.9 149.136 17.594 149.328 17.162L149.364 17.072L145.17 7.316H148.068L150.786 13.886L153.522 7.316H156.222ZM167.207 7.316V17H164.399V9.62H160.367V17H157.577V7.316H167.207ZM179.187 7.316V17H176.379V9.62H173.319L173.229 11.33C173.181 12.602 173.061 13.658 172.869 14.498C172.677 15.338 172.365 15.998 171.933 16.478C171.501 16.958 170.901 17.198 170.133 17.198C169.725 17.198 169.239 17.126 168.675 16.982L168.819 14.678C169.011 14.702 169.149 14.714 169.233 14.714C169.653 14.714 169.965 14.564 170.169 14.264C170.385 13.952 170.529 13.562 170.601 13.094C170.673 12.614 170.727 11.984 170.763 11.204L170.907 7.316H179.187ZM186.423 17.144C185.403 17.144 184.485 16.934 183.669 16.514C182.865 16.082 182.235 15.488 181.779 14.732C181.323 13.976 181.095 13.118 181.095 12.158C181.095 11.198 181.323 10.34 181.779 9.584C182.235 8.828 182.865 8.24 183.669 7.82C184.485 7.388 185.403 7.172 186.423 7.172C187.443 7.172 188.355 7.388 189.159 7.82C189.963 8.24 190.593 8.828 191.049 9.584C191.505 10.34 191.733 11.198 191.733 12.158C191.733 13.118 191.505 13.976 191.049 14.732C190.593 15.488 189.963 16.082 189.159 16.514C188.355 16.934 187.443 17.144 186.423 17.144ZM186.423 14.84C187.143 14.84 187.731 14.6 188.187 14.12C188.655 13.628 188.889 12.974 188.889 12.158C188.889 11.342 188.655 10.694 188.187 10.214C187.731 9.722 187.143 9.476 186.423 9.476C185.703 9.476 185.109 9.722 184.641 10.214C184.173 10.694 183.939 11.342 183.939 12.158C183.939 12.974 184.173 13.628 184.641 14.12C185.109 14.6 185.703 14.84 186.423 14.84ZM201.449 9.62H198.173V17H195.383V9.62H192.107V7.316H201.449V9.62ZM202.946 7.316H205.736V11.096H209.948V7.316H212.756V17H209.948V13.382H205.736V17H202.946V7.316ZM215.444 7.316H218.234V13.076L222.95 7.316H225.524V17H222.734V11.24L218.036 17H215.444V7.316ZM236.359 9.62H233.083V17H230.293V9.62H227.017V7.316H236.359V9.62ZM246.866 12.194C246.866 12.23 246.848 12.482 246.812 12.95H239.486C239.618 13.55 239.93 14.024 240.422 14.372C240.914 14.72 241.526 14.894 242.258 14.894C242.762 14.894 243.206 14.822 243.59 14.678C243.986 14.522 244.352 14.282 244.688 13.958L246.182 15.578C245.27 16.622 243.938 17.144 242.186 17.144C241.094 17.144 240.128 16.934 239.288 16.514C238.448 16.082 237.8 15.488 237.344 14.732C236.888 13.976 236.66 13.118 236.66 12.158C236.66 11.21 236.882 10.358 237.326 9.602C237.782 8.834 238.4 8.24 239.18 7.82C239.972 7.388 240.854 7.172 241.826 7.172C242.774 7.172 243.632 7.376 244.4 7.784C245.168 8.192 245.768 8.78 246.2 9.548C246.644 10.304 246.866 11.186 246.866 12.194ZM241.844 9.296C241.208 9.296 240.674 9.476 240.242 9.836C239.81 10.196 239.546 10.688 239.45 11.312H244.22C244.124 10.7 243.86 10.214 243.428 9.854C242.996 9.482 242.468 9.296 241.844 9.296ZM258.218 7.316V17H255.41V9.62H252.35L252.26 11.33C252.212 12.602 252.092 13.658 251.9 14.498C251.708 15.338 251.396 15.998 250.964 16.478C250.532 16.958 249.932 17.198 249.164 17.198C248.756 17.198 248.27 17.126 247.706 16.982L247.85 14.678C248.042 14.702 248.18 14.714 248.264 14.714C248.684 14.714 248.996 14.564 249.2 14.264C249.416 13.952 249.56 13.562 249.632 13.094C249.704 12.614 249.758 11.984 249.794 11.204L249.938 7.316H258.218ZM260.918 7.316H263.708V13.076L268.424 7.316H270.998V17H268.208V11.24L263.51 17H260.918V7.316ZM76.968 37.2V47H75.596V38.418H69.912V47H68.526V37.2H76.968ZM86.17 39.58V47H84.826V40.756H81.634L81.55 42.408C81.5034 43.4067 81.4147 44.242 81.284 44.914C81.1534 45.5767 80.9387 46.1087 80.64 46.51C80.3414 46.9113 79.926 47.112 79.394 47.112C79.1514 47.112 78.876 47.07 78.568 46.986L78.652 45.852C78.7734 45.88 78.8854 45.894 78.988 45.894C79.3614 45.894 79.6414 45.7307 79.828 45.404C80.0147 45.0773 80.136 44.69 80.192 44.242C80.248 43.794 80.2994 43.1547 80.346 42.324L80.472 39.58H86.17ZM91.9468 47.084C91.2095 47.084 90.5468 46.9207 89.9588 46.594C89.3708 46.2673 88.9088 45.8193 88.5728 45.25C88.2461 44.6713 88.0828 44.018 88.0828 43.29C88.0828 42.562 88.2461 41.9133 88.5728 41.344C88.9088 40.7653 89.3708 40.3173 89.9588 40C90.5468 39.6733 91.2095 39.51 91.9468 39.51C92.6841 39.51 93.3421 39.6733 93.9208 40C94.5088 40.3173 94.9661 40.7653 95.2928 41.344C95.6288 41.9133 95.7968 42.562 95.7968 43.29C95.7968 44.018 95.6288 44.6713 95.2928 45.25C94.9661 45.8193 94.5088 46.2673 93.9208 46.594C93.3421 46.9207 92.6841 47.084 91.9468 47.084ZM91.9468 45.908C92.4228 45.908 92.8475 45.8007 93.2208 45.586C93.6035 45.362 93.9021 45.054 94.1168 44.662C94.3315 44.2607 94.4388 43.8033 94.4388 43.29C94.4388 42.7767 94.3315 42.324 94.1168 41.932C93.9021 41.5307 93.6035 41.2227 93.2208 41.008C92.8475 40.7933 92.4228 40.686 91.9468 40.686C91.4708 40.686 91.0415 40.7933 90.6588 41.008C90.2855 41.2227 89.9868 41.5307 89.7628 41.932C89.5481 42.324 89.4408 42.7767 89.4408 43.29C89.4408 43.8033 89.5481 44.2607 89.7628 44.662C89.9868 45.054 90.2855 45.362 90.6588 45.586C91.0415 45.8007 91.4708 45.908 91.9468 45.908ZM102.125 47L99.9835 44.158L97.8135 47H96.3155L99.2415 43.206L96.4555 39.58H97.9535L99.9975 42.254L102.027 39.58H103.497L100.697 43.206L103.651 47H102.125ZM107.575 39.51C108.602 39.51 109.386 39.762 109.927 40.266C110.478 40.77 110.753 41.5213 110.753 42.52V47H109.479V46.02C109.255 46.3653 108.933 46.6313 108.513 46.818C108.102 46.9953 107.612 47.084 107.043 47.084C106.212 47.084 105.545 46.8833 105.041 46.482C104.546 46.0807 104.299 45.5533 104.299 44.9C104.299 44.2467 104.537 43.724 105.013 43.332C105.489 42.9307 106.245 42.73 107.281 42.73H109.409V42.464C109.409 41.8853 109.241 41.442 108.905 41.134C108.569 40.826 108.074 40.672 107.421 40.672C106.982 40.672 106.553 40.7467 106.133 40.896C105.713 41.036 105.358 41.2273 105.069 41.47L104.509 40.462C104.892 40.154 105.349 39.9207 105.881 39.762C106.413 39.594 106.978 39.51 107.575 39.51ZM107.267 46.048C107.78 46.048 108.224 45.936 108.597 45.712C108.97 45.4787 109.241 45.152 109.409 44.732V43.696H107.337C106.198 43.696 105.629 44.0787 105.629 44.844C105.629 45.2173 105.774 45.5113 106.063 45.726C106.352 45.9407 106.754 46.048 107.267 46.048ZM119.123 39.58V47H117.919V44.648H115.763H115.609L113.985 47H112.543L114.349 44.466C113.789 44.298 113.36 44.0227 113.061 43.64C112.762 43.248 112.613 42.7627 112.613 42.184C112.613 41.3347 112.902 40.6907 113.481 40.252C114.06 39.804 114.858 39.58 115.875 39.58H119.123ZM113.985 42.226C113.985 42.7207 114.139 43.0893 114.447 43.332C114.764 43.5653 115.236 43.682 115.861 43.682H117.919V40.756H115.917C114.629 40.756 113.985 41.246 113.985 42.226ZM131.035 40.756H128.319V47H126.975V40.756H124.259V39.58H131.035V40.756ZM138.787 43.332C138.787 43.4347 138.778 43.57 138.759 43.738H132.739C132.823 44.3913 133.108 44.9187 133.593 45.32C134.088 45.712 134.699 45.908 135.427 45.908C136.314 45.908 137.028 45.6093 137.569 45.012L138.311 45.88C137.975 46.272 137.555 46.5707 137.051 46.776C136.557 46.9813 136.001 47.084 135.385 47.084C134.601 47.084 133.906 46.9253 133.299 46.608C132.693 46.2813 132.221 45.8287 131.885 45.25C131.559 44.6713 131.395 44.018 131.395 43.29C131.395 42.5713 131.554 41.9227 131.871 41.344C132.198 40.7653 132.641 40.3173 133.201 40C133.771 39.6733 134.41 39.51 135.119 39.51C135.829 39.51 136.459 39.6733 137.009 40C137.569 40.3173 138.003 40.7653 138.311 41.344C138.629 41.9227 138.787 42.5853 138.787 43.332ZM135.119 40.644C134.475 40.644 133.934 40.84 133.495 41.232C133.066 41.624 132.814 42.1373 132.739 42.772H137.499C137.425 42.1467 137.168 41.638 136.729 41.246C136.3 40.8447 135.763 40.644 135.119 40.644ZM147.746 39.58V47H146.402V40.756H142.216V47H140.872V39.58H147.746ZM156.717 39.58V47H155.373V40.756H152.181L152.097 42.408C152.05 43.4067 151.962 44.242 151.831 44.914C151.7 45.5767 151.486 46.1087 151.187 46.51C150.888 46.9113 150.473 47.112 149.941 47.112C149.698 47.112 149.423 47.07 149.115 46.986L149.199 45.852C149.32 45.88 149.432 45.894 149.535 45.894C149.908 45.894 150.188 45.7307 150.375 45.404C150.562 45.0773 150.683 44.69 150.739 44.242C150.795 43.794 150.846 43.1547 150.893 42.324L151.019 39.58H156.717ZM162.494 47.084C161.756 47.084 161.094 46.9207 160.506 46.594C159.918 46.2673 159.456 45.8193 159.12 45.25C158.793 44.6713 158.63 44.018 158.63 43.29C158.63 42.562 158.793 41.9133 159.12 41.344C159.456 40.7653 159.918 40.3173 160.506 40C161.094 39.6733 161.756 39.51 162.494 39.51C163.231 39.51 163.889 39.6733 164.468 40C165.056 40.3173 165.513 40.7653 165.84 41.344C166.176 41.9133 166.344 42.562 166.344 43.29C166.344 44.018 166.176 44.6713 165.84 45.25C165.513 45.8193 165.056 46.2673 164.468 46.594C163.889 46.9207 163.231 47.084 162.494 47.084ZM162.494 45.908C162.97 45.908 163.394 45.8007 163.768 45.586C164.15 45.362 164.449 45.054 164.664 44.662C164.878 44.2607 164.986 43.8033 164.986 43.29C164.986 42.7767 164.878 42.324 164.664 41.932C164.449 41.5307 164.15 41.2227 163.768 41.008C163.394 40.7933 162.97 40.686 162.494 40.686C162.018 40.686 161.588 40.7933 161.206 41.008C160.832 41.2227 160.534 41.5307 160.31 41.932C160.095 42.324 159.988 42.7767 159.988 43.29C159.988 43.8033 160.095 44.2607 160.31 44.662C160.534 45.054 160.832 45.362 161.206 45.586C161.588 45.8007 162.018 45.908 162.494 45.908ZM167.917 42.576H171.683V43.738H167.917V42.576ZM177.54 39.58H178.884V44.984L183.434 39.58H184.652V47H183.308V41.596L178.772 47H177.54V39.58ZM78.872 57.58V65H68.302V57.58H69.646V63.824H72.922V57.58H74.266V63.824H77.528V57.58H78.872ZM88.1037 57.58L84.5057 65.742C84.1884 66.498 83.815 67.03 83.3857 67.338C82.9657 67.646 82.457 67.8 81.8597 67.8C81.4957 67.8 81.141 67.7393 80.7957 67.618C80.4597 67.506 80.1797 67.338 79.9557 67.114L80.5297 66.106C80.9124 66.47 81.3557 66.652 81.8597 66.652C82.1864 66.652 82.457 66.5633 82.6717 66.386C82.8957 66.218 83.0964 65.924 83.2737 65.504L83.5117 64.986L80.2357 57.58H81.6357L84.2257 63.516L86.7877 57.58H88.1037ZM98.0337 57.58V65H96.8157V59.582L94.0437 64.16H93.4557L90.7117 59.568V65H89.4797V57.58H90.8657L93.7777 62.592L96.7737 57.58H98.0337ZM103.828 65.084C103.09 65.084 102.428 64.9207 101.84 64.594C101.252 64.2673 100.79 63.8193 100.454 63.25C100.127 62.6713 99.9637 62.018 99.9637 61.29C99.9637 60.562 100.127 59.9133 100.454 59.344C100.79 58.7653 101.252 58.3173 101.84 58C102.428 57.6733 103.09 57.51 103.828 57.51C104.565 57.51 105.223 57.6733 105.802 58C106.39 58.3173 106.847 58.7653 107.174 59.344C107.51 59.9133 107.678 60.562 107.678 61.29C107.678 62.018 107.51 62.6713 107.174 63.25C106.847 63.8193 106.39 64.2673 105.802 64.594C105.223 64.9207 104.565 65.084 103.828 65.084ZM103.828 63.908C104.304 63.908 104.728 63.8007 105.102 63.586C105.484 63.362 105.783 63.054 105.998 62.662C106.212 62.2607 106.32 61.8033 106.32 61.29C106.32 60.7767 106.212 60.324 105.998 59.932C105.783 59.5307 105.484 59.2227 105.102 59.008C104.728 58.7933 104.304 58.686 103.828 58.686C103.352 58.686 102.922 58.7933 102.54 59.008C102.166 59.2227 101.868 59.5307 101.644 59.932C101.429 60.324 101.322 60.7767 101.322 61.29C101.322 61.8033 101.429 62.2607 101.644 62.662C101.868 63.054 102.166 63.362 102.54 63.586C102.922 63.8007 103.352 63.908 103.828 63.908ZM109.618 57.58H110.962V62.984L115.512 57.58H116.73V65H115.386V59.596L110.85 65H109.618V57.58ZM123.234 61.136C123.729 61.2667 124.111 61.4767 124.382 61.766C124.653 62.0553 124.788 62.4147 124.788 62.844C124.788 63.2827 124.639 63.6747 124.34 64.02C124.041 64.356 123.626 64.622 123.094 64.818C122.571 65.0047 121.983 65.098 121.33 65.098C120.779 65.098 120.238 65.028 119.706 64.888C119.183 64.7387 118.717 64.5287 118.306 64.258L118.712 63.236C119.067 63.46 119.473 63.6373 119.93 63.768C120.387 63.8893 120.849 63.95 121.316 63.95C121.951 63.95 122.455 63.8427 122.828 63.628C123.211 63.404 123.402 63.1053 123.402 62.732C123.402 62.3867 123.248 62.1207 122.94 61.934C122.641 61.7473 122.217 61.654 121.666 61.654H120.308V60.688H121.568C122.072 60.688 122.469 60.5993 122.758 60.422C123.047 60.2447 123.192 60.002 123.192 59.694C123.192 59.358 123.019 59.0967 122.674 58.91C122.338 58.7233 121.881 58.63 121.302 58.63C120.565 58.63 119.785 58.8213 118.964 59.204L118.6 58.168C119.505 57.7107 120.453 57.482 121.442 57.482C122.039 57.482 122.576 57.566 123.052 57.734C123.528 57.902 123.901 58.14 124.172 58.448C124.443 58.756 124.578 59.106 124.578 59.498C124.578 59.862 124.457 60.1887 124.214 60.478C123.971 60.7673 123.645 60.9867 123.234 61.136ZM130.009 65.084C129.272 65.084 128.609 64.9207 128.021 64.594C127.433 64.2673 126.971 63.8193 126.635 63.25C126.309 62.6713 126.145 62.018 126.145 61.29C126.145 60.562 126.309 59.9133 126.635 59.344C126.971 58.7653 127.433 58.3173 128.021 58C128.609 57.6733 129.272 57.51 130.009 57.51C130.747 57.51 131.405 57.6733 131.983 58C132.571 58.3173 133.029 58.7653 133.355 59.344C133.691 59.9133 133.859 60.562 133.859 61.29C133.859 62.018 133.691 62.6713 133.355 63.25C133.029 63.8193 132.571 64.2673 131.983 64.594C131.405 64.9207 130.747 65.084 130.009 65.084ZM130.009 63.908C130.485 63.908 130.91 63.8007 131.283 63.586C131.666 63.362 131.965 63.054 132.179 62.662C132.394 62.2607 132.501 61.8033 132.501 61.29C132.501 60.7767 132.394 60.324 132.179 59.932C131.965 59.5307 131.666 59.2227 131.283 59.008C130.91 58.7933 130.485 58.686 130.009 58.686C129.533 58.686 129.104 58.7933 128.721 59.008C128.348 59.2227 128.049 59.5307 127.825 59.932C127.611 60.324 127.503 60.7767 127.503 61.29C127.503 61.8033 127.611 62.2607 127.825 62.662C128.049 63.054 128.348 63.362 128.721 63.586C129.104 63.8007 129.533 63.908 130.009 63.908ZM142.115 57.58V65H140.771V58.756H137.579L137.495 60.408C137.449 61.4067 137.36 62.242 137.229 62.914C137.099 63.5767 136.884 64.1087 136.585 64.51C136.287 64.9113 135.871 65.112 135.339 65.112C135.097 65.112 134.821 65.07 134.513 64.986L134.597 63.852C134.719 63.88 134.831 63.894 134.933 63.894C135.307 63.894 135.587 63.7307 135.773 63.404C135.96 63.0773 136.081 62.69 136.137 62.242C136.193 61.794 136.245 61.1547 136.291 60.324L136.417 57.58H142.115ZM150.664 57.58V65H149.46V62.648H147.304H147.15L145.526 65H144.084L145.89 62.466C145.33 62.298 144.901 62.0227 144.602 61.64C144.303 61.248 144.154 60.7627 144.154 60.184C144.154 59.3347 144.443 58.6907 145.022 58.252C145.601 57.804 146.399 57.58 147.416 57.58H150.664ZM145.526 60.226C145.526 60.7207 145.68 61.0893 145.988 61.332C146.305 61.5653 146.777 61.682 147.402 61.682H149.46V58.756H147.458C146.17 58.756 145.526 59.246 145.526 60.226ZM161.21 63.824V66.778H159.936V65H153.286V57.58H154.63V63.824H158.69V57.58H160.034V63.824H161.21ZM162.952 57.58H164.296V62.984L168.846 57.58H170.064V65H168.72V59.596L164.184 65H162.952V57.58ZM178.623 57.58V65H177.419V62.648H175.263H175.109L173.485 65H172.043L173.849 62.466C173.289 62.298 172.86 62.0227 172.561 61.64C172.262 61.248 172.113 60.7627 172.113 60.184C172.113 59.3347 172.402 58.6907 172.981 58.252C173.56 57.804 174.358 57.58 175.375 57.58H178.623ZM173.485 60.226C173.485 60.7207 173.639 61.0893 173.947 61.332C174.264 61.5653 174.736 61.682 175.361 61.682H177.419V58.756H175.417C174.129 58.756 173.485 59.246 173.485 60.226Z" fill="#FF1D1D"/>
<defs>
<clipPath id="clip0">
<rect width="36" height="36" fill="white"/>
</clipPath>
</defs>
</svg>
