<svg width="253" height="68" viewBox="0 0 253 68" fill="none" xmlns="http://www.w3.org/2000/svg">
<g clip-path="url(#clip0)">
<path d="M12.4508 32.8914L16.5415 19.9252C15.7736 19.2914 15.5248 18.2206 15.9337 17.3132L10.2421 11.6151L10.2409 11.6139L10.2409 11.6139C9.9349 11.2969 9.9349 10.7949 10.2409 10.4779L10.241 10.4779C10.5545 10.1534 11.0718 10.1443 11.3966 10.4579L11.3979 10.4591L11.3979 10.4591L17.0925 16.1545C17.3756 16.0274 17.6827 15.9608 17.9935 15.9595M12.4508 32.8914L12.9641 34.6517L12.9643 34.7517C12.9644 34.7517 12.9645 34.7517 12.9645 34.7517C13.1179 34.7513 13.2682 34.7103 13.4003 34.6323L13.4004 34.6323C13.5735 34.5299 13.7027 34.3672 13.7634 34.1754L13.7635 34.1753L18.09 20.4624C19.2998 20.4176 20.2636 19.4194 20.2572 18.2002C20.2508 16.9563 19.2374 15.9532 17.9935 15.9595M12.4508 32.8914C4.37985 29.8583 0.259601 20.8736 3.24444 12.7707C6.24137 4.63497 15.266 0.469128 23.4017 3.46606C31.5375 6.46299 35.7033 15.4879 32.7064 23.6234C31.2564 27.5595 28.2922 30.75 24.4774 32.4859L24.0555 30.4988L12.4508 32.8914ZM17.9935 15.9595L17.994 16.0595M17.9935 15.9595C17.9935 15.9595 17.9935 15.9595 17.9934 15.9595L17.994 16.0595M17.994 16.0595C17.6743 16.0609 17.3587 16.1345 17.0714 16.2748L17.994 16.0595ZM12.7236 34.7148L12.724 34.7149L24.0554 30.4987C23.9621 30.0571 23.5281 29.7749 23.0865 29.8685L23.0864 29.8685C22.9472 29.8982 22.8181 29.9636 22.7117 30.0583L22.7116 30.0584L18.3952 33.912C18.0579 34.2121 18.0278 34.7288 18.3282 35.0662L18.3283 35.0662C18.4259 35.1757 18.551 35.257 18.6911 35.3017L24.202 37.0606C24.6316 37.1986 25.092 36.9623 25.23 36.5323C25.2738 36.3964 25.281 36.2519 25.2516 36.1126L25.2516 36.1124L24.8287 34.124C31.195 31.4044 35.3236 25.1418 35.3087 18.2137C35.3067 8.64963 27.5517 0.898067 17.9873 0.9C8.42317 0.901934 0.671504 8.6572 0.673438 18.2214C0.675095 25.7551 5.54682 32.4233 12.7236 34.7148ZM17.9912 17.5965C18.332 17.5965 18.6086 17.8731 18.6086 18.2139C18.6086 18.555 18.3321 18.8313 17.9912 18.8313C17.6501 18.8313 17.3738 18.555 17.3738 18.2139C17.3738 17.8731 17.6501 17.5965 17.9912 17.5965ZM23.3557 35.0744L20.5513 34.1767L22.7491 32.2161L23.3557 35.0744Z" fill="#212F3C" stroke="#212F3C" stroke-width="0.2"/>
<path d="M17.1738 4.58313V6.01794C17.1738 6.4695 17.5397 6.83535 17.9912 6.83535C18.4425 6.83535 18.8086 6.46953 18.8086 6.01794V4.58313C18.8086 4.13184 18.4425 3.76572 17.9912 3.76572C17.5396 3.76572 17.1738 4.13187 17.1738 4.58313Z" fill="#212F3C" stroke="#212F3C" stroke-width="0.2"/>
<path d="M4.36047 17.3966C3.90889 17.3966 3.54307 17.7627 3.54307 18.214C3.54307 18.6655 3.90891 19.0314 4.36047 19.0314H5.79529C6.24685 19.0314 6.6127 18.6655 6.6127 18.214C6.6127 17.7627 6.24687 17.3966 5.79529 17.3966H4.36047Z" fill="#212F3C" stroke="#212F3C" stroke-width="0.2"/>
<path d="M31.6217 19.0314C32.0733 19.0314 32.4391 18.6655 32.4391 18.214C32.4391 17.7627 32.0733 17.3966 31.6217 17.3966H30.1869C29.7356 17.3966 29.3695 17.7627 29.3695 18.214C29.3695 18.6656 29.7356 19.0314 30.1869 19.0314H31.6217Z" fill="#212F3C" stroke="#212F3C" stroke-width="0.2"/>
</g>
<path d="M78.122 5.4V18H75.206V12.834H69.482V18H66.566V5.4H69.482V10.368H75.206V5.4H78.122ZM90.4769 13.194C90.4769 13.23 90.4589 13.482 90.4229 13.95H83.0969C83.2289 14.55 83.5409 15.024 84.0329 15.372C84.5249 15.72 85.1369 15.894 85.8689 15.894C86.3729 15.894 86.8169 15.822 87.2009 15.678C87.5969 15.522 87.9629 15.282 88.2989 14.958L89.7929 16.578C88.8809 17.622 87.5489 18.144 85.7969 18.144C84.7049 18.144 83.7389 17.934 82.8989 17.514C82.0589 17.082 81.4109 16.488 80.9549 15.732C80.4989 14.976 80.2709 14.118 80.2709 13.158C80.2709 12.21 80.4929 11.358 80.9369 10.602C81.3929 9.834 82.0109 9.24 82.7909 8.82C83.5829 8.388 84.4649 8.172 85.4369 8.172C86.3849 8.172 87.2429 8.376 88.0109 8.784C88.7789 9.192 89.3789 9.78 89.8109 10.548C90.2549 11.304 90.4769 12.186 90.4769 13.194ZM85.4549 10.296C84.8189 10.296 84.2849 10.476 83.8529 10.836C83.4209 11.196 83.1569 11.688 83.0609 12.312H87.8309C87.7349 11.7 87.4709 11.214 87.0389 10.854C86.6069 10.482 86.0789 10.296 85.4549 10.296ZM103.395 15.696V20.088H100.785V18H93.9814V20.088H91.3714V15.696H91.7674C92.3674 15.684 92.7814 15.33 93.0094 14.634C93.2374 13.938 93.3814 12.948 93.4414 11.664L93.5674 8.316H102.009V15.696H103.395ZM95.9794 11.862C95.9434 12.846 95.8654 13.65 95.7454 14.274C95.6374 14.898 95.4274 15.372 95.1154 15.696H99.2014V10.62H96.0334L95.9794 11.862ZM109.699 18.144C108.679 18.144 107.761 17.934 106.945 17.514C106.141 17.082 105.511 16.488 105.055 15.732C104.599 14.976 104.371 14.118 104.371 13.158C104.371 12.198 104.599 11.34 105.055 10.584C105.511 9.828 106.141 9.24 106.945 8.82C107.761 8.388 108.679 8.172 109.699 8.172C110.719 8.172 111.631 8.388 112.435 8.82C113.239 9.24 113.869 9.828 114.325 10.584C114.781 11.34 115.009 12.198 115.009 13.158C115.009 14.118 114.781 14.976 114.325 15.732C113.869 16.488 113.239 17.082 112.435 17.514C111.631 17.934 110.719 18.144 109.699 18.144ZM109.699 15.84C110.419 15.84 111.007 15.6 111.463 15.12C111.931 14.628 112.165 13.974 112.165 13.158C112.165 12.342 111.931 11.694 111.463 11.214C111.007 10.722 110.419 10.476 109.699 10.476C108.979 10.476 108.385 10.722 107.917 11.214C107.449 11.694 107.215 12.342 107.215 13.158C107.215 13.974 107.449 14.628 107.917 15.12C108.385 15.6 108.979 15.84 109.699 15.84ZM126.087 8.316V18H123.279V10.62H120.219L120.129 12.33C120.081 13.602 119.961 14.658 119.769 15.498C119.577 16.338 119.265 16.998 118.833 17.478C118.401 17.958 117.801 18.198 117.033 18.198C116.625 18.198 116.139 18.126 115.575 17.982L115.719 15.678C115.911 15.702 116.049 15.714 116.133 15.714C116.553 15.714 116.865 15.564 117.069 15.264C117.285 14.952 117.429 14.562 117.501 14.094C117.573 13.614 117.627 12.984 117.663 12.204L117.807 8.316H126.087ZM136.546 10.62H131.578V18H128.788V8.316H136.546V10.62ZM142.165 18.144C141.145 18.144 140.227 17.934 139.411 17.514C138.607 17.082 137.977 16.488 137.521 15.732C137.065 14.976 136.837 14.118 136.837 13.158C136.837 12.198 137.065 11.34 137.521 10.584C137.977 9.828 138.607 9.24 139.411 8.82C140.227 8.388 141.145 8.172 142.165 8.172C143.185 8.172 144.097 8.388 144.901 8.82C145.705 9.24 146.335 9.828 146.791 10.584C147.247 11.34 147.475 12.198 147.475 13.158C147.475 14.118 147.247 14.976 146.791 15.732C146.335 16.488 145.705 17.082 144.901 17.514C144.097 17.934 143.185 18.144 142.165 18.144ZM142.165 15.84C142.885 15.84 143.473 15.6 143.929 15.12C144.397 14.628 144.631 13.974 144.631 13.158C144.631 12.342 144.397 11.694 143.929 11.214C143.473 10.722 142.885 10.476 142.165 10.476C141.445 10.476 140.851 10.722 140.383 11.214C139.915 11.694 139.681 12.342 139.681 13.158C139.681 13.974 139.915 14.628 140.383 15.12C140.851 15.6 141.445 15.84 142.165 15.84ZM156.805 12.942C157.945 13.326 158.515 14.094 158.515 15.246C158.515 16.122 158.185 16.8 157.525 17.28C156.865 17.76 155.881 18 154.573 18H149.407V8.316H154.357C155.569 8.316 156.517 8.538 157.201 8.982C157.885 9.414 158.227 10.026 158.227 10.818C158.227 11.298 158.101 11.724 157.849 12.096C157.609 12.456 157.261 12.738 156.805 12.942ZM151.981 12.294H154.105C155.089 12.294 155.581 11.946 155.581 11.25C155.581 10.566 155.089 10.224 154.105 10.224H151.981V12.294ZM154.339 16.092C155.371 16.092 155.887 15.738 155.887 15.03C155.887 14.658 155.767 14.388 155.527 14.22C155.287 14.04 154.909 13.95 154.393 13.95H151.981V16.092H154.339ZM170.018 13.194C170.018 13.23 170 13.482 169.964 13.95H162.638C162.77 14.55 163.082 15.024 163.574 15.372C164.066 15.72 164.678 15.894 165.41 15.894C165.914 15.894 166.358 15.822 166.742 15.678C167.138 15.522 167.504 15.282 167.84 14.958L169.334 16.578C168.422 17.622 167.09 18.144 165.338 18.144C164.246 18.144 163.28 17.934 162.44 17.514C161.6 17.082 160.952 16.488 160.496 15.732C160.04 14.976 159.812 14.118 159.812 13.158C159.812 12.21 160.034 11.358 160.478 10.602C160.934 9.834 161.552 9.24 162.332 8.82C163.124 8.388 164.006 8.172 164.978 8.172C165.926 8.172 166.784 8.376 167.552 8.784C168.32 9.192 168.92 9.78 169.352 10.548C169.796 11.304 170.018 12.186 170.018 13.194ZM164.996 10.296C164.36 10.296 163.826 10.476 163.394 10.836C162.962 11.196 162.698 11.688 162.602 12.312H167.372C167.276 11.7 167.012 11.214 166.58 10.854C166.148 10.482 165.62 10.296 164.996 10.296ZM180.882 8.316V18H178.074V14.4C177.258 14.808 176.358 15.012 175.374 15.012C174.066 15.012 173.076 14.718 172.404 14.13C171.744 13.53 171.414 12.606 171.414 11.358V8.316H174.222V11.178C174.222 11.766 174.372 12.192 174.672 12.456C174.984 12.72 175.428 12.852 176.004 12.852C176.736 12.852 177.426 12.696 178.074 12.384V8.316H180.882ZM183.579 8.316H186.369V12.096H190.581V8.316H193.389V18H190.581V14.382H186.369V18H183.579V8.316ZM200.613 18.144C199.593 18.144 198.675 17.934 197.859 17.514C197.055 17.082 196.425 16.488 195.969 15.732C195.513 14.976 195.285 14.118 195.285 13.158C195.285 12.198 195.513 11.34 195.969 10.584C196.425 9.828 197.055 9.24 197.859 8.82C198.675 8.388 199.593 8.172 200.613 8.172C201.633 8.172 202.545 8.388 203.349 8.82C204.153 9.24 204.783 9.828 205.239 10.584C205.695 11.34 205.923 12.198 205.923 13.158C205.923 14.118 205.695 14.976 205.239 15.732C204.783 16.488 204.153 17.082 203.349 17.514C202.545 17.934 201.633 18.144 200.613 18.144ZM200.613 15.84C201.333 15.84 201.921 15.6 202.377 15.12C202.845 14.628 203.079 13.974 203.079 13.158C203.079 12.342 202.845 11.694 202.377 11.214C201.921 10.722 201.333 10.476 200.613 10.476C199.893 10.476 199.299 10.722 198.831 11.214C198.363 11.694 198.129 12.342 198.129 13.158C198.129 13.974 198.363 14.628 198.831 15.12C199.299 15.6 199.893 15.84 200.613 15.84ZM212.462 18.144C211.43 18.144 210.5 17.934 209.672 17.514C208.856 17.082 208.214 16.488 207.746 15.732C207.29 14.976 207.062 14.118 207.062 13.158C207.062 12.198 207.29 11.34 207.746 10.584C208.214 9.828 208.856 9.24 209.672 8.82C210.5 8.388 211.43 8.172 212.462 8.172C213.482 8.172 214.37 8.388 215.126 8.82C215.894 9.24 216.452 9.846 216.8 10.638L214.622 11.808C214.118 10.92 213.392 10.476 212.444 10.476C211.712 10.476 211.106 10.716 210.626 11.196C210.146 11.676 209.906 12.33 209.906 13.158C209.906 13.986 210.146 14.64 210.626 15.12C211.106 15.6 211.712 15.84 212.444 15.84C213.404 15.84 214.13 15.396 214.622 14.508L216.8 15.696C216.452 16.464 215.894 17.064 215.126 17.496C214.37 17.928 213.482 18.144 212.462 18.144ZM226.607 10.62H223.331V18H220.541V10.62H217.265V8.316H226.607V10.62ZM233.342 11.412C234.602 11.424 235.568 11.712 236.24 12.276C236.912 12.828 237.248 13.614 237.248 14.634C237.248 15.702 236.87 16.536 236.114 17.136C235.37 17.724 234.32 18.018 232.964 18.018L228.104 18V8.316H230.894V11.412H233.342ZM232.712 16.02C233.252 16.032 233.666 15.918 233.954 15.678C234.242 15.438 234.386 15.078 234.386 14.598C234.386 14.13 234.242 13.788 233.954 13.572C233.678 13.356 233.264 13.242 232.712 13.23L230.894 13.212V16.02H232.712ZM69.942 43.688H67.898V48H66.526V38.2H67.898V42.456H69.97L73.05 38.2H74.548L71.048 42.946L74.716 48H73.12L69.942 43.688ZM79.0093 48.084C78.272 48.084 77.6093 47.9207 77.0213 47.594C76.4333 47.2673 75.9713 46.8193 75.6353 46.25C75.3086 45.6713 75.1453 45.018 75.1453 44.29C75.1453 43.562 75.3086 42.9133 75.6353 42.344C75.9713 41.7653 76.4333 41.3173 77.0213 41C77.6093 40.6733 78.272 40.51 79.0093 40.51C79.7466 40.51 80.4046 40.6733 80.9833 41C81.5713 41.3173 82.0286 41.7653 82.3553 42.344C82.6913 42.9133 82.8593 43.562 82.8593 44.29C82.8593 45.018 82.6913 45.6713 82.3553 46.25C82.0286 46.8193 81.5713 47.2673 80.9833 47.594C80.4046 47.9207 79.7466 48.084 79.0093 48.084ZM79.0093 46.908C79.4853 46.908 79.91 46.8007 80.2833 46.586C80.666 46.362 80.9646 46.054 81.1793 45.662C81.394 45.2607 81.5013 44.8033 81.5013 44.29C81.5013 43.7767 81.394 43.324 81.1793 42.932C80.9646 42.5307 80.666 42.2227 80.2833 42.008C79.91 41.7933 79.4853 41.686 79.0093 41.686C78.5333 41.686 78.104 41.7933 77.7213 42.008C77.348 42.2227 77.0493 42.5307 76.8253 42.932C76.6106 43.324 76.5033 43.7767 76.5033 44.29C76.5033 44.8033 76.6106 45.2607 76.8253 45.662C77.0493 46.054 77.348 46.362 77.7213 46.586C78.104 46.8007 78.5333 46.908 79.0093 46.908ZM88.734 40.51C89.4527 40.51 90.0967 40.6687 90.666 40.986C91.2354 41.3033 91.6787 41.7467 91.996 42.316C92.3227 42.8853 92.486 43.5433 92.486 44.29C92.486 45.0367 92.3227 45.6993 91.996 46.278C91.6787 46.8473 91.2354 47.2907 90.666 47.608C90.0967 47.9253 89.4527 48.084 88.734 48.084C88.202 48.084 87.712 47.9813 87.264 47.776C86.8254 47.5707 86.452 47.272 86.144 46.88V50.716H84.8V40.58H86.088V41.756C86.3867 41.3453 86.7647 41.0373 87.222 40.832C87.6794 40.6173 88.1834 40.51 88.734 40.51ZM88.622 46.908C89.098 46.908 89.5227 46.8007 89.896 46.586C90.2787 46.362 90.5774 46.054 90.792 45.662C91.016 45.2607 91.128 44.8033 91.128 44.29C91.128 43.7767 91.016 43.324 90.792 42.932C90.5774 42.5307 90.2787 42.2227 89.896 42.008C89.5227 41.7933 89.098 41.686 88.622 41.686C88.1554 41.686 87.7307 41.798 87.348 42.022C86.9747 42.2367 86.676 42.54 86.452 42.932C86.2374 43.324 86.13 43.7767 86.13 44.29C86.13 44.8033 86.2374 45.2607 86.452 45.662C86.6667 46.054 86.9654 46.362 87.348 46.586C87.7307 46.8007 88.1554 46.908 88.622 46.908ZM97.6167 48.084C96.8794 48.084 96.2167 47.9207 95.6287 47.594C95.0407 47.2673 94.5787 46.8193 94.2427 46.25C93.9161 45.6713 93.7527 45.018 93.7527 44.29C93.7527 43.562 93.9161 42.9133 94.2427 42.344C94.5787 41.7653 95.0407 41.3173 95.6287 41C96.2167 40.6733 96.8794 40.51 97.6167 40.51C98.3541 40.51 99.0121 40.6733 99.5907 41C100.179 41.3173 100.636 41.7653 100.963 42.344C101.299 42.9133 101.467 43.562 101.467 44.29C101.467 45.018 101.299 45.6713 100.963 46.25C100.636 46.8193 100.179 47.2673 99.5907 47.594C99.0121 47.9207 98.3541 48.084 97.6167 48.084ZM97.6167 46.908C98.0927 46.908 98.5174 46.8007 98.8907 46.586C99.2734 46.362 99.5721 46.054 99.7867 45.662C100.001 45.2607 100.109 44.8033 100.109 44.29C100.109 43.7767 100.001 43.324 99.7867 42.932C99.5721 42.5307 99.2734 42.2227 98.8907 42.008C98.5174 41.7933 98.0927 41.686 97.6167 41.686C97.1407 41.686 96.7114 41.7933 96.3287 42.008C95.9554 42.2227 95.6567 42.5307 95.4327 42.932C95.2181 43.324 95.1107 43.7767 95.1107 44.29C95.1107 44.8033 95.2181 45.2607 95.4327 45.662C95.6567 46.054 95.9554 46.362 96.3287 46.586C96.7114 46.8007 97.1407 46.908 97.6167 46.908ZM108.664 41.756H105.948V48H104.604V41.756H101.888V40.58H108.664V41.756ZM112.922 44.864H111.382V48H110.038V40.58H111.382V43.716H112.95L115.358 40.58H116.8L113.986 44.15L116.996 48H115.414L112.922 44.864ZM118.406 40.58H119.75V45.984L124.3 40.58H125.518V48H124.174V42.596L119.638 48H118.406V40.58ZM128.126 40.58H129.47V45.984L134.02 40.58H135.238V48H133.894V42.596L129.358 48H128.126V40.58ZM131.598 39.614C130.908 39.614 130.371 39.4507 129.988 39.124C129.606 38.788 129.41 38.3073 129.4 37.682H130.31C130.32 38.0273 130.436 38.3073 130.66 38.522C130.894 38.7273 131.202 38.83 131.584 38.83C131.967 38.83 132.275 38.7273 132.508 38.522C132.742 38.3073 132.863 38.0273 132.872 37.682H133.81C133.801 38.3073 133.6 38.788 133.208 39.124C132.816 39.4507 132.28 39.614 131.598 39.614ZM144.841 48.084C144.085 48.084 143.408 47.9207 142.811 47.594C142.223 47.2673 141.761 46.8193 141.425 46.25C141.089 45.6713 140.921 45.018 140.921 44.29C140.921 43.562 141.089 42.9133 141.425 42.344C141.761 41.7653 142.223 41.3173 142.811 41C143.408 40.6733 144.085 40.51 144.841 40.51C145.513 40.51 146.11 40.6453 146.633 40.916C147.165 41.1867 147.575 41.5787 147.865 42.092L146.843 42.75C146.609 42.3953 146.32 42.1293 145.975 41.952C145.629 41.7747 145.247 41.686 144.827 41.686C144.341 41.686 143.903 41.7933 143.511 42.008C143.128 42.2227 142.825 42.5307 142.601 42.932C142.386 43.324 142.279 43.7767 142.279 44.29C142.279 44.8127 142.386 45.2747 142.601 45.676C142.825 46.068 143.128 46.3713 143.511 46.586C143.903 46.8007 144.341 46.908 144.827 46.908C145.247 46.908 145.629 46.8193 145.975 46.642C146.32 46.4647 146.609 46.1987 146.843 45.844L147.865 46.488C147.575 47.0013 147.165 47.398 146.633 47.678C146.11 47.9487 145.513 48.084 144.841 48.084ZM153.539 40.51C154.257 40.51 154.901 40.6687 155.471 40.986C156.04 41.3033 156.483 41.7467 156.801 42.316C157.127 42.8853 157.291 43.5433 157.291 44.29C157.291 45.0367 157.127 45.6993 156.801 46.278C156.483 46.8473 156.04 47.2907 155.471 47.608C154.901 47.9253 154.257 48.084 153.539 48.084C153.007 48.084 152.517 47.9813 152.069 47.776C151.63 47.5707 151.257 47.272 150.949 46.88V50.716H149.605V40.58H150.893V41.756C151.191 41.3453 151.569 41.0373 152.027 40.832C152.484 40.6173 152.988 40.51 153.539 40.51ZM153.427 46.908C153.903 46.908 154.327 46.8007 154.701 46.586C155.083 46.362 155.382 46.054 155.597 45.662C155.821 45.2607 155.933 44.8033 155.933 44.29C155.933 43.7767 155.821 43.324 155.597 42.932C155.382 42.5307 155.083 42.2227 154.701 42.008C154.327 41.7933 153.903 41.686 153.427 41.686C152.96 41.686 152.535 41.798 152.153 42.022C151.779 42.2367 151.481 42.54 151.257 42.932C151.042 43.324 150.935 43.7767 150.935 44.29C150.935 44.8033 151.042 45.2607 151.257 45.662C151.471 46.054 151.77 46.362 152.153 46.586C152.535 46.8007 152.96 46.908 153.427 46.908ZM162.421 48.084C161.684 48.084 161.021 47.9207 160.433 47.594C159.845 47.2673 159.383 46.8193 159.047 46.25C158.721 45.6713 158.557 45.018 158.557 44.29C158.557 43.562 158.721 42.9133 159.047 42.344C159.383 41.7653 159.845 41.3173 160.433 41C161.021 40.6733 161.684 40.51 162.421 40.51C163.159 40.51 163.817 40.6733 164.395 41C164.983 41.3173 165.441 41.7653 165.767 42.344C166.103 42.9133 166.271 43.562 166.271 44.29C166.271 45.018 166.103 45.6713 165.767 46.25C165.441 46.8193 164.983 47.2673 164.395 47.594C163.817 47.9207 163.159 48.084 162.421 48.084ZM162.421 46.908C162.897 46.908 163.322 46.8007 163.695 46.586C164.078 46.362 164.377 46.054 164.591 45.662C164.806 45.2607 164.913 44.8033 164.913 44.29C164.913 43.7767 164.806 43.324 164.591 42.932C164.377 42.5307 164.078 42.2227 163.695 42.008C163.322 41.7933 162.897 41.686 162.421 41.686C161.945 41.686 161.516 41.7933 161.133 42.008C160.76 42.2227 160.461 42.5307 160.237 42.932C160.023 43.324 159.915 43.7767 159.915 44.29C159.915 44.8033 160.023 45.2607 160.237 45.662C160.461 46.054 160.76 46.362 161.133 46.586C161.516 46.8007 161.945 46.908 162.421 46.908ZM171.096 44.864H169.556V48H168.212V40.58H169.556V43.716H171.124L173.532 40.58H174.974L172.16 44.15L175.17 48H173.588L171.096 44.864ZM183.573 48.084C182.817 48.084 182.14 47.9207 181.543 47.594C180.955 47.2673 180.493 46.8193 180.157 46.25C179.821 45.6713 179.653 45.018 179.653 44.29C179.653 43.562 179.821 42.9133 180.157 42.344C180.493 41.7653 180.955 41.3173 181.543 41C182.14 40.6733 182.817 40.51 183.573 40.51C184.245 40.51 184.842 40.6453 185.365 40.916C185.897 41.1867 186.308 41.5787 186.597 42.092L185.575 42.75C185.342 42.3953 185.052 42.1293 184.707 41.952C184.362 41.7747 183.979 41.686 183.559 41.686C183.074 41.686 182.635 41.7933 182.243 42.008C181.86 42.2227 181.557 42.5307 181.333 42.932C181.118 43.324 181.011 43.7767 181.011 44.29C181.011 44.8127 181.118 45.2747 181.333 45.676C181.557 46.068 181.86 46.3713 182.243 46.586C182.635 46.8007 183.074 46.908 183.559 46.908C183.979 46.908 184.362 46.8193 184.707 46.642C185.052 46.4647 185.342 46.1987 185.575 45.844L186.597 46.488C186.308 47.0013 185.897 47.398 185.365 47.678C184.842 47.9487 184.245 48.084 183.573 48.084ZM194.488 40.58V48H193.144V41.756H189.952L189.868 43.408C189.822 44.4067 189.733 45.242 189.602 45.914C189.472 46.5767 189.257 47.1087 188.958 47.51C188.66 47.9113 188.244 48.112 187.712 48.112C187.47 48.112 187.194 48.07 186.886 47.986L186.97 46.852C187.092 46.88 187.204 46.894 187.306 46.894C187.68 46.894 187.96 46.7307 188.146 46.404C188.333 46.0773 188.454 45.69 188.51 45.242C188.566 44.794 188.618 44.1547 188.664 43.324L188.79 40.58H194.488ZM203.709 40.58L200.111 48.742C199.794 49.498 199.42 50.03 198.991 50.338C198.571 50.646 198.062 50.8 197.465 50.8C197.101 50.8 196.746 50.7393 196.401 50.618C196.065 50.506 195.785 50.338 195.561 50.114L196.135 49.106C196.518 49.47 196.961 49.652 197.465 49.652C197.792 49.652 198.062 49.5633 198.277 49.386C198.501 49.218 198.702 48.924 198.879 48.504L199.117 47.986L195.841 40.58H197.241L199.831 46.516L202.393 40.58H203.709ZM211.409 44.864H209.967V48H208.623V44.864H207.181L205.137 48H203.541L206.089 44.164L203.737 40.58H205.165L207.167 43.716H208.623V40.58H209.967V43.716H211.423L213.425 40.58H214.867L212.515 44.178L215.063 48H213.467L211.409 44.864ZM220.213 40.832C220.904 40.832 221.52 40.986 222.061 41.294C222.602 41.602 223.022 42.0313 223.321 42.582C223.629 43.1233 223.783 43.744 223.783 44.444C223.783 45.1627 223.62 45.802 223.293 46.362C222.976 46.9127 222.523 47.342 221.935 47.65C221.356 47.958 220.694 48.112 219.947 48.112C218.687 48.112 217.712 47.6827 217.021 46.824C216.34 45.956 215.999 44.738 215.999 43.17C215.999 41.6487 216.312 40.4587 216.937 39.6C217.562 38.732 218.519 38.158 219.807 37.878L223.195 37.122L223.391 38.354L220.269 39.026C219.298 39.2407 218.575 39.6047 218.099 40.118C217.623 40.6313 217.352 41.3687 217.287 42.33C217.604 41.854 218.015 41.4853 218.519 41.224C219.023 40.9627 219.588 40.832 220.213 40.832ZM219.975 46.992C220.451 46.992 220.871 46.8847 221.235 46.67C221.608 46.4553 221.898 46.1613 222.103 45.788C222.308 45.4053 222.411 44.9713 222.411 44.486C222.411 43.7487 222.187 43.156 221.739 42.708C221.291 42.26 220.703 42.036 219.975 42.036C219.247 42.036 218.654 42.26 218.197 42.708C217.749 43.156 217.525 43.7487 217.525 44.486C217.525 44.9713 217.628 45.4053 217.833 45.788C218.048 46.1613 218.342 46.4553 218.715 46.67C219.088 46.8847 219.508 46.992 219.975 46.992ZM229.048 43.1C229.982 43.1093 230.696 43.324 231.19 43.744C231.685 44.164 231.932 44.7567 231.932 45.522C231.932 46.3247 231.662 46.9453 231.12 47.384C230.588 47.8133 229.823 48.0233 228.824 48.014L225.702 48V40.58H227.046V43.086L229.048 43.1ZM233.038 40.58H234.382V48H233.038V40.58ZM228.726 46.992C229.333 47.0013 229.79 46.88 230.098 46.628C230.416 46.376 230.574 46.0027 230.574 45.508C230.574 45.0227 230.42 44.668 230.112 44.444C229.804 44.22 229.342 44.1033 228.726 44.094L227.046 44.066V46.978L228.726 46.992Z" fill="#FF1D1D"/>
<circle cx="18" cy="18" r="16.5" stroke="#FF1D1D" stroke-width="3"/>
<path d="M28.5 5.5L6 28" stroke="#FF1D1D" stroke-width="3"/>
<defs>
<clipPath id="clip0">
<rect width="36" height="36" fill="white" transform="translate(0 1)"/>
</clipPath>
</defs>
</svg>
