<svg width="302" height="68" viewBox="0 0 302 68" fill="none" xmlns="http://www.w3.org/2000/svg">
<g clip-path="url(#clip0)">
<path d="M30.5993 12.2997L28.7722 9.863L29.1371 6.83956C29.1767 6.50827 28.9931 6.19076 28.6866 6.06003L25.8862 4.86364L24.6897 2.06263C24.5591 1.75616 24.2416 1.57262 23.9108 1.61277L20.8863 1.97697L18.4507 0.149998C18.1836 -0.0499992 17.8167 -0.0499992 17.5498 0.149998L15.1141 1.97697L12.0895 1.61277C11.7588 1.57318 11.4413 1.75616 11.3106 2.06263L10.1142 4.86364L7.31371 6.06003C7.00717 6.19076 6.8237 6.50827 6.86329 6.83956L7.22806 9.863L5.39988 12.2997C5.19996 12.5661 5.19996 12.9331 5.39988 13.1995L7.22806 15.6363L6.86329 18.6596C6.8237 18.9903 7.00717 19.3074 7.31371 19.4392L10.1142 20.6355L11.3106 23.4361C11.4413 23.7425 11.7588 23.926 12.0895 23.8864L12.7498 23.8073V35.2497C12.7498 35.5266 12.9024 35.7802 13.1464 35.911C13.3903 36.0417 13.6858 36.0274 13.9166 35.8747L18.0002 33.1512L22.0838 35.8747C22.2102 35.9582 22.3552 35.9999 22.5002 35.9999C22.6211 35.9999 22.7429 35.9703 22.8539 35.9109C23.0978 35.7802 23.2506 35.5264 23.2506 35.2496V23.8074L23.9108 23.8865C24.2416 23.9261 24.5591 23.7425 24.6897 23.4361L25.8862 20.6356L28.6866 19.4393C28.9931 19.3086 29.1767 18.9904 29.1371 18.6597L28.7722 15.6363L30.5993 13.1996C30.8003 12.9331 30.8003 12.5661 30.5993 12.2997ZM14.9998 23.579V33.348L14.2505 33.8489V23.6261L15.002 23.535C15.002 23.5504 14.9998 23.5636 14.9998 23.579ZM19.4999 32.3482L18.4166 31.6252C18.1638 31.4584 17.8365 31.4584 17.5838 31.6252L16.5006 32.3482V24.5622L17.5498 25.3499C17.6838 25.4488 17.842 25.4993 18.0002 25.4993C18.1583 25.4993 18.3166 25.4488 18.4507 25.3499L19.4999 24.5611V32.3482ZM21.7498 33.8489L21.0005 33.348V23.579C21.0005 23.5636 20.9983 23.5504 20.9983 23.535L21.7498 23.6261V33.8489ZM27.3924 14.9771C27.276 15.1315 27.2243 15.3249 27.2474 15.5166L27.5803 18.2808L25.0204 19.3745C24.8424 19.4503 24.7006 19.5921 24.625 19.7688L23.5318 22.3298L20.7675 21.9969C20.5754 21.9738 20.382 22.0255 20.227 22.142L18.0001 23.8119L15.7721 22.142C15.6424 22.0431 15.4843 21.9914 15.3227 21.9914C15.293 21.9914 15.2634 21.9926 15.2326 21.9969L12.4685 22.3298L11.3753 19.7688C11.2995 19.592 11.1578 19.4503 10.9798 19.3745L8.42002 18.2808L8.75293 15.5166C8.77599 15.3249 8.72437 15.1315 8.60792 14.9771L6.93798 12.7497L8.60792 10.5221C8.72437 10.3678 8.77599 10.1745 8.75293 9.98268L8.42002 7.21852L10.9798 6.1248C11.1578 6.04899 11.2995 5.90722 11.3753 5.72987L12.4685 3.1695L15.2326 3.50234C15.4249 3.5254 15.6183 3.47379 15.7732 3.35789L18.0001 1.68739L20.227 3.35789C20.3819 3.47371 20.5753 3.5254 20.7664 3.50234L23.5317 3.1695L24.6249 5.72987C24.7006 5.90722 24.8423 6.04899 25.0203 6.1248L27.5802 7.21852L27.2473 9.98268C27.2242 10.1745 27.2758 10.3678 27.3924 10.5221L29.0622 12.7497L27.3924 14.9771Z" fill="#212F3C"/>
<path d="M18.0002 11.9998C16.7598 11.9998 15.7501 13.0089 15.7501 14.2498C15.7501 15.4901 16.7597 16.4992 18.0002 16.4992C19.2406 16.4992 20.2502 15.4901 20.2502 14.2498C20.2502 13.0088 19.2406 11.9998 18.0002 11.9998ZM18.0002 14.9996C17.5871 14.9996 17.2498 14.6629 17.2498 14.2498C17.2498 13.8362 17.5871 13.4994 18.0002 13.4994C18.4133 13.4994 18.7504 13.8362 18.7504 14.2498C18.7505 14.6629 18.4133 14.9996 18.0002 14.9996Z" fill="#212F3C"/>
<path d="M18.0001 9.74988C17.5859 9.74988 17.2498 10.0855 17.2498 10.4997C17.2498 10.9139 17.586 11.2495 18.0001 11.2495C18.4143 11.2495 18.7504 10.9139 18.7504 10.4997C18.7504 10.0855 18.4143 9.74988 18.0001 9.74988Z" fill="#212F3C"/>
<path d="M16.4093 10.8485C16.116 10.5551 15.6414 10.5551 15.3481 10.8485C15.0558 11.1412 15.0558 11.6158 15.3481 11.9086C15.6414 12.202 16.116 12.202 16.4093 11.9086C16.7016 11.6158 16.7016 11.1412 16.4093 10.8485Z" fill="#212F3C"/>
<path d="M20.6523 10.8485C20.359 10.5551 19.8843 10.5551 19.5911 10.8485C19.2988 11.1412 19.2988 11.6158 19.5911 11.9086C19.8843 12.202 20.359 12.202 20.6523 11.9086C20.9445 11.6158 20.9445 11.1412 20.6523 10.8485Z" fill="#212F3C"/>
<path d="M25.4995 11.9999H24.7084C24.6315 11.3122 24.4514 10.6552 24.1844 10.0454L24.8699 9.64935C25.2292 9.44225 25.3523 8.98354 25.1446 8.6249C24.938 8.26618 24.4789 8.14312 24.1206 8.35029L23.4318 8.7474C23.0297 8.20247 22.5475 7.7202 22.0025 7.31753L22.3991 6.62978C22.6068 6.27107 22.4837 5.81243 22.1245 5.60533C21.7662 5.39823 21.3071 5.52073 21.1005 5.87937L20.7038 6.56607C20.0941 6.298 19.4383 6.1184 18.7505 6.04147V5.24985C18.7505 4.83565 18.4144 4.5 18.0002 4.5C17.586 4.5 17.2499 4.83565 17.2499 5.24985V6.04139C16.5632 6.11833 15.9062 6.29793 15.2965 6.566L14.8999 5.8793C14.6922 5.52059 14.2342 5.39809 13.8749 5.60526C13.5167 5.81236 13.3937 6.27107 13.6013 6.62971L13.9979 7.31803C13.453 7.72013 12.9707 8.2024 12.5686 8.74733L11.8798 8.35022C11.5216 8.14312 11.0624 8.26618 10.8559 8.62483C10.6482 8.98354 10.7713 9.44218 11.1305 9.64928L11.816 10.0453C11.5491 10.6551 11.3689 11.3121 11.292 11.9998H10.4999C10.0857 11.9998 9.75061 12.3355 9.75061 12.7497C9.75061 13.1639 10.0857 13.4994 10.4999 13.4994H11.292C11.3689 14.1872 11.5491 14.8436 11.816 15.4539L11.1305 15.85C10.7713 16.0571 10.6482 16.5158 10.8559 16.8745C10.9943 17.1151 11.247 17.2496 11.5063 17.2496C11.6326 17.2496 11.7623 17.2172 11.8798 17.1491L12.5687 16.7514C12.9708 17.2963 13.4531 17.7792 13.998 18.1813L13.6003 18.8695C13.3937 19.2283 13.5168 19.6874 13.875 19.894C13.9937 19.9621 14.1222 19.9951 14.2496 19.9951C14.5089 19.9951 14.7605 19.8611 14.9 19.6194L15.2956 18.9332C15.9064 19.2019 16.5623 19.381 17.2501 19.4568V20.25C17.2501 20.663 17.5863 20.9992 18.0004 20.9992C18.4146 20.9992 18.7507 20.663 18.7507 20.25V19.4568C19.4385 19.381 20.0943 19.2019 20.704 18.9332L21.1007 19.6194C21.2392 19.8611 21.4919 19.9951 21.7511 19.9951C21.8785 19.9951 22.0071 19.9621 22.1257 19.894C22.484 19.6874 22.607 19.2282 22.3994 18.8695L22.0027 18.1813C22.5477 17.7792 23.0299 17.2963 23.432 16.752L24.1208 17.1491C24.2384 17.2172 24.3681 17.2496 24.4945 17.2496C24.7537 17.2496 25.0063 17.1151 25.1448 16.8745C25.3525 16.5157 25.2294 16.0571 24.8701 15.85L24.1846 15.4539C24.4516 14.8442 24.6317 14.1872 24.7086 13.4994H25.4997C25.9149 13.4994 26.2501 13.1639 26.2501 12.7497C26.2501 12.3355 25.9147 11.9999 25.4995 11.9999ZM18.0001 17.9995C15.1052 17.9995 12.7497 15.6446 12.7497 12.7497C12.7497 9.85483 15.1052 7.49988 18.0001 7.49988C20.895 7.49988 23.2505 9.85483 23.2505 12.7497C23.2505 15.6446 20.895 17.9995 18.0001 17.9995Z" fill="#212F3C"/>
</g>
<circle cx="18" cy="18" r="16.5" stroke="#FF1D1D" stroke-width="3"/>
<path d="M28.5 5.5L6 28" stroke="#FF1D1D" stroke-width="3"/>
<path d="M78.05 4.4V17H75.152V6.776H69.464V17H66.566V4.4H78.05ZM90.2454 7.316V17H87.4374V9.62H84.3774L84.2874 11.33C84.2394 12.602 84.1194 13.658 83.9274 14.498C83.7354 15.338 83.4234 15.998 82.9914 16.478C82.5594 16.958 81.9594 17.198 81.1914 17.198C80.7834 17.198 80.2974 17.126 79.7334 16.982L79.8774 14.678C80.0694 14.702 80.2074 14.714 80.2914 14.714C80.7114 14.714 81.0234 14.564 81.2274 14.264C81.4434 13.952 81.5874 13.562 81.6594 13.094C81.7314 12.614 81.7854 11.984 81.8214 11.204L81.9654 7.316H90.2454ZM97.4817 17.144C96.4617 17.144 95.5437 16.934 94.7277 16.514C93.9237 16.082 93.2937 15.488 92.8377 14.732C92.3817 13.976 92.1537 13.118 92.1537 12.158C92.1537 11.198 92.3817 10.34 92.8377 9.584C93.2937 8.828 93.9237 8.24 94.7277 7.82C95.5437 7.388 96.4617 7.172 97.4817 7.172C98.5017 7.172 99.4137 7.388 100.218 7.82C101.022 8.24 101.652 8.828 102.108 9.584C102.564 10.34 102.792 11.198 102.792 12.158C102.792 13.118 102.564 13.976 102.108 14.732C101.652 15.488 101.022 16.082 100.218 16.514C99.4137 16.934 98.5017 17.144 97.4817 17.144ZM97.4817 14.84C98.2017 14.84 98.7897 14.6 99.2457 14.12C99.7137 13.628 99.9477 12.974 99.9477 12.158C99.9477 11.342 99.7137 10.694 99.2457 10.214C98.7897 9.722 98.2017 9.476 97.4817 9.476C96.7617 9.476 96.1677 9.722 95.6997 10.214C95.2317 10.694 94.9977 11.342 94.9977 12.158C94.9977 12.974 95.2317 13.628 95.6997 14.12C96.1677 14.6 96.7617 14.84 97.4817 14.84ZM110.508 17L108.384 14.03L106.188 17H103.128L106.854 12.122L103.254 7.316H106.404L108.456 10.142L110.562 7.316H113.55L109.95 12.05L113.694 17H110.508ZM119.314 17.144C118.294 17.144 117.376 16.934 116.56 16.514C115.756 16.082 115.126 15.488 114.67 14.732C114.214 13.976 113.986 13.118 113.986 12.158C113.986 11.198 114.214 10.34 114.67 9.584C115.126 8.828 115.756 8.24 116.56 7.82C117.376 7.388 118.294 7.172 119.314 7.172C120.334 7.172 121.246 7.388 122.05 7.82C122.854 8.24 123.484 8.828 123.94 9.584C124.396 10.34 124.624 11.198 124.624 12.158C124.624 13.118 124.396 13.976 123.94 14.732C123.484 15.488 122.854 16.082 122.05 16.514C121.246 16.934 120.334 17.144 119.314 17.144ZM119.314 14.84C120.034 14.84 120.622 14.6 121.078 14.12C121.546 13.628 121.78 12.974 121.78 12.158C121.78 11.342 121.546 10.694 121.078 10.214C120.622 9.722 120.034 9.476 119.314 9.476C118.594 9.476 118 9.722 117.532 10.214C117.064 10.694 116.83 11.342 116.83 12.158C116.83 12.974 117.064 13.628 117.532 14.12C118 14.6 118.594 14.84 119.314 14.84ZM135.969 12.194C135.969 12.23 135.951 12.482 135.915 12.95H128.589C128.721 13.55 129.033 14.024 129.525 14.372C130.017 14.72 130.629 14.894 131.361 14.894C131.865 14.894 132.309 14.822 132.693 14.678C133.089 14.522 133.455 14.282 133.791 13.958L135.285 15.578C134.373 16.622 133.041 17.144 131.289 17.144C130.197 17.144 129.231 16.934 128.391 16.514C127.551 16.082 126.903 15.488 126.447 14.732C125.991 13.976 125.763 13.118 125.763 12.158C125.763 11.21 125.985 10.358 126.429 9.602C126.885 8.834 127.503 8.24 128.283 7.82C129.075 7.388 129.957 7.172 130.929 7.172C131.877 7.172 132.735 7.376 133.503 7.784C134.271 8.192 134.871 8.78 135.303 9.548C135.747 10.304 135.969 11.186 135.969 12.194ZM130.947 9.296C130.311 9.296 129.777 9.476 129.345 9.836C128.913 10.196 128.649 10.688 128.553 11.312H133.323C133.227 10.7 132.963 10.214 132.531 9.854C132.099 9.482 131.571 9.296 130.947 9.296ZM147.485 13.328H146.027V17H143.219V7.316H146.027V11.078H147.539L150.167 7.316H153.155L149.771 11.96L153.389 17H150.077L147.485 13.328ZM158.354 7.172C159.854 7.172 161.006 7.532 161.81 8.252C162.614 8.96 163.016 10.034 163.016 11.474V17H160.388V15.794C159.86 16.694 158.876 17.144 157.436 17.144C156.692 17.144 156.044 17.018 155.492 16.766C154.952 16.514 154.538 16.166 154.25 15.722C153.962 15.278 153.818 14.774 153.818 14.21C153.818 13.31 154.154 12.602 154.826 12.086C155.51 11.57 156.56 11.312 157.976 11.312H160.208C160.208 10.7 160.022 10.232 159.65 9.908C159.278 9.572 158.72 9.404 157.976 9.404C157.46 9.404 156.95 9.488 156.446 9.656C155.954 9.812 155.534 10.028 155.186 10.304L154.178 8.342C154.706 7.97 155.336 7.682 156.068 7.478C156.812 7.274 157.574 7.172 158.354 7.172ZM158.138 15.254C158.618 15.254 159.044 15.146 159.416 14.93C159.788 14.702 160.052 14.372 160.208 13.94V12.95H158.282C157.13 12.95 156.554 13.328 156.554 14.084C156.554 14.444 156.692 14.732 156.968 14.948C157.256 15.152 157.646 15.254 158.138 15.254ZM174.167 7.316V17H171.359V13.4C170.543 13.808 169.643 14.012 168.659 14.012C167.351 14.012 166.361 13.718 165.689 13.13C165.029 12.53 164.699 11.606 164.699 10.358V7.316H167.507V10.178C167.507 10.766 167.657 11.192 167.957 11.456C168.269 11.72 168.713 11.852 169.289 11.852C170.021 11.852 170.711 11.696 171.359 11.384V7.316H174.167ZM186.278 12.194C186.278 12.23 186.26 12.482 186.224 12.95H178.898C179.03 13.55 179.342 14.024 179.834 14.372C180.326 14.72 180.938 14.894 181.67 14.894C182.174 14.894 182.618 14.822 183.002 14.678C183.398 14.522 183.764 14.282 184.1 13.958L185.594 15.578C184.682 16.622 183.35 17.144 181.598 17.144C180.506 17.144 179.54 16.934 178.7 16.514C177.86 16.082 177.212 15.488 176.756 14.732C176.3 13.976 176.072 13.118 176.072 12.158C176.072 11.21 176.294 10.358 176.738 9.602C177.194 8.834 177.812 8.24 178.592 7.82C179.384 7.388 180.266 7.172 181.238 7.172C182.186 7.172 183.044 7.376 183.812 7.784C184.58 8.192 185.18 8.78 185.612 9.548C186.056 10.304 186.278 11.186 186.278 12.194ZM181.256 9.296C180.62 9.296 180.086 9.476 179.654 9.836C179.222 10.196 178.958 10.688 178.862 11.312H183.632C183.536 10.7 183.272 10.214 182.84 9.854C182.408 9.482 181.88 9.296 181.256 9.296ZM193.038 17.144C192.006 17.144 191.076 16.934 190.248 16.514C189.432 16.082 188.79 15.488 188.322 14.732C187.866 13.976 187.638 13.118 187.638 12.158C187.638 11.198 187.866 10.34 188.322 9.584C188.79 8.828 189.432 8.24 190.248 7.82C191.076 7.388 192.006 7.172 193.038 7.172C194.058 7.172 194.946 7.388 195.702 7.82C196.47 8.24 197.028 8.846 197.376 9.638L195.198 10.808C194.694 9.92 193.968 9.476 193.02 9.476C192.288 9.476 191.682 9.716 191.202 10.196C190.722 10.676 190.482 11.33 190.482 12.158C190.482 12.986 190.722 13.64 191.202 14.12C191.682 14.6 192.288 14.84 193.02 14.84C193.98 14.84 194.706 14.396 195.198 13.508L197.376 14.696C197.028 15.464 196.47 16.064 195.702 16.496C194.946 16.928 194.058 17.144 193.038 17.144ZM207.183 9.62H203.907V17H201.117V9.62H197.841V7.316H207.183V9.62ZM216.078 11.942C217.218 12.326 217.788 13.094 217.788 14.246C217.788 15.122 217.458 15.8 216.798 16.28C216.138 16.76 215.154 17 213.846 17H208.68V7.316H213.63C214.842 7.316 215.79 7.538 216.474 7.982C217.158 8.414 217.5 9.026 217.5 9.818C217.5 10.298 217.374 10.724 217.122 11.096C216.882 11.456 216.534 11.738 216.078 11.942ZM211.254 11.294H213.378C214.362 11.294 214.854 10.946 214.854 10.25C214.854 9.566 214.362 9.224 213.378 9.224H211.254V11.294ZM213.612 15.092C214.644 15.092 215.16 14.738 215.16 14.03C215.16 13.658 215.04 13.388 214.8 13.22C214.56 13.04 214.182 12.95 213.666 12.95H211.254V15.092H213.612ZM224.413 17.144C223.393 17.144 222.475 16.934 221.659 16.514C220.855 16.082 220.225 15.488 219.769 14.732C219.313 13.976 219.085 13.118 219.085 12.158C219.085 11.198 219.313 10.34 219.769 9.584C220.225 8.828 220.855 8.24 221.659 7.82C222.475 7.388 223.393 7.172 224.413 7.172C225.433 7.172 226.345 7.388 227.149 7.82C227.953 8.24 228.583 8.828 229.039 9.584C229.495 10.34 229.723 11.198 229.723 12.158C229.723 13.118 229.495 13.976 229.039 14.732C228.583 15.488 227.953 16.082 227.149 16.514C226.345 16.934 225.433 17.144 224.413 17.144ZM224.413 14.84C225.133 14.84 225.721 14.6 226.177 14.12C226.645 13.628 226.879 12.974 226.879 12.158C226.879 11.342 226.645 10.694 226.177 10.214C225.721 9.722 225.133 9.476 224.413 9.476C223.693 9.476 223.099 9.722 222.631 10.214C222.163 10.694 221.929 11.342 221.929 12.158C221.929 12.974 222.163 13.628 222.631 14.12C223.099 14.6 223.693 14.84 224.413 14.84ZM74.954 37.2V47H73.554V42.632H67.926V47H66.526V37.2H67.926V41.414H73.554V37.2H74.954ZM77.7864 39.58H79.1304V44.984L83.6804 39.58H84.8984V47H83.5544V41.596L79.0184 47H77.7864V39.58ZM91.402 43.136C91.8967 43.2667 92.2794 43.4767 92.55 43.766C92.8207 44.0553 92.956 44.4147 92.956 44.844C92.956 45.2827 92.8067 45.6747 92.508 46.02C92.2094 46.356 91.794 46.622 91.262 46.818C90.7394 47.0047 90.1514 47.098 89.498 47.098C88.9474 47.098 88.406 47.028 87.874 46.888C87.3514 46.7387 86.8847 46.5287 86.474 46.258L86.88 45.236C87.2347 45.46 87.6407 45.6373 88.098 45.768C88.5554 45.8893 89.0174 45.95 89.484 45.95C90.1187 45.95 90.6227 45.8427 90.996 45.628C91.3787 45.404 91.57 45.1053 91.57 44.732C91.57 44.3867 91.416 44.1207 91.108 43.934C90.8094 43.7473 90.3847 43.654 89.834 43.654H88.476V42.688H89.736C90.24 42.688 90.6367 42.5993 90.926 42.422C91.2154 42.2447 91.36 42.002 91.36 41.694C91.36 41.358 91.1874 41.0967 90.842 40.91C90.506 40.7233 90.0487 40.63 89.47 40.63C88.7327 40.63 87.9534 40.8213 87.132 41.204L86.768 40.168C87.6734 39.7107 88.6207 39.482 89.61 39.482C90.2074 39.482 90.744 39.566 91.22 39.734C91.696 39.902 92.0694 40.14 92.34 40.448C92.6107 40.756 92.746 41.106 92.746 41.498C92.746 41.862 92.6247 42.1887 92.382 42.478C92.1394 42.7673 91.8127 42.9867 91.402 43.136ZM97.8833 43.864H96.3433V47H94.9993V39.58H96.3433V42.716H97.9113L100.319 39.58H101.761L98.9473 43.15L101.957 47H100.375L97.8833 43.864ZM106.298 47.084C105.561 47.084 104.898 46.9207 104.31 46.594C103.722 46.2673 103.26 45.8193 102.924 45.25C102.598 44.6713 102.434 44.018 102.434 43.29C102.434 42.562 102.598 41.9133 102.924 41.344C103.26 40.7653 103.722 40.3173 104.31 40C104.898 39.6733 105.561 39.51 106.298 39.51C107.036 39.51 107.694 39.6733 108.272 40C108.86 40.3173 109.318 40.7653 109.644 41.344C109.98 41.9133 110.148 42.562 110.148 43.29C110.148 44.018 109.98 44.6713 109.644 45.25C109.318 45.8193 108.86 46.2673 108.272 46.594C107.694 46.9207 107.036 47.084 106.298 47.084ZM106.298 45.908C106.774 45.908 107.199 45.8007 107.572 45.586C107.955 45.362 108.254 45.054 108.468 44.662C108.683 44.2607 108.79 43.8033 108.79 43.29C108.79 42.7767 108.683 42.324 108.468 41.932C108.254 41.5307 107.955 41.2227 107.572 41.008C107.199 40.7933 106.774 40.686 106.298 40.686C105.822 40.686 105.393 40.7933 105.01 41.008C104.637 41.2227 104.338 41.5307 104.114 41.932C103.9 42.324 103.792 42.7767 103.792 43.29C103.792 43.8033 103.9 44.2607 104.114 44.662C104.338 45.054 104.637 45.362 105.01 45.586C105.393 45.8007 105.822 45.908 106.298 45.908ZM114.973 43.864H113.433V47H112.089V39.58H113.433V42.716H115.001L117.409 39.58H118.851L116.037 43.15L119.047 47H117.465L114.973 43.864ZM122.966 39.51C123.992 39.51 124.776 39.762 125.318 40.266C125.868 40.77 126.144 41.5213 126.144 42.52V47H124.87V46.02C124.646 46.3653 124.324 46.6313 123.904 46.818C123.493 46.9953 123.003 47.084 122.434 47.084C121.603 47.084 120.936 46.8833 120.432 46.482C119.937 46.0807 119.69 45.5533 119.69 44.9C119.69 44.2467 119.928 43.724 120.404 43.332C120.88 42.9307 121.636 42.73 122.672 42.73H124.8V42.464C124.8 41.8853 124.632 41.442 124.296 41.134C123.96 40.826 123.465 40.672 122.812 40.672C122.373 40.672 121.944 40.7467 121.524 40.896C121.104 41.036 120.749 41.2273 120.46 41.47L119.9 40.462C120.282 40.154 120.74 39.9207 121.272 39.762C121.804 39.594 122.368 39.51 122.966 39.51ZM122.658 46.048C123.171 46.048 123.614 45.936 123.988 45.712C124.361 45.4787 124.632 45.152 124.8 44.732V43.696H122.728C121.589 43.696 121.02 44.0787 121.02 44.844C121.02 45.2173 121.164 45.5113 121.454 45.726C121.743 45.9407 122.144 46.048 122.658 46.048ZM134.486 39.58V47H133.142V44.004C132.339 44.3773 131.541 44.564 130.748 44.564C129.824 44.564 129.11 44.3493 128.606 43.92C128.102 43.4907 127.85 42.8467 127.85 41.988V39.58H129.194V41.904C129.194 42.4173 129.352 42.8047 129.67 43.066C129.996 43.3273 130.449 43.458 131.028 43.458C131.681 43.458 132.386 43.2947 133.142 42.968V39.58H134.486ZM143.801 43.332C143.801 43.4347 143.792 43.57 143.773 43.738H137.753C137.837 44.3913 138.122 44.9187 138.607 45.32C139.102 45.712 139.713 45.908 140.441 45.908C141.328 45.908 142.042 45.6093 142.583 45.012L143.325 45.88C142.989 46.272 142.569 46.5707 142.065 46.776C141.57 46.9813 141.015 47.084 140.399 47.084C139.615 47.084 138.92 46.9253 138.313 46.608C137.706 46.2813 137.235 45.8287 136.899 45.25C136.572 44.6713 136.409 44.018 136.409 43.29C136.409 42.5713 136.568 41.9227 136.885 41.344C137.212 40.7653 137.655 40.3173 138.215 40C138.784 39.6733 139.424 39.51 140.133 39.51C140.842 39.51 141.472 39.6733 142.023 40C142.583 40.3173 143.017 40.7653 143.325 41.344C143.642 41.9227 143.801 42.5853 143.801 43.332ZM140.133 40.644C139.489 40.644 138.948 40.84 138.509 41.232C138.08 41.624 137.828 42.1373 137.753 42.772H142.513C142.438 42.1467 142.182 41.638 141.743 41.246C141.314 40.8447 140.777 40.644 140.133 40.644ZM149.12 47.084C148.364 47.084 147.687 46.9207 147.09 46.594C146.502 46.2673 146.04 45.8193 145.704 45.25C145.368 44.6713 145.2 44.018 145.2 43.29C145.2 42.562 145.368 41.9133 145.704 41.344C146.04 40.7653 146.502 40.3173 147.09 40C147.687 39.6733 148.364 39.51 149.12 39.51C149.792 39.51 150.389 39.6453 150.912 39.916C151.444 40.1867 151.855 40.5787 152.144 41.092L151.122 41.75C150.889 41.3953 150.599 41.1293 150.254 40.952C149.909 40.7747 149.526 40.686 149.106 40.686C148.621 40.686 148.182 40.7933 147.79 41.008C147.407 41.2227 147.104 41.5307 146.88 41.932C146.665 42.324 146.558 42.7767 146.558 43.29C146.558 43.8127 146.665 44.2747 146.88 44.676C147.104 45.068 147.407 45.3713 147.79 45.586C148.182 45.8007 148.621 45.908 149.106 45.908C149.526 45.908 149.909 45.8193 150.254 45.642C150.599 45.4647 150.889 45.1987 151.122 44.844L152.144 45.488C151.855 46.0013 151.444 46.398 150.912 46.678C150.389 46.9487 149.792 47.084 149.12 47.084ZM159.318 40.756H156.602V47H155.258V40.756H152.542V39.58H159.318V40.756ZM165.747 43.15C166.708 43.3927 167.189 43.9947 167.189 44.956C167.189 45.6093 166.941 46.1133 166.447 46.468C165.961 46.8227 165.233 47 164.263 47H160.693V39.58H164.137C165.014 39.58 165.7 39.748 166.195 40.084C166.689 40.4107 166.937 40.8773 166.937 41.484C166.937 41.876 166.829 42.2167 166.615 42.506C166.409 42.786 166.12 43.0007 165.747 43.15ZM162.009 42.772H164.025C164.538 42.772 164.925 42.6787 165.187 42.492C165.457 42.3053 165.593 42.0347 165.593 41.68C165.593 40.9707 165.07 40.616 164.025 40.616H162.009V42.772ZM164.165 45.964C164.725 45.964 165.145 45.8753 165.425 45.698C165.705 45.5207 165.845 45.2453 165.845 44.872C165.845 44.4893 165.714 44.2047 165.453 44.018C165.201 43.8313 164.799 43.738 164.249 43.738H162.009V45.964H164.165ZM175.998 43.332C175.998 43.4347 175.989 43.57 175.97 43.738H169.95C170.034 44.3913 170.319 44.9187 170.804 45.32C171.299 45.712 171.91 45.908 172.638 45.908C173.525 45.908 174.239 45.6093 174.78 45.012L175.522 45.88C175.186 46.272 174.766 46.5707 174.262 46.776C173.768 46.9813 173.212 47.084 172.596 47.084C171.812 47.084 171.117 46.9253 170.51 46.608C169.904 46.2813 169.432 45.8287 169.096 45.25C168.77 44.6713 168.606 44.018 168.606 43.29C168.606 42.5713 168.765 41.9227 169.082 41.344C169.409 40.7653 169.852 40.3173 170.412 40C170.982 39.6733 171.621 39.51 172.33 39.51C173.04 39.51 173.67 39.6733 174.22 40C174.78 40.3173 175.214 40.7653 175.522 41.344C175.84 41.9227 175.998 42.5853 175.998 43.332ZM172.33 40.644C171.686 40.644 171.145 40.84 170.706 41.232C170.277 41.624 170.025 42.1373 169.95 42.772H174.71C174.636 42.1467 174.379 41.638 173.94 41.246C173.511 40.8447 172.974 40.644 172.33 40.644ZM178.083 39.58H179.427V42.73H183.655V39.58H184.999V47H183.655V43.892H179.427V47H178.083V39.58ZM187.613 39.58H188.957V42.73H193.185V39.58H194.529V47H193.185V43.892H188.957V47H187.613V39.58ZM200.488 42.1C201.421 42.1093 202.135 42.324 202.63 42.744C203.125 43.164 203.372 43.7567 203.372 44.522C203.372 45.3247 203.101 45.9453 202.56 46.384C202.028 46.8133 201.263 47.0233 200.264 47.014L197.142 47V39.58H198.486V42.086L200.488 42.1ZM204.478 39.58H205.822V47H204.478V39.58ZM200.166 45.992C200.773 46.0013 201.23 45.88 201.538 45.628C201.855 45.376 202.014 45.0027 202.014 44.508C202.014 44.0227 201.86 43.668 201.552 43.444C201.244 43.22 200.782 43.1033 200.166 43.094L198.486 43.066V45.978L200.166 45.992ZM215.141 43.332C215.141 43.4347 215.131 43.57 215.113 43.738H209.093C209.177 44.3913 209.461 44.9187 209.947 45.32C210.441 45.712 211.053 45.908 211.781 45.908C212.667 45.908 213.381 45.6093 213.923 45.012L214.665 45.88C214.329 46.272 213.909 46.5707 213.405 46.776C212.91 46.9813 212.355 47.084 211.739 47.084C210.955 47.084 210.259 46.9253 209.653 46.608C209.046 46.2813 208.575 45.8287 208.239 45.25C207.912 44.6713 207.749 44.018 207.749 43.29C207.749 42.5713 207.907 41.9227 208.225 41.344C208.551 40.7653 208.995 40.3173 209.555 40C210.124 39.6733 210.763 39.51 211.473 39.51C212.182 39.51 212.812 39.6733 213.363 40C213.923 40.3173 214.357 40.7653 214.665 41.344C214.982 41.9227 215.141 42.5853 215.141 43.332ZM211.473 40.644C210.829 40.644 210.287 40.84 209.849 41.232C209.419 41.624 209.167 42.1373 209.093 42.772H213.853C213.778 42.1467 213.521 41.638 213.083 41.246C212.653 40.8447 212.117 40.644 211.473 40.644ZM74.856 57.58V65H73.638V59.582L70.866 64.16H70.278L67.534 59.568V65H66.302V57.58H67.688L70.6 62.592L73.596 57.58H74.856ZM80.1179 57.51C81.1446 57.51 81.9286 57.762 82.4699 58.266C83.0206 58.77 83.2959 59.5213 83.2959 60.52V65H82.0219V64.02C81.7979 64.3653 81.4759 64.6313 81.0559 64.818C80.6453 64.9953 80.1553 65.084 79.5859 65.084C78.7553 65.084 78.0879 64.8833 77.5839 64.482C77.0893 64.0807 76.8419 63.5533 76.8419 62.9C76.8419 62.2467 77.0799 61.724 77.5559 61.332C78.0319 60.9307 78.7879 60.73 79.8239 60.73H81.9519V60.464C81.9519 59.8853 81.7839 59.442 81.4479 59.134C81.1119 58.826 80.6173 58.672 79.9639 58.672C79.5253 58.672 79.0959 58.7467 78.6759 58.896C78.2559 59.036 77.9013 59.2273 77.6119 59.47L77.0519 58.462C77.4346 58.154 77.8919 57.9207 78.4239 57.762C78.9559 57.594 79.5206 57.51 80.1179 57.51ZM79.8099 64.048C80.3233 64.048 80.7666 63.936 81.1399 63.712C81.5133 63.4787 81.7839 63.152 81.9519 62.732V61.696H79.8799C78.7413 61.696 78.1719 62.0787 78.1719 62.844C78.1719 63.2173 78.3166 63.5113 78.6059 63.726C78.8953 63.9407 79.2966 64.048 79.8099 64.048ZM91.2461 58.756H88.5301V65H87.1861V58.756H84.4701V57.58H91.2461V58.756ZM98.9982 61.332C98.9982 61.4347 98.9889 61.57 98.9702 61.738H92.9502C93.0342 62.3913 93.3189 62.9187 93.8042 63.32C94.2989 63.712 94.9102 63.908 95.6382 63.908C96.5249 63.908 97.2389 63.6093 97.7802 63.012L98.5222 63.88C98.1862 64.272 97.7662 64.5707 97.2622 64.776C96.7676 64.9813 96.2122 65.084 95.5962 65.084C94.8122 65.084 94.1169 64.9253 93.5102 64.608C92.9036 64.2813 92.4322 63.8287 92.0962 63.25C91.7696 62.6713 91.6062 62.018 91.6062 61.29C91.6062 60.5713 91.7649 59.9227 92.0822 59.344C92.4089 58.7653 92.8522 58.3173 93.4122 58C93.9816 57.6733 94.6209 57.51 95.3302 57.51C96.0396 57.51 96.6696 57.6733 97.2202 58C97.7802 58.3173 98.2142 58.7653 98.5222 59.344C98.8396 59.9227 98.9982 60.5853 98.9982 61.332ZM95.3302 58.644C94.6862 58.644 94.1449 58.84 93.7062 59.232C93.2769 59.624 93.0249 60.1373 92.9502 60.772H97.7102C97.6356 60.1467 97.3789 59.638 96.9402 59.246C96.5109 58.8447 95.9742 58.644 95.3302 58.644ZM105.017 57.51C105.736 57.51 106.38 57.6687 106.949 57.986C107.519 58.3033 107.962 58.7467 108.279 59.316C108.606 59.8853 108.769 60.5433 108.769 61.29C108.769 62.0367 108.606 62.6993 108.279 63.278C107.962 63.8473 107.519 64.2907 106.949 64.608C106.38 64.9253 105.736 65.084 105.017 65.084C104.485 65.084 103.995 64.9813 103.547 64.776C103.109 64.5707 102.735 64.272 102.427 63.88V67.716H101.083V57.58H102.371V58.756C102.67 58.3453 103.048 58.0373 103.505 57.832C103.963 57.6173 104.467 57.51 105.017 57.51ZM104.905 63.908C105.381 63.908 105.806 63.8007 106.179 63.586C106.562 63.362 106.861 63.054 107.075 62.662C107.299 62.2607 107.411 61.8033 107.411 61.29C107.411 60.7767 107.299 60.324 107.075 59.932C106.861 59.5307 106.562 59.2227 106.179 59.008C105.806 58.7933 105.381 58.686 104.905 58.686C104.439 58.686 104.014 58.798 103.631 59.022C103.258 59.2367 102.959 59.54 102.735 59.932C102.521 60.324 102.413 60.7767 102.413 61.29C102.413 61.8033 102.521 62.2607 102.735 62.662C102.95 63.054 103.249 63.362 103.631 63.586C104.014 63.8007 104.439 63.908 104.905 63.908ZM110.722 57.58H112.066V62.984L116.616 57.58H117.834V65H116.49V59.596L111.954 65H110.722V57.58ZM123.089 57.51C124.115 57.51 124.899 57.762 125.441 58.266C125.991 58.77 126.267 59.5213 126.267 60.52V65H124.993V64.02C124.769 64.3653 124.447 64.6313 124.027 64.818C123.616 64.9953 123.126 65.084 122.557 65.084C121.726 65.084 121.059 64.8833 120.555 64.482C120.06 64.0807 119.813 63.5533 119.813 62.9C119.813 62.2467 120.051 61.724 120.527 61.332C121.003 60.9307 121.759 60.73 122.795 60.73H124.923V60.464C124.923 59.8853 124.755 59.442 124.419 59.134C124.083 58.826 123.588 58.672 122.935 58.672C122.496 58.672 122.067 58.7467 121.647 58.896C121.227 59.036 120.872 59.2273 120.583 59.47L120.023 58.462C120.405 58.154 120.863 57.9207 121.395 57.762C121.927 57.594 122.491 57.51 123.089 57.51ZM122.781 64.048C123.294 64.048 123.737 63.936 124.111 63.712C124.484 63.4787 124.755 63.152 124.923 62.732V61.696H122.851C121.712 61.696 121.143 62.0787 121.143 62.844C121.143 63.2173 121.287 63.5113 121.577 63.726C121.866 63.9407 122.267 64.048 122.781 64.048ZM135.057 57.58V65H133.713V58.756H130.521L130.437 60.408C130.39 61.4067 130.301 62.242 130.171 62.914C130.04 63.5767 129.825 64.1087 129.527 64.51C129.228 64.9113 128.813 65.112 128.281 65.112C128.038 65.112 127.763 65.07 127.455 64.986L127.539 63.852C127.66 63.88 127.772 63.894 127.875 63.894C128.248 63.894 128.528 63.7307 128.715 63.404C128.901 63.0773 129.023 62.69 129.079 62.242C129.135 61.794 129.186 61.1547 129.233 60.324L129.359 57.58H135.057ZM141.002 60.1C141.935 60.1093 142.649 60.324 143.144 60.744C143.638 61.164 143.886 61.7567 143.886 62.522C143.886 63.3247 143.615 63.9453 143.074 64.384C142.542 64.8133 141.776 65.0233 140.778 65.014L137.656 65V57.58H139V60.086L141.002 60.1ZM144.992 57.58H146.336V65H144.992V57.58ZM140.68 63.992C141.286 64.0013 141.744 63.88 142.052 63.628C142.369 63.376 142.528 63.0027 142.528 62.508C142.528 62.0227 142.374 61.668 142.066 61.444C141.758 61.22 141.296 61.1033 140.68 61.094L139 61.066V63.978L140.68 63.992Z" fill="#FF1D1D"/>
<defs>
<clipPath id="clip0">
<rect width="36" height="36" fill="white"/>
</clipPath>
</defs>
</svg>
