<svg width="287" height="67" viewBox="0 0 287 67" fill="none" xmlns="http://www.w3.org/2000/svg">
<path d="M79.05 4.4V17H76.152V6.776H70.464V17H67.566V4.4H79.05ZM87.6634 7.172C88.5634 7.172 89.3794 7.382 90.1114 7.802C90.8554 8.21 91.4374 8.792 91.8574 9.548C92.2774 10.292 92.4874 11.162 92.4874 12.158C92.4874 13.154 92.2774 14.03 91.8574 14.786C91.4374 15.53 90.8554 16.112 90.1114 16.532C89.3794 16.94 88.5634 17.144 87.6634 17.144C86.4274 17.144 85.4554 16.754 84.7474 15.974V20.492H81.9394V7.316H84.6214V8.432C85.3174 7.592 86.3314 7.172 87.6634 7.172ZM87.1774 14.84C87.8974 14.84 88.4854 14.6 88.9414 14.12C89.4094 13.628 89.6434 12.974 89.6434 12.158C89.6434 11.342 89.4094 10.694 88.9414 10.214C88.4854 9.722 87.8974 9.476 87.1774 9.476C86.4574 9.476 85.8634 9.722 85.3954 10.214C84.9394 10.694 84.7114 11.342 84.7114 12.158C84.7114 12.974 84.9394 13.628 85.3954 14.12C85.8634 14.6 86.4574 14.84 87.1774 14.84ZM94.4555 7.316H97.2455V13.076L101.961 7.316H104.535V17H101.745V11.24L97.0475 17H94.4555V7.316ZM116.685 17V11.204L113.787 16.064H112.599L109.773 11.186V17H107.235V7.316H110.169L113.265 12.914L116.559 7.316H119.187L119.223 17H116.685ZM121.913 7.316H124.703V13.076L129.419 7.316H131.993V17H129.203V11.24L124.505 17H121.913V7.316ZM142.828 9.62H139.552V17H136.762V9.62H133.486V7.316H142.828V9.62ZM144.325 7.316H147.115V13.076L151.831 7.316H154.405V17H151.615V11.24L146.917 17H144.325V7.316ZM164.502 11.942C165.642 12.326 166.212 13.094 166.212 14.246C166.212 15.122 165.882 15.8 165.222 16.28C164.562 16.76 163.578 17 162.27 17H157.104V7.316H162.054C163.266 7.316 164.214 7.538 164.898 7.982C165.582 8.414 165.924 9.026 165.924 9.818C165.924 10.298 165.798 10.724 165.546 11.096C165.306 11.456 164.958 11.738 164.502 11.942ZM159.678 11.294H161.802C162.786 11.294 163.278 10.946 163.278 10.25C163.278 9.566 162.786 9.224 161.802 9.224H159.678V11.294ZM162.036 15.092C163.068 15.092 163.584 14.738 163.584 14.03C163.584 13.658 163.464 13.388 163.224 13.22C162.984 13.04 162.606 12.95 162.09 12.95H159.678V15.092H162.036ZM168.301 7.316H171.091V11.096H175.303V7.316H178.111V17H175.303V13.382H171.091V17H168.301V7.316ZM185.893 10.412C187.153 10.424 188.107 10.706 188.755 11.258C189.403 11.81 189.727 12.602 189.727 13.634C189.727 14.714 189.361 15.548 188.629 16.136C187.897 16.724 186.859 17.018 185.515 17.018L180.799 17V7.316H183.589V10.412H185.893ZM190.771 7.316H193.561V17H190.771V7.316ZM185.263 15.02C185.803 15.032 186.217 14.918 186.505 14.678C186.793 14.438 186.937 14.078 186.937 13.598C186.937 13.13 186.793 12.788 186.505 12.572C186.229 12.356 185.815 12.242 185.263 12.23L183.589 12.212V15.02H185.263ZM196.268 7.316H199.058V13.076L203.774 7.316H206.348V17H203.558V11.24L198.86 17H196.268V7.316ZM201.128 6.272C199.016 6.272 197.954 5.342 197.942 3.482H199.778C199.79 3.902 199.904 4.232 200.12 4.472C200.348 4.7 200.678 4.814 201.11 4.814C201.542 4.814 201.872 4.7 202.1 4.472C202.34 4.232 202.46 3.902 202.46 3.482H204.332C204.32 5.342 203.252 6.272 201.128 6.272ZM224.999 14.696V19.088H222.389V17H215.585V19.088H212.975V14.696H213.371C213.971 14.684 214.385 14.33 214.613 13.634C214.841 12.938 214.985 11.948 215.045 10.664L215.171 7.316H223.613V14.696H224.999ZM217.583 10.862C217.547 11.846 217.469 12.65 217.349 13.274C217.241 13.898 217.031 14.372 216.719 14.696H220.805V9.62H217.637L217.583 10.862ZM226.766 7.316H229.556V13.076L234.272 7.316H236.846V17H234.056V11.24L229.358 17H226.766V7.316ZM245.739 11.96C246.315 12.14 246.759 12.416 247.071 12.788C247.395 13.16 247.557 13.604 247.557 14.12C247.557 14.732 247.347 15.272 246.927 15.74C246.507 16.196 245.931 16.55 245.199 16.802C244.467 17.054 243.639 17.18 242.715 17.18C241.959 17.18 241.215 17.102 240.483 16.946C239.751 16.79 239.073 16.556 238.449 16.244L239.205 14.282C240.225 14.774 241.353 15.02 242.589 15.02C243.249 15.02 243.765 14.924 244.137 14.732C244.521 14.528 244.713 14.246 244.713 13.886C244.713 13.574 244.581 13.34 244.317 13.184C244.053 13.016 243.669 12.932 243.165 12.932H241.185V11.186H242.913C243.405 11.186 243.783 11.108 244.047 10.952C244.311 10.796 244.443 10.568 244.443 10.268C244.443 9.956 244.275 9.716 243.939 9.548C243.615 9.38 243.147 9.296 242.535 9.296C241.599 9.296 240.579 9.518 239.475 9.962L238.791 8.018C240.135 7.43 241.443 7.136 242.715 7.136C243.591 7.136 244.371 7.244 245.055 7.46C245.751 7.676 246.297 7.994 246.693 8.414C247.089 8.822 247.287 9.302 247.287 9.854C247.287 10.31 247.149 10.724 246.873 11.096C246.597 11.456 246.219 11.744 245.739 11.96ZM253.362 7.172C254.862 7.172 256.014 7.532 256.818 8.252C257.622 8.96 258.024 10.034 258.024 11.474V17H255.396V15.794C254.868 16.694 253.884 17.144 252.444 17.144C251.7 17.144 251.052 17.018 250.5 16.766C249.96 16.514 249.546 16.166 249.258 15.722C248.97 15.278 248.826 14.774 248.826 14.21C248.826 13.31 249.162 12.602 249.834 12.086C250.518 11.57 251.568 11.312 252.984 11.312H255.216C255.216 10.7 255.03 10.232 254.658 9.908C254.286 9.572 253.728 9.404 252.984 9.404C252.468 9.404 251.958 9.488 251.454 9.656C250.962 9.812 250.542 10.028 250.194 10.304L249.186 8.342C249.714 7.97 250.344 7.682 251.076 7.478C251.82 7.274 252.582 7.172 253.362 7.172ZM253.146 15.254C253.626 15.254 254.052 15.146 254.424 14.93C254.796 14.702 255.06 14.372 255.216 13.94V12.95H253.29C252.138 12.95 251.562 13.328 251.562 14.084C251.562 14.444 251.7 14.732 251.976 14.948C252.264 15.152 252.654 15.254 253.146 15.254ZM260.463 7.316H263.253V13.076L267.969 7.316H270.543V17H267.753V11.24L263.055 17H260.463V7.316ZM265.323 6.272C263.211 6.272 262.149 5.342 262.137 3.482H263.973C263.985 3.902 264.099 4.232 264.315 4.472C264.543 4.7 264.873 4.814 265.305 4.814C265.737 4.814 266.067 4.7 266.295 4.472C266.535 4.232 266.655 3.902 266.655 3.482H268.527C268.515 5.342 267.447 6.272 265.323 6.272ZM273.243 7.316H276.033V11.096H280.245V7.316H283.053V17H280.245V13.382H276.033V17H273.243V7.316ZM72.216 41.89C72.832 42.058 73.3127 42.352 73.658 42.772C74.0033 43.1827 74.176 43.6773 74.176 44.256C74.176 44.8347 73.9893 45.3433 73.616 45.782C73.252 46.2113 72.762 46.5427 72.146 46.776C71.5393 47 70.8767 47.112 70.158 47.112C69.5047 47.112 68.856 47.014 68.212 46.818C67.568 46.622 66.98 46.328 66.448 45.936L66.938 44.9C67.3673 45.236 67.848 45.488 68.38 45.656C68.912 45.824 69.4487 45.908 69.99 45.908C70.774 45.908 71.432 45.7447 71.964 45.418C72.496 45.082 72.762 44.6247 72.762 44.046C72.762 43.5513 72.5613 43.1733 72.16 42.912C71.7587 42.6413 71.194 42.506 70.466 42.506H68.282V41.372H70.368C70.9933 41.372 71.4787 41.246 71.824 40.994C72.1787 40.7327 72.356 40.3733 72.356 39.916C72.356 39.4027 72.1273 38.9967 71.67 38.698C71.2127 38.3993 70.634 38.25 69.934 38.25C69.4767 38.25 69.01 38.3153 68.534 38.446C68.0673 38.5767 67.624 38.7727 67.204 39.034L66.756 37.886C67.2507 37.606 67.7733 37.396 68.324 37.256C68.8747 37.116 69.4253 37.046 69.976 37.046C70.6667 37.046 71.3013 37.1533 71.88 37.368C72.4587 37.5827 72.916 37.8953 73.252 38.306C73.5973 38.7167 73.77 39.1973 73.77 39.748C73.77 40.2427 73.63 40.6767 73.35 41.05C73.0793 41.4233 72.7013 41.7033 72.216 41.89ZM78.9304 39.51C79.9571 39.51 80.7411 39.762 81.2824 40.266C81.8331 40.77 82.1084 41.5213 82.1084 42.52V47H80.8344V46.02C80.6104 46.3653 80.2884 46.6313 79.8684 46.818C79.4578 46.9953 78.9678 47.084 78.3984 47.084C77.5678 47.084 76.9004 46.8833 76.3964 46.482C75.9018 46.0807 75.6544 45.5533 75.6544 44.9C75.6544 44.2467 75.8924 43.724 76.3684 43.332C76.8444 42.9307 77.6004 42.73 78.6364 42.73H80.7644V42.464C80.7644 41.8853 80.5964 41.442 80.2604 41.134C79.9244 40.826 79.4298 40.672 78.7764 40.672C78.3378 40.672 77.9084 40.7467 77.4884 40.896C77.0684 41.036 76.7138 41.2273 76.4244 41.47L75.8644 40.462C76.2471 40.154 76.7044 39.9207 77.2364 39.762C77.7684 39.594 78.3331 39.51 78.9304 39.51ZM78.6224 46.048C79.1358 46.048 79.5791 45.936 79.9524 45.712C80.3258 45.4787 80.5964 45.152 80.7644 44.732V43.696H78.6924C77.5538 43.696 76.9844 44.0787 76.9844 44.844C76.9844 45.2173 77.1291 45.5113 77.4184 45.726C77.7078 45.9407 78.1091 46.048 78.6224 46.048ZM90.4506 39.58V47H89.1066V44.004C88.3039 44.3773 87.5059 44.564 86.7126 44.564C85.7886 44.564 85.0746 44.3493 84.5706 43.92C84.0666 43.4907 83.8146 42.8467 83.8146 41.988V39.58H85.1586V41.904C85.1586 42.4173 85.3172 42.8047 85.6346 43.066C85.9612 43.3273 86.4139 43.458 86.9926 43.458C87.6459 43.458 88.3506 43.2947 89.1066 42.968V39.58H90.4506ZM95.7058 39.51C96.7325 39.51 97.5165 39.762 98.0578 40.266C98.6085 40.77 98.8838 41.5213 98.8838 42.52V47H97.6098V46.02C97.3858 46.3653 97.0638 46.6313 96.6438 46.818C96.2331 46.9953 95.7431 47.084 95.1738 47.084C94.3431 47.084 93.6758 46.8833 93.1718 46.482C92.6771 46.0807 92.4298 45.5533 92.4298 44.9C92.4298 44.2467 92.6678 43.724 93.1438 43.332C93.6198 42.9307 94.3758 42.73 95.4118 42.73H97.5398V42.464C97.5398 41.8853 97.3718 41.442 97.0358 41.134C96.6998 40.826 96.2051 40.672 95.5518 40.672C95.1131 40.672 94.6838 40.7467 94.2638 40.896C93.8438 41.036 93.4891 41.2273 93.1998 41.47L92.6398 40.462C93.0225 40.154 93.4798 39.9207 94.0118 39.762C94.5438 39.594 95.1085 39.51 95.7058 39.51ZM95.3978 46.048C95.9111 46.048 96.3545 45.936 96.7278 45.712C97.1011 45.4787 97.3718 45.152 97.5398 44.732V43.696H95.4678C94.3291 43.696 93.7598 44.0787 93.7598 44.844C93.7598 45.2173 93.9045 45.5113 94.1938 45.726C94.4831 45.9407 94.8845 46.048 95.3978 46.048ZM104.538 47.084C103.782 47.084 103.105 46.9207 102.508 46.594C101.92 46.2673 101.458 45.8193 101.122 45.25C100.786 44.6713 100.618 44.018 100.618 43.29C100.618 42.562 100.786 41.9133 101.122 41.344C101.458 40.7653 101.92 40.3173 102.508 40C103.105 39.6733 103.782 39.51 104.538 39.51C105.21 39.51 105.807 39.6453 106.33 39.916C106.862 40.1867 107.273 40.5787 107.562 41.092L106.54 41.75C106.307 41.3953 106.017 41.1293 105.672 40.952C105.327 40.7747 104.944 40.686 104.524 40.686C104.039 40.686 103.6 40.7933 103.208 41.008C102.825 41.2227 102.522 41.5307 102.298 41.932C102.083 42.324 101.976 42.7767 101.976 43.29C101.976 43.8127 102.083 44.2747 102.298 44.676C102.522 45.068 102.825 45.3713 103.208 45.586C103.6 45.8007 104.039 45.908 104.524 45.908C104.944 45.908 105.327 45.8193 105.672 45.642C106.017 45.4647 106.307 45.1987 106.54 44.844L107.562 45.488C107.273 46.0013 106.862 46.398 106.33 46.678C105.807 46.9487 105.21 47.084 104.538 47.084ZM114.736 40.756H112.02V47H110.676V40.756H107.96V39.58H114.736V40.756ZM122.774 39.58L119.176 47.742C118.858 48.498 118.485 49.03 118.056 49.338C117.636 49.646 117.127 49.8 116.53 49.8C116.166 49.8 115.811 49.7393 115.466 49.618C115.13 49.506 114.85 49.338 114.626 49.114L115.2 48.106C115.582 48.47 116.026 48.652 116.53 48.652C116.856 48.652 117.127 48.5633 117.342 48.386C117.566 48.218 117.766 47.924 117.944 47.504L118.182 46.986L114.906 39.58H116.306L118.896 45.516L121.458 39.58H122.774ZM130.716 39.51C131.434 39.51 132.078 39.6733 132.648 40C133.217 40.3173 133.665 40.7653 133.992 41.344C134.318 41.9133 134.482 42.562 134.482 43.29C134.482 44.018 134.318 44.6713 133.992 45.25C133.665 45.8193 133.217 46.2673 132.648 46.594C132.078 46.9207 131.434 47.084 130.716 47.084C130.062 47.084 129.47 46.9487 128.938 46.678C128.406 46.4073 127.967 46.0293 127.622 45.544C127.286 45.0493 127.076 44.4893 126.992 43.864H125.494V47H124.15V39.58H125.494V42.618H127.006C127.099 42.002 127.314 41.4607 127.65 40.994C127.995 40.518 128.429 40.154 128.952 39.902C129.484 39.6407 130.072 39.51 130.716 39.51ZM130.716 45.908C131.173 45.908 131.584 45.8007 131.948 45.586C132.321 45.3713 132.615 45.068 132.83 44.676C133.044 44.2747 133.152 43.8127 133.152 43.29C133.152 42.7767 133.044 42.324 132.83 41.932C132.615 41.5307 132.321 41.2227 131.948 41.008C131.584 40.7933 131.173 40.686 130.716 40.686C130.258 40.686 129.843 40.7933 129.47 41.008C129.096 41.2227 128.802 41.5307 128.588 41.932C128.382 42.324 128.28 42.7767 128.28 43.29C128.28 43.8127 128.382 44.2747 128.588 44.676C128.802 45.068 129.096 45.3713 129.47 45.586C129.843 45.8007 130.258 45.908 130.716 45.908ZM146.795 39.58L143.197 47.742C142.88 48.498 142.506 49.03 142.077 49.338C141.657 49.646 141.148 49.8 140.551 49.8C140.187 49.8 139.832 49.7393 139.487 49.618C139.151 49.506 138.871 49.338 138.647 49.114L139.221 48.106C139.604 48.47 140.047 48.652 140.551 48.652C140.878 48.652 141.148 48.5633 141.363 48.386C141.587 48.218 141.788 47.924 141.965 47.504L142.203 46.986L138.927 39.58H140.327L142.917 45.516L145.479 39.58H146.795ZM151.2 47.084C150.444 47.084 149.767 46.9207 149.17 46.594C148.582 46.2673 148.12 45.8193 147.784 45.25C147.448 44.6713 147.28 44.018 147.28 43.29C147.28 42.562 147.448 41.9133 147.784 41.344C148.12 40.7653 148.582 40.3173 149.17 40C149.767 39.6733 150.444 39.51 151.2 39.51C151.872 39.51 152.469 39.6453 152.992 39.916C153.524 40.1867 153.935 40.5787 154.224 41.092L153.202 41.75C152.969 41.3953 152.679 41.1293 152.334 40.952C151.989 40.7747 151.606 40.686 151.186 40.686C150.701 40.686 150.262 40.7933 149.87 41.008C149.487 41.2227 149.184 41.5307 148.96 41.932C148.745 42.324 148.638 42.7767 148.638 43.29C148.638 43.8127 148.745 44.2747 148.96 44.676C149.184 45.068 149.487 45.3713 149.87 45.586C150.262 45.8007 150.701 45.908 151.186 45.908C151.606 45.908 151.989 45.8193 152.334 45.642C152.679 45.4647 152.969 45.1987 153.202 44.844L154.224 45.488C153.935 46.0013 153.524 46.398 152.992 46.678C152.469 46.9487 151.872 47.084 151.2 47.084ZM161.398 40.756H158.682V47H157.338V40.756H154.622V39.58H161.398V40.756ZM165.419 39.51C166.445 39.51 167.229 39.762 167.771 40.266C168.321 40.77 168.597 41.5213 168.597 42.52V47H167.323V46.02C167.099 46.3653 166.777 46.6313 166.357 46.818C165.946 46.9953 165.456 47.084 164.887 47.084C164.056 47.084 163.389 46.8833 162.885 46.482C162.39 46.0807 162.143 45.5533 162.143 44.9C162.143 44.2467 162.381 43.724 162.857 43.332C163.333 42.9307 164.089 42.73 165.125 42.73H167.253V42.464C167.253 41.8853 167.085 41.442 166.749 41.134C166.413 40.826 165.918 40.672 165.265 40.672C164.826 40.672 164.397 40.7467 163.977 40.896C163.557 41.036 163.202 41.2273 162.913 41.47L162.353 40.462C162.735 40.154 163.193 39.9207 163.725 39.762C164.257 39.594 164.821 39.51 165.419 39.51ZM165.111 46.048C165.624 46.048 166.067 45.936 166.441 45.712C166.814 45.4787 167.085 45.152 167.253 44.732V43.696H165.181C164.042 43.696 163.473 44.0787 163.473 44.844C163.473 45.2173 163.617 45.5113 163.907 45.726C164.196 45.9407 164.597 46.048 165.111 46.048ZM174.951 39.51C175.67 39.51 176.314 39.6687 176.883 39.986C177.452 40.3033 177.896 40.7467 178.213 41.316C178.54 41.8853 178.703 42.5433 178.703 43.29C178.703 44.0367 178.54 44.6993 178.213 45.278C177.896 45.8473 177.452 46.2907 176.883 46.608C176.314 46.9253 175.67 47.084 174.951 47.084C174.419 47.084 173.929 46.9813 173.481 46.776C173.042 46.5707 172.669 46.272 172.361 45.88V49.716H171.017V39.58H172.305V40.756C172.604 40.3453 172.982 40.0373 173.439 39.832C173.896 39.6173 174.4 39.51 174.951 39.51ZM174.839 45.908C175.315 45.908 175.74 45.8007 176.113 45.586C176.496 45.362 176.794 45.054 177.009 44.662C177.233 44.2607 177.345 43.8033 177.345 43.29C177.345 42.7767 177.233 42.324 177.009 41.932C176.794 41.5307 176.496 41.2227 176.113 41.008C175.74 40.7933 175.315 40.686 174.839 40.686C174.372 40.686 173.948 40.798 173.565 41.022C173.192 41.2367 172.893 41.54 172.669 41.932C172.454 42.324 172.347 42.7767 172.347 43.29C172.347 43.8033 172.454 44.2607 172.669 44.662C172.884 45.054 173.182 45.362 173.565 45.586C173.948 45.8007 174.372 45.908 174.839 45.908ZM187.362 43.332C187.362 43.4347 187.352 43.57 187.334 43.738H181.314C181.398 44.3913 181.682 44.9187 182.168 45.32C182.662 45.712 183.274 45.908 184.002 45.908C184.888 45.908 185.602 45.6093 186.144 45.012L186.886 45.88C186.55 46.272 186.13 46.5707 185.626 46.776C185.131 46.9813 184.576 47.084 183.96 47.084C183.176 47.084 182.48 46.9253 181.874 46.608C181.267 46.2813 180.796 45.8287 180.46 45.25C180.133 44.6713 179.97 44.018 179.97 43.29C179.97 42.5713 180.128 41.9227 180.446 41.344C180.772 40.7653 181.216 40.3173 181.776 40C182.345 39.6733 182.984 39.51 183.694 39.51C184.403 39.51 185.033 39.6733 185.584 40C186.144 40.3173 186.578 40.7653 186.886 41.344C187.203 41.9227 187.362 42.5853 187.362 43.332ZM183.694 40.644C183.05 40.644 182.508 40.84 182.07 41.232C181.64 41.624 181.388 42.1373 181.314 42.772H186.074C185.999 42.1467 185.742 41.638 185.304 41.246C184.874 40.8447 184.338 40.644 183.694 40.644ZM194.501 43.15C195.462 43.3927 195.943 43.9947 195.943 44.956C195.943 45.6093 195.695 46.1133 195.201 46.468C194.715 46.8227 193.987 47 193.017 47H189.447V39.58H192.891C193.768 39.58 194.454 39.748 194.949 40.084C195.443 40.4107 195.691 40.8773 195.691 41.484C195.691 41.876 195.583 42.2167 195.369 42.506C195.163 42.786 194.874 43.0007 194.501 43.15ZM190.763 42.772H192.779C193.292 42.772 193.679 42.6787 193.941 42.492C194.211 42.3053 194.347 42.0347 194.347 41.68C194.347 40.9707 193.824 40.616 192.779 40.616H190.763V42.772ZM192.919 45.964C193.479 45.964 193.899 45.8753 194.179 45.698C194.459 45.5207 194.599 45.2453 194.599 44.872C194.599 44.4893 194.468 44.2047 194.207 44.018C193.955 43.8313 193.553 43.738 193.003 43.738H190.763V45.964H192.919ZM208.616 39.58V47H198.046V39.58H199.39V45.824H202.666V39.58H204.01V45.824H207.272V39.58H208.616ZM211.226 39.58H212.57V44.984L217.12 39.58H218.338V47H216.994V41.596L212.458 47H211.226V39.58ZM220.947 39.58H222.291V44.984L226.841 39.58H228.059V47H226.715V41.596L222.179 47H220.947V39.58ZM224.419 38.614C223.728 38.614 223.191 38.4507 222.809 38.124C222.426 37.788 222.23 37.3073 222.221 36.682H223.131C223.14 37.0273 223.257 37.3073 223.481 37.522C223.714 37.7273 224.022 37.83 224.405 37.83C224.787 37.83 225.095 37.7273 225.329 37.522C225.562 37.3073 225.683 37.0273 225.693 36.682H226.631C226.621 37.3073 226.421 37.788 226.029 38.124C225.637 38.4507 225.1 38.614 224.419 38.614ZM74.848 63.824V66.722H73.588V65H67.386V66.722H66.112V63.824H66.504C66.98 63.796 67.3067 63.46 67.484 62.816C67.6613 62.172 67.7827 61.262 67.848 60.086L67.96 57.58H73.714V63.824H74.848ZM69.08 60.184C69.0427 61.1173 68.9633 61.892 68.842 62.508C68.73 63.1147 68.52 63.5533 68.212 63.824H72.37V58.756H69.15L69.08 60.184ZM76.5989 57.58H77.9429V62.984L82.4929 57.58H83.7109V65H82.3669V59.596L77.8309 65H76.5989V57.58ZM90.2145 61.136C90.7092 61.2667 91.0919 61.4767 91.3625 61.766C91.6332 62.0553 91.7685 62.4147 91.7685 62.844C91.7685 63.2827 91.6192 63.6747 91.3205 64.02C91.0219 64.356 90.6065 64.622 90.0745 64.818C89.5519 65.0047 88.9639 65.098 88.3105 65.098C87.7599 65.098 87.2185 65.028 86.6865 64.888C86.1639 64.7387 85.6972 64.5287 85.2865 64.258L85.6925 63.236C86.0472 63.46 86.4532 63.6373 86.9105 63.768C87.3679 63.8893 87.8299 63.95 88.2965 63.95C88.9312 63.95 89.4352 63.8427 89.8085 63.628C90.1912 63.404 90.3825 63.1053 90.3825 62.732C90.3825 62.3867 90.2285 62.1207 89.9205 61.934C89.6219 61.7473 89.1972 61.654 88.6465 61.654H87.2885V60.688H88.5485C89.0525 60.688 89.4492 60.5993 89.7385 60.422C90.0279 60.2447 90.1725 60.002 90.1725 59.694C90.1725 59.358 89.9999 59.0967 89.6545 58.91C89.3185 58.7233 88.8612 58.63 88.2825 58.63C87.5452 58.63 86.7659 58.8213 85.9445 59.204L85.5805 58.168C86.4859 57.7107 87.4332 57.482 88.4225 57.482C89.0199 57.482 89.5565 57.566 90.0325 57.734C90.5085 57.902 90.8819 58.14 91.1525 58.448C91.4232 58.756 91.5585 59.106 91.5585 59.498C91.5585 59.862 91.4372 60.1887 91.1945 60.478C90.9519 60.7673 90.6252 60.9867 90.2145 61.136ZM96.4578 57.51C97.4844 57.51 98.2684 57.762 98.8098 58.266C99.3604 58.77 99.6358 59.5213 99.6358 60.52V65H98.3618V64.02C98.1378 64.3653 97.8158 64.6313 97.3958 64.818C96.9851 64.9953 96.4951 65.084 95.9258 65.084C95.0951 65.084 94.4278 64.8833 93.9238 64.482C93.4291 64.0807 93.1818 63.5533 93.1818 62.9C93.1818 62.2467 93.4198 61.724 93.8958 61.332C94.3718 60.9307 95.1278 60.73 96.1638 60.73H98.2918V60.464C98.2918 59.8853 98.1238 59.442 97.7878 59.134C97.4518 58.826 96.9571 58.672 96.3038 58.672C95.8651 58.672 95.4358 58.7467 95.0158 58.896C94.5958 59.036 94.2411 59.2273 93.9518 59.47L93.3918 58.462C93.7744 58.154 94.2318 57.9207 94.7638 57.762C95.2958 57.594 95.8604 57.51 96.4578 57.51ZM96.1498 64.048C96.6631 64.048 97.1064 63.936 97.4798 63.712C97.8531 63.4787 98.1238 63.152 98.2918 62.732V61.696H96.2198C95.0811 61.696 94.5118 62.0787 94.5118 62.844C94.5118 63.2173 94.6564 63.5113 94.9458 63.726C95.2351 63.9407 95.6364 64.048 96.1498 64.048ZM102.056 57.58H103.4V62.984L107.95 57.58H109.168V65H107.824V59.596L103.288 65H102.056V57.58ZM105.528 56.614C104.837 56.614 104.301 56.4507 103.918 56.124C103.535 55.788 103.339 55.3073 103.33 54.682H104.24C104.249 55.0273 104.366 55.3073 104.59 55.522C104.823 55.7273 105.131 55.83 105.514 55.83C105.897 55.83 106.205 55.7273 106.438 55.522C106.671 55.3073 106.793 55.0273 106.802 54.682H107.74C107.731 55.3073 107.53 55.788 107.138 56.124C106.746 56.4507 106.209 56.614 105.528 56.614ZM111.777 57.58H113.121V60.73H117.349V57.58H118.693V65H117.349V61.892H113.121V65H111.777V57.58Z" fill="#FF1D1D"/>
<g clip-path="url(#clip0)">
<path d="M35.1672 4.51512C34.9563 4.38658 34.6945 4.37312 34.4715 4.47969L28.7534 7.17326C26.7374 8.12276 25.3844 10.0794 25.2078 12.3009L25.0603 14.1276L22.0976 19.0487V16.9475C22.0976 16.9407 22.094 16.9349 22.094 16.9275C22.0929 16.8552 22.0814 16.7833 22.0591 16.7143L20.6806 12.5788L23.4953 6.95134C23.6189 6.70085 23.5904 6.40175 23.4214 6.179L18.9962 0.278519C18.7281 -0.0472258 18.2466 -0.0939177 17.9206 0.174149C17.8824 0.20546 17.8475 0.240616 17.8162 0.278519L13.3907 6.179C13.2231 6.40257 13.1959 6.7014 13.3206 6.95134L16.1353 12.5788L14.7568 16.7143C14.7346 16.7833 14.723 16.8552 14.7219 16.9275V16.9475V19.891L10.1269 12.9166C10.1211 12.9087 10.1123 12.904 10.1071 12.8969C10.0626 12.8353 10.0093 12.7812 9.94864 12.7359C9.93463 12.7258 9.92199 12.7139 9.90716 12.7043C9.89261 12.6947 9.89013 12.6895 9.8808 12.6843L7.17679 11.1207L6.05426 9.41695L4.43158 6.95354C4.24536 6.67119 3.89077 6.55171 3.57162 6.66377L0.701717 7.6704C0.31802 7.8069 0.117245 8.2285 0.25375 8.6122C0.273525 8.6685 0.300167 8.72179 0.333126 8.7715L2.36203 11.8518L3.48098 13.5547L3.84958 16.6569C3.8515 16.6668 3.85397 16.6767 3.85699 16.6863C3.86029 16.702 3.86413 16.7176 3.8688 16.7327C3.88556 16.8107 3.91494 16.8857 3.95587 16.9541C3.96109 16.9615 3.96109 16.9711 3.96631 16.9786C3.97152 16.9857 14.9345 33.6023 14.9875 33.6473C15.5269 35.0643 16.8857 36.0006 18.4018 36C18.7028 35.9997 19.0027 35.9632 19.295 35.891C20.2453 35.6578 21.063 35.0546 21.5659 34.215L31.3753 17.9418L32.9241 16.9615C33.7379 16.4441 34.4207 15.7456 34.92 14.9205C35.5536 13.8711 35.8618 12.6568 35.805 11.4321L35.5174 5.11717C35.5086 4.87053 35.3773 4.64449 35.1672 4.51512ZM29.8251 17.6583L28.6839 19.5532L24.8936 17.267L26.0362 15.3721L29.8251 17.6583ZM16.1971 28.8347V17.685H20.6224V21.4953L16.1971 28.8347ZM17.4666 13.2597H19.3532L20.3362 16.2098H16.4833L17.4666 13.2597ZM18.4098 8.09667C18.0024 8.09667 17.6723 7.76653 17.6723 7.35921C17.6723 6.95189 18.0024 6.62175 18.4098 6.62175C18.8171 6.62175 19.1475 6.95189 19.1475 7.35921C19.1475 7.76653 18.8171 8.09667 18.4098 8.09667ZM18.4098 1.95064L21.9715 6.6992L19.429 11.7845H19.1472V9.43617C20.2994 9.02886 20.9034 7.7646 20.4958 6.61241C20.0885 5.46022 18.8245 4.85652 17.6723 5.26384C16.5201 5.67116 15.9164 6.93541 16.3237 8.0876C16.5465 8.71767 17.0422 9.21343 17.6723 9.43617V11.7845H17.3905L14.848 6.6992L18.4098 1.95064ZM8.10843 13.3635L7.89145 13.5066L5.17508 15.296L4.92514 13.2059C4.9114 13.0921 4.87158 12.9834 4.80841 12.8878L3.99734 11.6562L5.22891 10.8449L6.04025 12.0765C6.10342 12.172 6.18774 12.2514 6.28662 12.3088L8.10843 13.3635ZM3.51696 8.24416L4.41674 9.61086L3.18518 10.4222L2.07885 8.74815L3.51696 8.24416ZM7.45337 15.5602L9.29742 14.3424L14.7219 22.5714V30.6159L5.60574 16.7786L7.45337 15.5602ZM20.3046 33.4487C19.6792 34.4987 18.3213 34.8432 17.2713 34.2178C16.2213 33.5926 15.8771 32.2345 16.5023 31.1844C16.5069 31.177 16.5113 31.1699 16.5157 31.1625L22.085 21.926H22.0976V21.9062L24.1317 18.5318L26.0266 19.6765L27.9242 20.8166L20.3046 33.4487ZM33.6602 14.1559C33.2798 14.7843 32.759 15.3166 32.1388 15.7105L30.8287 16.5402L28.6899 15.2526L26.5509 13.9647L26.6726 12.4159C26.8077 10.7224 27.8391 9.231 29.3758 8.50673L34.096 6.28447L34.19 8.34001C34.1161 8.33205 34.0414 8.33507 33.9686 8.34963L32.1822 8.79237C30.5197 9.19832 29.2327 10.5139 28.8633 12.185C28.7743 12.5824 29.0242 12.9765 29.4216 13.0655C29.4746 13.0779 29.5287 13.0842 29.5831 13.0842C29.9281 13.0836 30.2269 12.8441 30.3022 12.5074C30.5516 11.3838 31.417 10.4991 32.5349 10.2253L34.2578 9.79817L34.3353 11.4947C34.3784 12.4289 34.1436 13.355 33.6602 14.1559Z" fill="#212F3C"/>
</g>
<circle cx="18" cy="18" r="16.5" stroke="#FF1D1D" stroke-width="3"/>
<path d="M28.5 5.5L6 28" stroke="#FF1D1D" stroke-width="3"/>
<defs>
<clipPath id="clip0">
<rect width="36" height="36" fill="white"/>
</clipPath>
</defs>
</svg>
