<svg width="69" height="69" viewBox="0 0 69 69" fill="none" xmlns="http://www.w3.org/2000/svg">
<g clip-path="url(#clip0)">
<path d="M42.2303 47.2902L43.6744 45.0966L45.5055 46.3024L44.061 48.4955L42.2303 47.2902Z" fill="#212F3C"/>
<path d="M44.4004 44.0017L53.0678 30.8394L54.8989 32.0447L46.231 45.2075L44.4004 44.0017Z" fill="#212F3C"/>
<path d="M8.37024 23.9881L10.2025 22.7808L11.4093 24.6119L9.57708 25.8193L8.37024 23.9881Z" fill="#212F3C"/>
<path d="M13.1976 31.3133L15.0298 30.1059L16.2367 31.937L14.4045 33.1444L13.1976 31.3133Z" fill="#212F3C"/>
<path d="M10.7839 27.651L12.6161 26.4431L13.823 28.2747L11.9908 29.4821L10.7839 27.651Z" fill="#212F3C"/>
<path d="M56.8291 0.739777H11.752L0.0915527 19.3976L13.9247 40.3862L15.7559 39.1783L3.43044 20.4776H22.4304L30.98 62.278L18.4041 43.1971L16.5724 44.405L32.6029 68.7255H35.9771L68.4885 19.3976L56.8291 0.739777ZM21.3457 18.2845H3.37262L12.3597 3.90573L21.3457 18.2845ZM14.3391 2.93286H32.3122L23.3251 17.3116L14.3391 2.93286ZM34.2906 3.90573L43.2765 18.2845H25.3046L34.2906 3.90573ZM36.27 2.93286H54.2431L45.256 17.3116L36.27 2.93286ZM47.2355 18.2845L56.2214 3.90573L65.2085 18.2845H47.2355ZM65.1507 20.4776L37.6011 62.278L46.1507 20.4776H65.1507ZM43.9126 20.4776L34.4924 66.5324H34.0887L24.6685 20.4776H43.9126Z" fill="#212F3C"/>
<path d="M38.3196 25.9194L38.7586 23.7708L40.9062 24.2098L40.4672 26.3584L38.3196 25.9194Z" fill="#212F3C"/>
<path d="M37.4458 30.2167L37.8843 28.0692L40.0335 28.5082L39.5944 30.6558L37.4458 30.2167Z" fill="#212F3C"/>
<path d="M36.5656 34.5134L37.0051 32.3648L39.1527 32.8044L38.7131 34.953L36.5656 34.5134Z" fill="#212F3C"/>
<path d="M23.15 9.99061L24.3665 8.16589L26.1912 9.38237L24.9747 11.2071L23.15 9.99061Z" fill="#212F3C"/>
<path d="M25.5825 6.34172L26.799 4.517L28.6237 5.73348L27.4072 7.55819L25.5825 6.34172Z" fill="#212F3C"/>
<path d="M53.3564 11.8319L54.5729 10.0072L56.3976 11.2237L55.1812 13.0484L53.3564 11.8319Z" fill="#212F3C"/>
<path d="M50.924 15.4808L52.1404 13.6556L53.9652 14.8721L52.7487 16.6973L50.924 15.4808Z" fill="#212F3C"/>
<path d="M55.1249 50.0846H52.9318C52.9318 52.5037 50.9647 54.4708 48.5457 54.4708V56.6639C50.9647 56.6639 52.9318 58.631 52.9318 61.0501H55.1249C55.1249 58.631 57.0921 56.6639 59.5111 56.6639V54.4708C57.0921 54.4708 55.1249 52.5037 55.1249 50.0846Z" fill="#0085FF"/>
<path d="M16.7458 36.9261H14.5527C14.5527 39.3451 12.5856 41.3123 10.1666 41.3123V43.5054C12.5856 43.5054 14.5527 45.4725 14.5527 47.8915H16.7458C16.7458 45.4725 18.713 43.5054 21.132 43.5054V41.3123C18.713 41.3123 16.7458 39.3451 16.7458 36.9261Z" fill="#0085FF"/>
<path d="M6.87693 57.7604H4.68385C4.68385 60.1795 2.71671 62.1466 0.297668 62.1466V64.3397C2.71671 64.3397 4.68385 66.3068 4.68385 68.7259H6.87693C6.87693 66.3068 8.84407 64.3397 11.2631 64.3397V62.1466C8.84407 62.1466 6.87693 60.1795 6.87693 57.7604Z" fill="#0085FF"/>
<path d="M63.8973 34.733H61.7042C61.7042 37.152 59.737 39.1192 57.318 39.1192V41.3123C59.737 41.3123 61.7042 43.2794 61.7042 45.6984H63.8973C63.8973 43.2794 65.8644 41.3123 68.2834 41.3123V39.1192C65.8644 39.1192 63.8973 37.152 63.8973 34.733Z" fill="#0085FF"/>
</g>
<defs>
<clipPath id="clip0">
</clipPath>
</defs>
</svg>
