<svg width="70" height="70" viewBox="0 0 70 70" fill="none" xmlns="http://www.w3.org/2000/svg">
<path d="M63.4987 0.0539246H6.50126C3.35386 0.0539246 0.801514 2.60627 0.801514 5.75367V49.0717C0.801514 52.2191 3.35386 54.7715 6.50126 54.7715C9.64866 54.7715 12.201 52.2191 12.201 49.0717V37.6722C12.201 34.5248 14.7534 31.9725 17.9008 31.9725C21.0482 31.9725 23.6005 34.5248 23.6005 37.6722V57.0514C23.6005 60.1988 26.1528 62.7511 29.3002 62.7511C32.4476 62.7511 35 60.1988 35 57.0514V44.5119C35 41.3645 37.5523 38.8122 40.6997 38.8122H44.1196V34.2524L37.4304 32.7659C35.3443 32.3019 33.86 30.4518 33.86 28.3144V6.89362C33.86 5.63398 34.8803 4.61372 36.1399 4.61372H58.9389C60.1986 4.61372 61.2188 5.63398 61.2188 6.89362V28.3144C61.2188 30.4518 59.7346 32.3019 57.6485 32.7659L50.9593 34.2524V38.8122H52.0992C55.2466 38.8122 57.799 41.3645 57.799 44.5119V49.0717C57.799 52.2191 60.3513 54.7715 63.4987 54.7715C66.6461 54.7715 69.1985 52.2191 69.1985 49.0717V5.75367C69.1985 2.60627 66.6461 0.0539246 63.4987 0.0539246Z" fill="#0085FF"/>
<path d="M44.1198 61.6112C44.1198 63.4967 45.6541 65.031 47.5396 65.031C49.4251 65.031 50.9594 63.4967 50.9594 61.6112C50.9594 59.7257 49.4251 58.1913 47.5396 58.1913C45.6541 58.1913 44.1198 59.7257 44.1198 61.6112ZM48.6795 61.6112C48.6795 62.2404 48.1677 62.7511 47.5396 62.7511C46.9115 62.7511 46.3996 62.2404 46.3996 61.6112C46.3996 60.9819 46.9115 60.4712 47.5396 60.4712C48.1677 60.4712 48.6795 60.9819 48.6795 61.6112Z" fill="#212F3C"/>
<path d="M58.9392 3.47379H36.1402C34.2547 3.47379 32.7203 5.00816 32.7203 6.89363V28.3156C32.7203 31.007 34.5557 33.296 37.1844 33.8796L42.9799 35.1666V52.2214L38.2069 61.7674L42.924 67.4283C44.0685 68.8031 45.7511 69.5908 47.5397 69.5908C49.3283 69.5908 51.0108 68.8031 52.1542 67.4295L56.8724 61.7674L52.0995 52.2226V35.1666L57.895 33.8785C60.5237 33.2949 62.359 31.007 62.359 28.3156V6.89363C62.359 5.00816 60.8246 3.47379 58.9392 3.47379ZM36.1402 5.75368H37.2801V14.8733H39.56V5.75368H41.8399V8.03358H44.1198V5.75368H46.3997V10.3135H48.6796V5.75368H50.9595V14.8733H53.2394V5.75368H55.5193V8.03358H57.7992V5.75368H58.9392C59.5673 5.75368 60.0791 6.26552 60.0791 6.89363V21.713H35.0002V6.89363C35.0002 6.26552 35.5121 5.75368 36.1402 5.75368ZM35.0002 26.2728V23.9929H60.0791V26.2728H35.0002ZM57.4014 31.6533L49.8196 33.3382V52.7618L54.1662 61.455L50.4032 65.9715C49.693 66.8219 48.65 67.3109 47.5397 67.3109C46.4294 67.3109 45.3863 66.8219 44.6761 65.9692L40.9132 61.4539L45.2598 52.7606V33.3382L37.678 31.6533C36.1801 31.3205 35.1234 30.062 35.0208 28.5527H60.0597C59.956 30.062 58.8993 31.3205 57.4014 31.6533Z" fill="#212F3C"/>
<path d="M22.4607 11.4534C20.5752 11.4534 19.0409 12.9878 19.0409 14.8733V18.2931C19.0409 18.9213 18.529 19.4331 17.9009 19.4331C17.2728 19.4331 16.761 18.9213 16.761 18.2931V8.0336H14.4811V18.2931C14.4811 20.1786 16.0155 21.713 17.9009 21.713C19.7864 21.713 21.3208 20.1786 21.3208 18.2931V14.8733C21.3208 14.2452 21.8326 13.7333 22.4607 13.7333C23.0888 13.7333 23.6007 14.2452 23.6007 14.8733V26.2728H25.8806V14.8733C25.8806 12.9878 24.3462 11.4534 22.4607 11.4534Z" fill="#212F3C"/>
<path d="M4.22144 5.75368V20.573H6.50133V5.75368H8.78123V3.47379H6.50133C5.24397 3.47379 4.22144 4.49632 4.22144 5.75368Z" fill="#212F3C"/>
<path d="M4.22156 22.8529H6.50146V25.1328H4.22156V22.8529Z" fill="#212F3C"/>
<path d="M46.3997 12.5934H48.6796V14.8733H46.3997V12.5934Z" fill="#212F3C"/>
<path d="M41.8398 10.3135H44.1197V14.8733H41.8398V10.3135Z" fill="#212F3C"/>
<path d="M55.5192 10.3135H57.7991V14.8733H55.5192V10.3135Z" fill="#212F3C"/>
</svg>
