<svg width="74" height="74" viewBox="0 0 74 74" fill="none" xmlns="http://www.w3.org/2000/svg">
<g clip-path="url(#clip0)">
<path d="M61.4261 43.136H59.0727V56.08H14.3572V20.7783H24.9477V18.4249H12.0038V30.1921H0.236572V70.2006H49.6589V58.4334H61.4261V43.136ZM47.3054 67.8472H2.59002V32.5455H12.0038V58.4334H47.3054V67.8472Z" fill="#212F3C"/>
<path d="M29.6547 63.1403H32.0081V65.4938H29.6547V63.1403Z" fill="#212F3C"/>
<path d="M24.9478 63.1403H27.3012V65.4938H24.9478V63.1403Z" fill="#212F3C"/>
<path d="M7.29692 58.4334H4.94348V65.4937H22.5943V63.1403H7.29692V58.4334Z" fill="#212F3C"/>
<path d="M41.4219 51.3731H43.7753V53.7265H41.4219V51.3731Z" fill="#212F3C"/>
<path d="M36.715 51.3731H39.0684V53.7265H36.715V51.3731Z" fill="#212F3C"/>
<path d="M16.7107 46.6662V53.7265H34.3615V51.3731H19.0641V46.6662H16.7107Z" fill="#212F3C"/>
<path d="M23.771 4.3042V44.3127H73.1933V4.3042H23.771ZM62.6028 27.8386L59.4174 28.6338C59.3703 28.7528 59.3266 28.8717 59.2761 28.9884L60.9624 31.7969L55.9705 36.7899L53.162 35.1035C53.0454 35.1541 52.9253 35.1977 52.8075 35.2449L52.0123 38.4291H44.952L44.1568 35.2449C44.0378 35.1977 43.9189 35.1541 43.8023 35.1035L40.9938 36.7899L36.0007 31.7969L37.6871 28.9884C37.6366 28.8717 37.5917 28.7528 37.5458 28.6338L34.3615 27.8386V20.7783L37.5458 19.9831C37.5929 19.8642 37.6366 19.7452 37.6871 19.6286L36.0007 16.8201L40.9938 11.8271L43.8023 13.5134C43.9189 13.4629 44.039 13.4192 44.1568 13.3721L44.952 10.1878H52.0123L52.8075 13.3732C52.9265 13.4203 53.0454 13.464 53.162 13.5146L55.9705 11.8282L60.9624 16.8212L59.2761 19.6297C59.3266 19.7464 59.3703 19.8665 59.4174 19.9842L62.6028 20.7783V27.8386Z" fill="#0085FF"/>
<path d="M48.4822 32.5455C43.9402 32.5455 40.2451 28.8505 40.2451 24.3085C40.2451 19.7665 43.9402 16.0714 48.4822 16.0714C53.0242 16.0714 56.7192 19.7665 56.7192 24.3085C56.7192 28.8505 53.0242 32.5455 48.4822 32.5455ZM48.4822 18.4249C45.2381 18.4249 42.5986 21.0645 42.5986 24.3085C42.5986 27.5525 45.2381 30.1921 48.4822 30.1921C51.7262 30.1921 54.3658 27.5525 54.3658 24.3085C54.3658 21.0645 51.7262 18.4249 48.4822 18.4249Z" fill="#212F3C"/>
<path d="M52.9311 39.6059H44.0333L43.3237 36.7629L40.8122 38.2706L34.5201 31.9784L36.0278 29.467L33.1848 28.7574V19.8596L36.0278 19.15L34.5201 16.6385L40.8122 10.3464L43.3237 11.8541L44.0333 9.01111H52.9311L53.6407 11.8541L56.1533 10.3453L62.4454 16.6374L60.9377 19.1488L63.7796 19.8596V28.7574L60.9366 29.467L62.4443 31.9784L56.1521 38.2706L53.6395 36.7617L52.9311 39.6059ZM45.8708 37.2524H51.0936L51.8124 34.3744L53.2488 33.7832L55.7896 35.3087L59.4824 31.6159L57.9569 29.074L58.5056 27.7352L59.1336 27.4928L61.4261 26.9199V21.6971L58.5481 20.9783L57.9569 19.5407L59.4824 17.0011L55.7896 13.3083L53.2488 14.8338L51.8124 14.2426L51.0936 11.3646H45.8708L45.152 14.2426L43.7144 14.8338L41.1748 13.3083L37.482 17.0011L39.0075 19.5407L38.4163 20.9783L35.5383 21.6971V26.9199L38.4203 27.6399L39.0087 29.074L37.4832 31.6159L41.176 35.3087L43.7156 33.7832L45.1531 34.3744L45.8708 37.2524Z" fill="#212F3C"/>
</g>
<defs>
<clipPath id="clip0">
</clipPath>
</defs>
</svg>
