<svg width="74" height="74" viewBox="0 0 74 74" fill="none" xmlns="http://www.w3.org/2000/svg">
<g clip-path="url(#clip0)">
<path d="M36.7847 73.3789C17.9285 73.3789 2.58691 58.0367 2.58691 39.1811C2.58691 20.7187 17.2928 5.62708 35.6054 5.00292V0.421875L49.5236 9.70027L35.6054 18.9781V14.4443C22.4957 15.0621 12.0208 25.9216 12.0208 39.1811C12.0208 52.835 23.1302 63.945 36.7847 63.945C50.4391 63.945 61.5485 52.835 61.5485 39.1811V38.0019H70.9824V39.1811C70.9824 58.0367 55.6403 73.3789 36.7847 73.3789Z" fill="#0085FF"/>
<path d="M60.3969 31.633L62.6747 31.0226L63.285 33.3005L61.0072 33.9108L60.3969 31.633Z" fill="#212F3C"/>
<path d="M57.6428 25.7794L59.6852 24.6002L60.8644 26.6431L58.8215 27.8217L57.6428 25.7794Z" fill="#212F3C"/>
<path d="M53.4614 20.8356L55.1289 19.1681L56.7964 20.8356L55.1289 22.5031L53.4614 20.8356Z" fill="#212F3C"/>
<path d="M48.1445 17.143L49.3232 15.1007L51.3661 16.2793L50.1869 18.3223L48.1445 17.143Z" fill="#212F3C"/>
<path d="M67.7809 31.812L70.0927 31.3525L70.5522 33.6644L68.2404 34.1238L67.7809 31.812Z" fill="#212F3C"/>
<path d="M65.7472 25.9101L67.9272 25.0073L68.8294 27.1861L66.6495 28.0889L65.7472 25.9101Z" fill="#212F3C"/>
<path d="M62.6 20.5114L64.5606 19.2009L65.8705 21.1609L63.9093 22.4715L62.6 20.5114Z" fill="#212F3C"/>
<path d="M58.464 15.8337L60.1315 14.1656L61.799 15.8337L60.1315 17.5012L58.464 15.8337Z" fill="#212F3C"/>
<path d="M53.4919 12.0518L54.803 10.0912L56.7625 11.4018L55.452 13.3623L53.4919 12.0518Z" fill="#212F3C"/>
<path d="M30.428 31.2132L26.036 32.7252L26.348 33.8292L30.236 32.6052V48.0132H31.508V31.2132H30.428ZM41.1567 48.2772C45.1887 48.2772 47.4447 44.7972 47.4447 39.6132C47.4447 34.4292 45.1887 30.9492 41.1567 30.9492C37.1247 30.9492 34.8687 34.4292 34.8687 39.6132C34.8687 44.7972 37.1247 48.2772 41.1567 48.2772ZM41.1567 47.0532C38.0367 47.0532 36.1647 44.3172 36.1647 39.6132C36.1647 34.9092 38.0367 32.1732 41.1567 32.1732C44.2767 32.1732 46.1487 34.9092 46.1487 39.6132C46.1487 44.3172 44.2767 47.0532 41.1567 47.0532Z" fill="#212F3C"/>
<path d="M30.428 31.2132V30.4132H30.2941L30.1675 30.4568L30.428 31.2132ZM26.036 32.7252L25.7755 31.9688L25.0604 32.215L25.2661 32.9428L26.036 32.7252ZM26.348 33.8292L25.5781 34.0468L25.8022 34.8397L26.5882 34.5923L26.348 33.8292ZM30.236 32.6052H31.036V31.5147L29.9957 31.8421L30.236 32.6052ZM30.236 48.0132H29.436V48.8132H30.236V48.0132ZM31.508 48.0132V48.8132H32.308V48.0132H31.508ZM31.508 31.2132H32.308V30.4132H31.508V31.2132ZM30.1675 30.4568L25.7755 31.9688L26.2964 33.4816L30.6884 31.9696L30.1675 30.4568ZM25.2661 32.9428L25.5781 34.0468L27.1178 33.6116L26.8058 32.5076L25.2661 32.9428ZM26.5882 34.5923L30.4762 33.3683L29.9957 31.8421L26.1077 33.0661L26.5882 34.5923ZM29.436 32.6052V48.0132H31.036V32.6052H29.436ZM30.236 48.8132H31.508V47.2132H30.236V48.8132ZM32.308 48.0132V31.2132H30.708V48.0132H32.308ZM31.508 30.4132H30.428V32.0132H31.508V30.4132ZM41.1567 49.0772C43.4368 49.0772 45.2513 48.0774 46.467 46.3495C47.6606 44.6531 48.2447 42.307 48.2447 39.6132H46.6447C46.6447 42.1034 46.1008 44.0894 45.1584 45.4289C44.2381 46.737 42.9086 47.4772 41.1567 47.4772V49.0772ZM48.2447 39.6132C48.2447 36.9194 47.6606 34.5734 46.467 32.8769C45.2513 31.149 43.4368 30.1492 41.1567 30.1492V31.7492C42.9086 31.7492 44.2381 32.4894 45.1584 33.7975C46.1008 35.1371 46.6447 37.123 46.6447 39.6132H48.2447ZM41.1567 30.1492C38.8766 30.1492 37.0621 31.149 35.8464 32.8769C34.6528 34.5734 34.0687 36.9194 34.0687 39.6132H35.6687C35.6687 37.123 36.2126 35.1371 37.155 33.7975C38.0753 32.4894 39.4048 31.7492 41.1567 31.7492V30.1492ZM34.0687 39.6132C34.0687 42.307 34.6528 44.6531 35.8464 46.3495C37.0621 48.0774 38.8766 49.0772 41.1567 49.0772V47.4772C39.4048 47.4772 38.0753 46.737 37.155 45.4289C36.2126 44.0894 35.6687 42.1034 35.6687 39.6132H34.0687ZM41.1567 46.2532C39.8678 46.2532 38.8661 45.7057 38.1539 44.6499C37.4174 43.5579 36.9647 41.8754 36.9647 39.6132H35.3647C35.3647 42.055 35.8481 44.0926 36.8275 45.5446C37.8313 47.0327 39.3256 47.8532 41.1567 47.8532V46.2532ZM36.9647 39.6132C36.9647 37.351 37.4174 35.6686 38.1539 34.5766C38.8661 33.5207 39.8678 32.9732 41.1567 32.9732V31.3732C39.3256 31.3732 37.8313 32.1937 36.8275 33.6819C35.8481 35.1339 35.3647 37.1714 35.3647 39.6132H36.9647ZM41.1567 32.9732C42.4456 32.9732 43.4473 33.5207 44.1595 34.5766C44.8961 35.6686 45.3487 37.351 45.3487 39.6132H46.9487C46.9487 37.1714 46.4654 35.1339 45.4859 33.6819C44.4821 32.1937 42.9878 31.3732 41.1567 31.3732V32.9732ZM45.3487 39.6132C45.3487 41.8754 44.8961 43.5579 44.1595 44.6499C43.4473 45.7057 42.4456 46.2532 41.1567 46.2532V47.8532C42.9878 47.8532 44.4821 47.0327 45.4859 45.5446C46.4654 44.0926 46.9487 42.055 46.9487 39.6132H45.3487Z" fill="#212F3C"/>
</g>
<defs>
<clipPath id="clip0">
</clipPath>
</defs>
</svg>
